<?xml version="1.0" encoding="UTF-8"?>
<svg version="1.1" xmlns="http://www.w3.org/2000/svg" width="512" height="512">
<path d="M0 0 C21.34801132 4.64415285 40.75278574 13.76770537 57.46679688 27.87084961 C58.80677734 29.00006836 58.80677734 29.00006836 60.17382812 30.15209961 C84.11676651 51.0424053 99.45841807 80.35197356 103.46679688 111.87084961 C103.65003712 115.22618216 103.68441544 118.5179117 103.46679688 121.87084961 C104.04042969 121.98299805 104.6140625 122.09514648 105.20507812 122.21069336 C133.17903129 128.70540479 159.05972863 149.33131105 174.22216797 173.34887695 C181.08761495 184.61982892 185.58230043 195.99917191 188.46679688 208.87084961 C188.64186768 209.63413574 188.81693848 210.39742187 188.99731445 211.18383789 C191.71863909 226.75892834 190.7628133 244.91519758 185.46679688 259.87084961 C185.21478516 260.58660156 184.96277344 261.30235352 184.703125 262.03979492 C179.76540641 275.65108394 172.71175375 286.73756112 163.46679688 297.87084961 C163.0259375 298.43545898 162.58507812 299.00006836 162.13085938 299.58178711 C144.23310933 322.28430227 113.25768461 335.21316604 85.29870605 338.60900879 C75.8315217 339.484353 66.27453468 339.16940094 56.77929688 339.05834961 C54.50521732 339.04325724 52.23112793 339.02957699 49.95703125 339.01733398 C44.46003759 338.98473144 38.96353019 338.93320711 33.46679688 338.87084961 C32.80679687 342.50084961 32.14679688 346.13084961 31.46679688 349.87084961 C33.11679687 350.53084961 34.76679688 351.19084961 36.46679688 351.87084961 C39.37928202 353.37410107 42.19794582 355.03314586 45.02929688 356.68334961 C46.16141602 357.32240234 46.16141602 357.32240234 47.31640625 357.97436523 C55.12926858 362.52441105 55.12926858 362.52441105 57.46679688 366.87084961 C59.30972481 374.00962276 56.03442084 379.33173511 52.4765625 385.36694336 C51.45079102 387.03950195 51.45079102 387.03950195 50.40429688 388.74584961 C49.74751953 389.8531543 49.09074219 390.96045898 48.4140625 392.10131836 C46.46081395 395.37661789 44.46993707 398.62587181 42.46679688 401.87084961 C41.51764404 403.43754395 41.51764404 403.43754395 40.54931641 405.03588867 C39.94587402 406.01525391 39.34243164 406.99461914 38.72070312 408.00366211 C38.18904541 408.8713623 37.6573877 409.7390625 37.10961914 410.63305664 C35.40145748 412.95985257 33.93086259 414.37934766 31.46679688 415.87084961 C24.39687349 416.8175131 20.23587527 414.62072464 14.27929688 410.99584961 C11.99636627 409.64984428 9.71071679 408.31064789 7.41162109 406.99243164 C5.87109283 406.10400748 4.3505811 405.18088562 2.83789062 404.24584961 C0.19741108 403.56623867 0.19741108 403.56623867 -2.70507812 405.80053711 C-3.90803346 406.76972522 -5.10013931 407.752478 -6.28320312 408.74584961 C-11.79373451 413.08869621 -17.28198999 416.55735556 -23.65820312 419.49584961 C-24.3681543 419.82568848 -25.07810547 420.15552734 -25.80957031 420.49536133 C-29.3708279 422.08882417 -32.70544618 423.18170516 -36.53320312 423.87084961 C-36.50701904 424.72316162 -36.48083496 425.57547363 -36.45385742 426.45361328 C-36.3683882 429.63112088 -36.30583524 432.80804071 -36.25854492 435.98632812 C-36.23347695 437.35892063 -36.1994123 438.73138063 -36.15600586 440.10351562 C-36.09502781 442.08135657 -36.06959303 444.06019144 -36.04492188 446.03881836 C-36.01873779 447.22757568 -35.99255371 448.41633301 -35.96557617 449.64111328 C-36.6964097 453.79947747 -38.32400342 455.22938261 -41.53320312 457.87084961 C-43.86855088 459.03852349 -45.28500091 459.01560897 -47.88769531 459.04785156 C-48.78913269 459.0606868 -49.69057007 459.07352203 -50.61932373 459.08674622 C-52.08489716 459.09782661 -52.08489716 459.09782661 -53.58007812 459.10913086 C-54.58403625 459.11720261 -55.58799438 459.12527435 -56.62237549 459.1335907 C-58.75083689 459.14743803 -60.87932056 459.15815727 -63.0078125 459.16601562 C-66.2562906 459.18320718 -69.5037455 459.22708553 -72.75195312 459.27124023 C-74.81965397 459.28136895 -76.88736348 459.28988449 -78.95507812 459.29663086 C-79.92403015 459.31413895 -80.89298218 459.33164703 -81.89129639 459.34968567 C-87.74821458 459.33093956 -91.07033623 458.77064028 -95.53320312 454.87084961 C-96.96829533 452.0006652 -96.64478818 449.53541238 -96.63085938 446.33178711 C-96.62763672 445.02983398 -96.62441406 443.72788086 -96.62109375 442.38647461 C-96.61273778 441.00626562 -96.60427283 439.62605729 -96.59570312 438.24584961 C-96.59068814 436.85783035 -96.58612523 435.46980939 -96.58203125 434.08178711 C-96.57021289 430.67809829 -96.55373746 427.27449522 -96.53320312 423.87084961 C-97.16734131 423.69779297 -97.80147949 423.52473633 -98.45483398 423.34643555 C-104.01445748 421.76496671 -109.03792892 419.91158147 -114.09570312 417.12084961 C-114.73556152 416.77521973 -115.37541992 416.42958984 -116.03466797 416.07348633 C-120.57892362 413.55732153 -124.66392772 410.71781432 -128.60351562 407.31616211 C-130.90476045 405.59255768 -132.75735761 404.65592701 -135.53320312 403.87084961 C-137.99848088 404.68536561 -137.99848088 404.68536561 -140.33398438 406.30053711 C-141.22923828 406.84838867 -142.12449219 407.39624023 -143.046875 407.96069336 C-144.43229492 408.8443457 -144.43229492 408.8443457 -145.84570312 409.74584961 C-157.39779148 417.10979568 -157.39779148 417.10979568 -164.53320312 415.87084961 C-168.5631374 413.16590055 -170.7313892 410.34858417 -173.09179688 406.14428711 C-173.72537109 405.02924805 -174.35894531 403.91420898 -175.01171875 402.76538086 C-175.66508951 401.59241312 -176.31808263 400.41923495 -176.97070312 399.24584961 C-178.26030292 396.96156351 -179.55065741 394.6777033 -180.84179688 392.39428711 C-181.45998291 391.29084961 -182.07816895 390.18741211 -182.71508789 389.05053711 C-184.84889536 385.31873792 -187.1051897 381.67426301 -189.41943359 378.05200195 C-191.25909441 374.44929924 -191.7604322 370.73764959 -190.53320312 366.87084961 C-186.78717135 361.30001819 -182.27605909 358.64297694 -176.40820312 355.55834961 C-175.59738281 355.1168457 -174.7865625 354.6753418 -173.95117188 354.22045898 C-170.82583861 352.53381219 -167.90933214 350.99622595 -164.53320312 349.87084961 C-165.52320313 344.42584961 -165.52320313 344.42584961 -166.53320312 338.87084961 C-167.69806496 338.88084236 -167.69806496 338.88084236 -168.88645935 338.89103699 C-176.28336542 338.9516942 -183.68014724 338.99709698 -191.07723904 339.02628613 C-194.8781813 339.04179806 -198.67891439 339.06276344 -202.47973633 339.09716797 C-238.54600776 339.41498857 -268.68020988 334.15336282 -295.40820312 308.37084961 C-316.00591969 287.02791898 -323.26848435 260.75323928 -322.84179688 231.75366211 C-322.57486118 223.56837244 -321.36545103 216.57154732 -318.53320312 208.87084961 C-318.29182617 208.2122998 -318.05044922 207.55375 -317.80175781 206.87524414 C-307.80727934 180.31758909 -287.1144913 159.75186393 -261.53320312 147.94799805 C-255.2221177 145.17124568 -249.19420948 142.94155147 -242.34570312 141.93334961 C-239.65864183 141.40411104 -239.65864183 141.40411104 -237.53320312 139.87084961 C-236.01260257 136.36605078 -235.27894115 132.85238403 -234.53710938 129.12866211 C-231.08541905 112.67724676 -219.04756293 97.82101965 -205.30664062 88.73803711 C-193.33914316 81.38570971 -180.8462881 77.67154924 -166.78320312 77.68334961 C-165.59428467 77.68238281 -165.59428467 77.68238281 -164.38134766 77.68139648 C-158.58912124 77.73352534 -153.13057138 78.2957108 -147.53320312 79.87084961 C-147.20320312 78.67459961 -146.87320313 77.47834961 -146.53320312 76.24584961 C-139.34076257 54.83657561 -122.09867498 36.44198129 -104.53320312 22.87084961 C-103.30730469 21.90405273 -103.30730469 21.90405273 -102.05664062 20.91772461 C-98.59195122 18.36980869 -95.70179549 16.5044982 -91.34570312 16.18334961 C-86.59251079 17.04048265 -84.66903728 18.19962914 -81.53320312 21.87084961 C-80.14786719 25.73111154 -79.93364558 28.56348107 -81.65820312 32.32397461 C-83.90791011 35.3798266 -86.55124677 37.42783519 -89.59570312 39.62084961 C-90.77227728 40.50217427 -91.94673536 41.38633046 -93.11914062 42.27319336 C-93.69889648 42.71131348 -94.27865234 43.14943359 -94.87597656 43.60083008 C-111.30953286 56.19472517 -122.0010952 73.179652 -129.11132812 92.39819336 C-129.58054688 93.54416992 -130.04976562 94.69014648 -130.53320312 95.87084961 C-130.79037109 96.50651855 -131.04753906 97.1421875 -131.3125 97.79711914 C-132.53112876 100.37770553 -133.74118384 102.43374775 -136.28369141 103.83691406 C-141.61673675 105.49670839 -145.56722815 104.37551183 -150.65820312 102.49584961 C-164.25108043 98.0437804 -175.99383658 99.15415779 -189.06445312 105.00366211 C-200.81710346 111.08123129 -208.39313196 120.40002453 -212.90820312 132.80834961 C-214.49601086 137.96035022 -214.95620613 142.87440077 -215.27148438 148.23413086 C-215.61577695 151.70275009 -216.50132622 154.04073535 -218.53320312 156.87084961 C-222.84882122 160.10551592 -227.17061057 160.72445058 -232.34570312 161.62084961 C-254.32012172 165.87491775 -274.24693748 177.96998827 -287.40820312 196.24584961 C-296.03505333 209.43617854 -301.13482509 222.80359515 -300.97070312 238.62084961 C-300.96167969 239.67143555 -300.95265625 240.72202148 -300.94335938 241.80444336 C-300.45427058 263.8949538 -290.5926305 282.4041871 -274.84570312 297.55834961 C-257.8660341 312.2285737 -237.43741101 317.09907826 -215.45898438 317.28491211 C-214.03979931 317.30366833 -212.62062487 317.32324487 -211.20146179 317.34359741 C-207.50434703 317.39445517 -203.80719628 317.43432564 -200.10992432 317.47174072 C-196.32189376 317.51207477 -192.53400679 317.56303137 -188.74609375 317.61303711 C-181.34189616 317.70924578 -173.93762779 317.7938226 -166.53320312 317.87084961 C-166.20320312 314.24084961 -165.87320313 310.61084961 -165.53320312 306.87084961 C-167.00273437 306.06260742 -168.47226563 305.25436523 -169.98632812 304.42163086 C-171.91892655 303.3427531 -173.85120139 302.26329553 -175.78320312 301.18334961 C-176.75128906 300.65290039 -177.719375 300.12245117 -178.71679688 299.57592773 C-188.41574453 294.12445026 -188.41574453 294.12445026 -190.53320312 289.87084961 C-192.36680603 282.69128396 -189.08055829 277.39223936 -185.49414062 271.32592773 C-184.80578125 270.20637695 -184.11742187 269.08682617 -183.40820312 267.93334961 C-182.74304688 266.81766602 -182.07789063 265.70198242 -181.39257812 264.55249023 C-180.07972113 262.35538544 -178.75757165 260.16380275 -177.42553711 257.97827148 C-175.18019715 254.29117473 -172.98443321 250.57578528 -170.79467773 246.85546875 C-169.00027737 244.03242238 -167.52931074 242.40374188 -164.53320312 240.87084961 C-156.56871583 239.37843177 -151.06711668 242.794569 -144.47070312 246.87084961 C-143.50970703 247.44319336 -142.54871094 248.01553711 -141.55859375 248.60522461 C-139.20569275 250.00994162 -136.86513823 251.43169064 -134.53320312 252.87084961 C-130.99905175 250.54175272 -127.55353594 248.14589856 -124.15820312 245.62084961 C-119.71727692 242.50275249 -115.11421391 239.94291214 -110.28320312 237.49584961 C-109.27314209 236.97716309 -109.27314209 236.97716309 -108.24267578 236.44799805 C-107.59089355 236.12605469 -106.93911133 235.80411133 -106.26757812 235.47241211 C-105.69233398 235.1870459 -105.11708984 234.90167969 -104.52441406 234.60766602 C-101.90648652 233.63894295 -99.28897199 233.26918613 -96.53320312 232.87084961 C-96.55415039 232.0185376 -96.57509766 231.16622559 -96.59667969 230.28808594 C-96.66505556 227.11055528 -96.7151005 223.9334009 -96.75292969 220.75537109 C-96.77298303 219.38284938 -96.80023341 218.01041244 -96.83496094 216.63818359 C-96.88374864 214.66012917 -96.90409189 212.68143842 -96.92382812 210.70288086 C-96.94477539 209.51412354 -96.96572266 208.32536621 -96.98730469 207.10058594 C-96.44381812 203.2351108 -95.24168291 201.6243448 -92.53320312 198.87084961 C-90.1491677 197.6788319 -88.64069196 197.72529274 -85.97924805 197.69384766 C-85.03454147 197.68101242 -84.0898349 197.66817719 -83.11650085 197.654953 C-81.58060051 197.6438726 -81.58060051 197.6438726 -80.01367188 197.63256836 C-78.96294998 197.62449661 -77.91222809 197.61642487 -76.82966614 197.60810852 C-74.60285089 197.59426146 -72.37601436 197.5835421 -70.14916992 197.57568359 C-66.74487037 197.5584718 -63.34154202 197.51459048 -59.9375 197.47045898 C-57.77539778 197.46033216 -55.61328729 197.45181603 -53.45117188 197.44506836 C-51.92438057 197.41880623 -51.92438057 197.41880623 -50.366745 197.39201355 C-43.28317087 197.41373256 -43.28317087 197.41373256 -39.41333008 199.77246094 C-36.19599329 203.36329456 -36.41486556 205.65320893 -36.43554688 210.40991211 C-36.43876953 211.71186523 -36.44199219 213.01381836 -36.4453125 214.35522461 C-36.45366847 215.7354336 -36.46213342 217.11564193 -36.47070312 218.49584961 C-36.47571811 219.88386886 -36.48028102 221.27188983 -36.484375 222.65991211 C-36.49619336 226.06360093 -36.51266879 229.467204 -36.53320312 232.87084961 C-35.16264771 233.06988892 -35.16264771 233.06988892 -33.7644043 233.27294922 C-31.11322335 233.76352286 -29.21545126 234.26928817 -26.83398438 235.43725586 C-26.18727783 235.75412354 -25.54057129 236.07099121 -24.87426758 236.39746094 C-24.20484131 236.7393042 -23.53541504 237.08114746 -22.84570312 237.43334961 C-22.14598389 237.7861499 -21.44626465 238.1389502 -20.7253418 238.50244141 C-15.41147603 241.25410158 -10.59744432 244.43514739 -5.86523438 248.10913086 C-3.50958324 249.88869311 -1.08828167 251.39589308 1.46679688 252.87084961 C2.05581787 252.50733398 2.64483887 252.14381836 3.25170898 251.76928711 C5.95713026 250.11566493 8.68008713 248.49331658 11.40429688 246.87084961 C12.79358398 246.01233398 12.79358398 246.01233398 14.2109375 245.13647461 C19.87149726 241.79972359 24.81881242 239.16878334 31.46679688 240.87084961 C36.91881497 244.1837984 39.34213375 248.55156365 42.21679688 254.12084961 C43.0708319 255.73037716 43.92768039 257.33841451 44.78710938 258.94506836 C45.44114746 260.1697583 45.44114746 260.1697583 46.10839844 261.41918945 C47.44715577 263.83540102 48.86506084 266.17637194 50.33398438 268.51538086 C50.79579102 269.25820313 51.25759766 270.00102539 51.73339844 270.76635742 C52.61325896 272.16995951 53.50763725 273.56460693 54.41894531 274.94799805 C57.4658391 279.87065884 58.538338 284.10143931 57.46679688 289.87084961 C54.60362689 295.62245285 48.1483278 298.20721782 42.71679688 301.18334961 C41.73324219 301.73313477 40.7496875 302.28291992 39.73632812 302.84936523 C37.31834663 304.19920928 34.8932527 305.5362989 32.46679688 306.87084961 C32.79679687 310.50084961 33.12679688 314.13084961 33.46679688 317.87084961 C39.99180637 317.80114373 46.51622465 317.712795 53.04077148 317.60839844 C55.25261785 317.57548645 57.46454141 317.54735401 59.67651367 317.52441406 C90.23513815 317.19910141 116.1423226 311.8183074 139.46679688 290.87084961 C140.17320312 290.24694336 140.87960937 289.62303711 141.60742188 288.98022461 C156.61232261 274.92051447 166.7847549 254.57714315 167.84570312 234.04663086 C168.50980322 211.65797976 162.68495023 193.50349383 148.46679688 175.87084961 C147.79003906 175.0290918 147.11328125 174.18733398 146.41601562 173.32006836 C132.70426801 157.20187143 114.43753963 147.87403096 94.46679688 141.87084961 C85.71469911 139.10219499 85.71469911 139.10219499 83.46679688 134.87084961 C82.45985741 131.85003122 82.32075611 129.28128147 82.22753906 126.12158203 C81.36370528 98.83883179 71.23291602 74.42810338 53.46679688 53.87084961 C52.48259766 52.73196289 52.48259766 52.73196289 51.47851562 51.57006836 C35.07373843 34.04119508 11.02481687 23.82948586 -12.33862305 20.47729492 C-17.89623247 19.58341004 -20.96882009 18.56120475 -24.53320312 13.87084961 C-25.91692384 9.89265256 -25.6258634 8.14883044 -24.28320312 4.12084961 C-19.60301333 -4.57093145 -8.29874539 -1.63891162 0 0 Z M-76.53320312 218.87084961 C-76.54738281 220.77350586 -76.5615625 222.67616211 -76.57617188 224.63647461 C-76.62306691 227.1312907 -76.67131432 229.62608164 -76.72070312 232.12084961 C-76.7294043 234.00223633 -76.7294043 234.00223633 -76.73828125 235.92163086 C-76.76728516 237.1269043 -76.79628906 238.33217773 -76.82617188 239.57397461 C-76.84188232 240.68417969 -76.85759277 241.79438477 -76.8737793 242.93823242 C-77.53320312 245.87084961 -77.53320312 245.87084961 -79.87036133 248.18701172 C-83.01564189 250.17591793 -85.96180839 251.1429539 -89.53320312 252.18334961 C-103.11094565 256.44988002 -115.40950533 263.74938179 -124.94848633 274.45996094 C-127.44254997 276.68044989 -129.72331116 276.82989799 -132.97900391 277.09301758 C-137.92310426 276.66297253 -141.81661031 273.98000251 -145.97070312 271.43334961 C-147.73846271 270.38997749 -149.50791021 269.34945815 -151.27929688 268.31225586 C-152.04943115 267.84505127 -152.81956543 267.37784668 -153.61303711 266.89648438 C-155.46440304 265.71380257 -155.46440304 265.71380257 -157.53320312 265.87084961 C-158.92841869 268.11038017 -160.29883096 270.35971571 -161.65820312 272.62084961 C-162.05652344 273.25506836 -162.45484375 273.88928711 -162.86523438 274.54272461 C-164.15154532 276.62903691 -164.15154532 276.62903691 -165.53320312 279.87084961 C-164.71897675 282.45396524 -163.91814684 283.59918801 -161.70141602 285.16357422 C-160.97688232 285.52974854 -160.25234863 285.89592285 -159.50585938 286.27319336 C-158.71373047 286.68891602 -157.92160156 287.10463867 -157.10546875 287.53295898 C-155.43697315 288.38084041 -153.76770526 289.22720388 -152.09765625 290.07202148 C-144.27192598 294.18513885 -144.27192598 294.18513885 -142.53320312 298.87084961 C-142.38867188 301.26538086 -142.38867188 301.26538086 -142.72070312 303.68334961 C-142.81738281 304.47354492 -142.9140625 305.26374023 -143.01367188 306.07788086 C-143.53320312 308.87084961 -143.53320312 308.87084961 -144.56445312 312.52709961 C-145.83881842 317.52653269 -145.87416088 322.42172436 -145.84570312 327.55834961 C-145.84376953 329.01047852 -145.84376953 329.01047852 -145.84179688 330.49194336 C-145.7539148 337.06552228 -145.06445959 342.89513339 -143.18945312 349.21459961 C-142.27478975 352.91680851 -141.943866 356.22650638 -143.24755859 359.86401367 C-144.91057735 362.45991457 -146.63277822 363.39591532 -149.32226562 364.88647461 C-150.26328125 365.41499023 -151.20429688 365.94350586 -152.17382812 366.48803711 C-153.15867188 367.02686523 -154.14351562 367.56569336 -155.15820312 368.12084961 C-156.15078125 368.67514648 -157.14335937 369.22944336 -158.16601562 369.80053711 C-160.61649663 371.16715152 -163.07215387 372.5233887 -165.53320312 373.87084961 C-164.67828685 377.72237963 -163.09527977 380.6453508 -161.09570312 384.05834961 C-160.47824219 385.1244043 -159.86078125 386.19045898 -159.22460938 387.28881836 C-157.78912719 389.95252586 -157.78912719 389.95252586 -155.53320312 390.87084961 C-153.47071035 389.96572061 -153.47071035 389.96572061 -151.20898438 388.56225586 C-150.34466797 388.06274414 -149.48035156 387.56323242 -148.58984375 387.04858398 C-146.77662112 385.98129921 -144.96664735 384.9084734 -143.16015625 383.82983398 C-134.36514162 378.77156132 -134.36514162 378.77156132 -128.53320312 379.87084961 C-125.75976563 381.59350586 -125.75976563 381.59350586 -123.15820312 383.93334961 C-122.20816406 384.75706055 -121.258125 385.58077148 -120.27929688 386.42944336 C-118.91998047 387.63793945 -118.91998047 387.63793945 -117.53320312 388.87084961 C-106.92738174 398.01766911 -94.95744829 403.18265227 -81.53320312 406.87084961 C-80.54320312 407.20084961 -79.55320312 407.53084961 -78.53320312 407.87084961 C-77.45365101 411.10950596 -77.32878571 413.66240798 -77.21679688 417.07006836 C-77.17490234 418.27856445 -77.13300781 419.48706055 -77.08984375 420.73217773 C-77.05052734 421.99481445 -77.01121094 423.25745117 -76.97070312 424.55834961 C-76.92751953 425.83258789 -76.88433594 427.10682617 -76.83984375 428.41967773 C-76.73365524 431.56993688 -76.632915 434.72037881 -76.53320312 437.87084961 C-69.93320313 437.87084961 -63.33320313 437.87084961 -56.53320312 437.87084961 C-56.47261719 435.9565918 -56.41203125 434.04233398 -56.34960938 432.07006836 C-56.26520777 429.56615422 -56.18055958 427.06224838 -56.09570312 424.55834961 C-56.05638672 423.29571289 -56.01707031 422.03307617 -55.9765625 420.73217773 C-55.93466797 419.52368164 -55.89277344 418.31518555 -55.84960938 417.07006836 C-55.81295166 415.95462646 -55.77629395 414.83918457 -55.73852539 413.68994141 C-55.53320312 410.87084961 -55.53320312 410.87084961 -54.53320312 407.87084961 C-52.77539062 407.13256836 -52.77539062 407.13256836 -50.40820312 406.55834961 C-34.01413984 402.01485207 -21.0581767 394.59383177 -8.71289062 382.87475586 C-5.75473837 380.15516427 -3.72731923 379.43314012 0.32275391 379.49194336 C4.94535606 380.30887328 8.90356343 383.02628732 12.90429688 385.37084961 C13.82662109 385.89549805 14.74894531 386.42014648 15.69921875 386.96069336 C17.96305517 388.25096282 20.21810644 389.55441881 22.46679688 390.87084961 C25.4424905 388.08275406 27.62727976 385.30670782 29.71679688 381.80834961 C30.23757813 380.95112305 30.75835937 380.09389648 31.29492188 379.21069336 C32.69070216 376.8599352 32.69070216 376.8599352 32.46679688 373.87084961 C31.9424707 373.58886719 31.41814453 373.30688477 30.87792969 373.01635742 C28.4868764 371.7251252 26.10185468 370.42312044 23.71679688 369.12084961 C22.89179688 368.67741211 22.06679688 368.23397461 21.21679688 367.77709961 C11.85221354 362.64168294 11.85221354 362.64168294 9.46679688 357.87084961 C9.51757812 355.80444336 9.51757812 355.80444336 9.77929688 353.30834961 C9.85792969 352.50268555 9.9365625 351.69702148 10.01757812 350.86694336 C10.38645003 348.40672814 10.89321421 346.11493794 11.49023438 343.70678711 C12.67790801 338.47721823 12.80906218 333.40494165 12.77929688 328.05834961 C12.77800781 327.09219727 12.77671875 326.12604492 12.77539062 325.13061523 C12.6916415 318.90386795 12.08312469 313.26117854 10.12304688 307.30834961 C9.05943273 303.3577828 8.99003751 300.21785097 10.36132812 296.34350586 C14.19120981 291.84570418 19.69036518 289.60169137 24.859375 286.88842773 C25.70306641 286.42758789 26.54675781 285.96674805 27.41601562 285.49194336 C28.19291748 285.08387451 28.96981934 284.67580566 29.77026367 284.25537109 C30.33011963 283.798479 30.88997559 283.34158691 31.46679688 282.87084961 C31.46679688 278.37979691 30.11193955 275.88934349 27.96679688 272.12084961 C27.46599609 271.21786133 27.46599609 271.21786133 26.95507812 270.29663086 C26.13315812 268.81717485 25.30097475 267.34342893 24.46679688 265.87084961 C20.90274773 266.8741045 17.84038038 268.1470994 14.69726562 270.07006836 C13.70436523 270.67625 13.70436523 270.67625 12.69140625 271.29467773 C11.3364769 272.13517562 9.98994491 272.9893682 8.65234375 273.85717773 C4.0205509 276.64163404 0.81855307 277.25047355 -4.54101562 276.52807617 C-7.65996269 275.49912942 -9.27693584 273.42902546 -11.42382812 271.03100586 C-21.6022587 260.60753899 -35.14819096 254.45691271 -48.84570312 250.12084961 C-53.64671706 248.49338726 -53.64671706 248.49338726 -55.53320312 245.87084961 C-55.96557617 243.05175781 -55.96557617 243.05175781 -56.04492188 239.67163086 C-56.08037109 238.46313477 -56.11582031 237.25463867 -56.15234375 236.00952148 C-56.17490234 234.74688477 -56.19746094 233.48424805 -56.22070312 232.18334961 C-56.25486328 230.90911133 -56.28902344 229.63487305 -56.32421875 228.32202148 C-56.40680507 225.17194318 -56.47167704 222.02140962 -56.53320312 218.87084961 C-63.13320313 218.87084961 -69.73320312 218.87084961 -76.53320312 218.87084961 Z " fill="#12b8c8" transform="translate(322.533203125,27.129150390625)"/>
<path d="M0 0 C8.99146005 7.05759836 14.63920062 17.57692272 17.07421875 28.6328125 C18.36631142 43.10097927 17.63201227 56.53221379 8.69921875 68.5703125 C7.51495904 69.94558184 6.30732478 71.30116452 5.07421875 72.6328125 C4.52894531 73.25671875 3.98367188 73.880625 3.421875 74.5234375 C-5.19895284 83.85421587 -16.94274299 89.020997 -29.5390625 89.79296875 C-43.43703856 90.20756466 -57.08010193 86.36334956 -67.42529297 76.74023438 C-72.36933959 71.85830311 -76.14472279 66.98326095 -78.92578125 60.6328125 C-79.31507813 59.88515625 -79.704375 59.1375 -80.10546875 58.3671875 C-84.97494262 47.68792757 -84.69627598 32.99663767 -81.30078125 21.8828125 C-79.19115198 16.64973918 -76.33633376 12.1086032 -72.92578125 7.6328125 C-72.18328125 6.6015625 -71.44078125 5.5703125 -70.67578125 4.5078125 C-50.94258465 -16.12234759 -22.25833609 -15.80206416 0 0 Z M-47.92578125 13.6328125 C-48.97765625 14.1896875 -50.02953125 14.7465625 -51.11328125 15.3203125 C-57.07056731 20.21852549 -61.45927805 27.3360725 -62.296875 35.05078125 C-62.47998455 45.44494125 -60.80325228 52.69119262 -53.61328125 60.5078125 C-47.12636093 66.50008748 -39.89981614 68.98430737 -31.10546875 68.8515625 C-21.58752448 67.89635662 -14.43764512 62.91157666 -8.47265625 55.6796875 C-2.9151321 48.32579191 -2.91879348 40.63923584 -3.92578125 31.6328125 C-6.78407585 22.5403774 -12.97050704 16.54214839 -20.92578125 11.6328125 C-29.75431741 7.32120181 -39.69402828 8.91721748 -47.92578125 13.6328125 Z " fill="#12b8c8" transform="translate(288.92578125,316.3671875)"/>
<path d="M0 0 C2.8100346 1.79363911 4.50940468 3.01880935 6 6 C6.42071592 9.05920574 6.48514117 11.9467746 6 15 C3.81840855 17.75569447 2.12822506 19.43588747 -1 21 C-6.26883876 21.59873168 -8.8846468 20.25400021 -13 17 C-14.72869779 13.54260443 -14.48966895 9.78024432 -14 6 C-10.38599231 0.2175877 -6.68966949 -0.96115941 0 0 Z " fill="#12b8c8" transform="translate(272,28)"/>
</svg>
