<?xml version="1.0" encoding="UTF-8"?>
<svg version="1.1" xmlns="http://www.w3.org/2000/svg" width="512" height="512">
<path d="M0 0 C1.36009922 -0.00186971 2.7201979 -0.00417106 4.08029574 -0.00686532 C7.80769969 -0.01296988 11.53508116 -0.01285131 15.26248896 -0.01167095 C19.28645651 -0.0114666 23.3104169 -0.01698892 27.3343811 -0.02172852 C35.21422209 -0.03002817 43.0940556 -0.03278304 50.97390059 -0.03334089 C57.38001855 -0.03381636 63.78613403 -0.03587265 70.19225121 -0.03904152 C88.36162316 -0.04784609 106.53098921 -0.05246118 124.70036332 -0.05171105 C126.16904854 -0.05165111 126.16904854 -0.05165111 127.66740417 -0.05158997 C129.13788606 -0.05152864 129.13788606 -0.05152864 130.63807466 -0.05146609 C146.5256062 -0.05105963 162.41311403 -0.06062951 178.30063871 -0.07472833 C194.62054939 -0.0890964 210.94044851 -0.09599828 227.26036566 -0.09513456 C236.42006569 -0.09480274 245.57974087 -0.09754295 254.7394352 -0.10831261 C262.53798222 -0.11742325 270.33649313 -0.1195882 278.13504318 -0.11280318 C282.11195426 -0.10954088 286.08879606 -0.10947083 290.06570053 -0.11815643 C293.71070319 -0.12603512 297.35558179 -0.12457609 301.00058147 -0.1158723 C302.93443376 -0.11361804 304.86828994 -0.12115519 306.80212718 -0.12911195 C318.1202811 -0.08443832 328.68804821 0.87366046 337.45133972 8.70011902 C343.80848855 15.56711437 346.30319651 23.19334587 346.24674988 32.4103241 C346.25697174 33.28969131 346.2671936 34.16905853 346.27772522 35.07507324 C346.30531605 37.95558096 346.30361913 40.83512061 346.29899597 43.71574402 C346.30678176 45.7367996 346.31545353 47.75785195 346.32496643 49.77890015 C346.33984813 54.00608446 346.33934032 58.23293458 346.32878113 62.46012878 C346.31720524 67.85012566 346.35103846 73.23874494 346.39747047 78.62851429 C346.42708356 82.8007188 346.42866989 86.97259692 346.42245102 91.14488792 C346.4234708 93.13062451 346.43382044 95.11638099 346.45407486 97.10201454 C346.563153 109.2912417 346.45316482 119.4797847 337.95491028 129.10791016 C330.85749107 136.00563038 323.53696743 137.13371277 313.69743347 137.13371277 C313.69743347 146.04371277 313.69743347 154.95371277 313.69743347 164.13371277 C317.98743347 164.79371277 322.27743347 165.45371277 326.69743347 166.13371277 C335.86979842 170.19741876 340.9227114 175.51647915 344.86893082 184.68292999 C346.20781345 188.64346106 346.24012334 192.37334296 346.18327332 196.52140808 C346.18707001 197.41201935 346.1908667 198.30263062 346.19477844 199.2202301 C346.20212756 202.1344692 346.18088767 205.04768888 346.15837097 207.96183777 C346.15598386 209.99965803 346.15508179 212.03748053 346.15559387 214.07530212 C346.15247593 218.33189301 346.13598339 222.58814467 346.10905457 226.84465027 C346.07498976 232.29767034 346.06742907 237.75031995 346.06894493 243.20343399 C346.06840105 247.40533476 346.05743242 251.60715474 346.04294205 255.80902863 C346.03658508 257.82005452 346.03263773 259.83108954 346.03115463 261.84212494 C346.02681485 264.64944053 346.00930165 267.45636433 345.98796082 270.26359558 C345.98886719 271.09174774 345.98977356 271.9198999 345.9907074 272.77314758 C345.94365444 277.00941403 345.64866724 280.26714895 343.69743347 284.13371277 C344.72481628 284.63000183 345.7521991 285.12629089 346.81071472 285.63761902 C370.44313389 297.16925572 387.8400205 311.77710987 398.69743347 336.13371277 C399.40837097 339.06730652 399.40837097 339.06730652 399.69743347 341.13371277 C400.66680847 341.08730652 401.63618347 341.04090027 402.63493347 340.99308777 C421.37292212 340.3748592 436.66563138 345.3572983 451.12321472 357.64933777 C461.95864161 368.10659346 469.43026741 382.6310131 470.13102722 397.78215027 C470.15435227 399.69086236 470.15525301 401.59996631 470.13493347 403.50871277 C470.12357361 405.0164325 470.12357361 405.0164325 470.11198425 406.55461121 C469.93858513 414.39427686 468.94289691 420.92044136 465.69743347 428.13371277 C465.29653503 429.05797058 464.8956366 429.98222839 464.48258972 430.93449402 C456.98089594 446.30753026 443.45321309 457.07379753 427.69743347 463.13371277 C419.02477399 466.05654276 409.72332504 466.28555501 400.6479187 466.26742554 C399.79508437 466.26969109 398.94225003 466.27195665 398.06357223 466.27429086 C395.23667779 466.28056628 392.4098321 466.27980569 389.58293152 466.27897644 C387.5434615 466.28197194 385.50399204 466.28537537 383.46452332 466.28915405 C377.94582053 466.29795782 372.42713327 466.30033062 366.90842414 466.30096984 C363.45522193 466.30168233 360.00202363 466.3038204 356.5488224 466.30646706 C344.48678463 466.31570806 332.42475787 466.31980345 320.36271667 466.3190155 C309.14287519 466.31841485 297.92308181 466.32896745 286.70325249 466.34475917 C277.0494221 466.35785959 267.39560739 466.36319836 257.74176818 466.36256009 C251.98523471 466.36230587 246.22874403 466.36511534 240.47221947 466.37573814 C235.05571995 466.38546146 229.63930377 466.38546939 224.22280121 466.37822151 C222.24319397 466.37718097 220.26358142 466.37950681 218.28398323 466.38558197 C190.88272381 466.46417913 190.88272381 466.46417913 180.25993347 460.82121277 C179.14747253 460.24757996 178.0350116 459.67394714 176.88883972 459.08293152 C165.89906806 452.37069644 159.70755562 442.44738347 155.38493347 430.50871277 C152.53401182 416.80768152 154.82111231 403.24463052 161.94743347 391.25871277 C165.52985331 385.9663258 169.90195731 381.03145085 175.69743347 378.13371277 C176.07222571 376.02178824 176.34572521 373.89162107 176.57243347 371.75871277 C178.38767911 358.09587153 183.56434021 346.6285884 194.39665222 337.73136902 C203.30835848 331.5431044 212.56989106 327.59251976 223.44572449 328.51896667 C227.25102738 328.81041618 230.95666328 328.99602088 234.69743347 328.13371277 C237.47863031 325.71822525 238.62547652 323.54301411 240.19352722 320.22746277 C243.63339862 313.15115588 250.20020549 307.63094075 255.69743347 302.13371277 C174.51743347 301.80371277 93.33743347 301.47371277 9.69743347 301.13371277 C9.69743347 310.04371277 9.69743347 318.95371277 9.69743347 328.13371277 C15.41325745 328.11014709 15.41325745 328.11014709 21.24455261 328.08610535 C33.83333822 328.03640033 46.42212233 328.00310722 59.01097965 327.97827625 C66.64373852 327.96282018 74.27640429 327.94175485 81.90910339 327.90739441 C88.56327914 327.87745336 95.21738746 327.85812861 101.8716287 327.85144728 C105.39365104 327.84754296 108.91548048 327.8383938 112.43744087 327.8165226 C116.37318103 327.79228104 120.30873402 327.7917458 124.24455261 327.7931366 C125.9881179 327.77695786 125.9881179 327.77695786 127.76690674 327.76045227 C133.83006382 327.78364273 138.40963513 328.03868371 143.69743347 331.13371277 C145.79806102 334.2846541 146.04056633 335.35614937 146.13493347 339.00871277 C146.17489441 339.85175964 146.21485535 340.69480652 146.25602722 341.56340027 C145.44218683 345.30820432 143.61294895 346.71419848 140.69743347 349.13371277 C137.69387913 349.75618935 137.69387913 349.75618935 134.2901001 349.75276184 C132.34912697 349.76918983 132.34912697 349.76918983 130.36894226 349.78594971 C128.94205831 349.772914 127.51517844 349.75942532 126.08830261 349.74552917 C124.58007143 349.74907149 123.07184409 349.75485037 121.56362915 349.76269531 C118.31957313 349.77486623 115.07604315 349.77141702 111.83200264 349.75586319 C106.70084953 349.73153778 101.57015664 349.74304495 96.43899536 349.75953674 C87.39769588 349.78402737 78.35660583 349.77823261 69.31529236 349.76573181 C55.70673441 349.7471486 42.09821647 349.75201073 28.48968786 349.78576601 C23.3907092 349.79727212 18.29206574 349.79285171 13.19310582 349.77574563 C10.01884902 349.76783952 6.84468948 349.77210446 3.67043495 349.77945518 C2.20067953 349.78026439 0.7309107 349.77592845 -0.73881149 349.76601219 C-2.74858294 349.75311048 -4.75845351 349.76039785 -6.76824951 349.76863098 C-7.89187362 349.76674585 -9.01549772 349.76486073 -10.17317104 349.76291847 C-13.80174955 350.19285972 -16.20005427 351.22467659 -19.30256653 353.13371277 C-21.52402318 357.57365755 -21.55542221 361.77424589 -21.56135559 366.68034363 C-21.56486023 367.4112471 -21.56836487 368.14215057 -21.57197571 368.89520264 C-21.58073341 371.296419 -21.57496449 373.69733747 -21.56819153 376.09855652 C-21.56954004 377.77715104 -21.57148212 379.45574519 -21.57398987 381.13433838 C-21.57693318 384.64710724 -21.57266957 388.15977415 -21.56330872 391.67253113 C-21.55192346 396.16248933 -21.55847278 400.65220815 -21.57045364 405.14215755 C-21.5777012 408.60724674 -21.57537089 412.07227975 -21.57019806 415.53737068 C-21.56886911 417.19228202 -21.57048269 418.84719854 -21.57515717 420.50210381 C-21.58026918 422.82076789 -21.57244672 425.13905143 -21.56135559 427.45768738 C-21.5597644 428.7741777 -21.55817322 430.09066803 -21.55653381 431.447052 C-21.28210176 435.43078515 -20.71741148 438.41005922 -19.30256653 442.13371277 C-16.02870285 443.22500066 -13.6271338 443.26385238 -10.18043518 443.27174377 C-8.89906174 443.27719711 -7.61768829 443.28265045 -6.29748535 443.28826904 C-4.87437444 443.28938883 -3.45126347 443.29043935 -2.02815247 443.29142761 C-0.53169607 443.29609612 0.9647589 443.30123975 2.46121216 443.30682373 C5.68602109 443.318105 8.91082077 443.3265391 12.13564301 443.33294296 C17.23739055 443.34362412 22.3390718 443.36386984 27.44078064 443.38606262 C41.94898945 443.44798117 56.45719459 443.50198036 70.96549988 443.53507996 C78.97665833 443.55343707 86.98770593 443.58238725 94.99878287 443.62308466 C99.23723099 443.64413741 103.47553951 443.65960947 107.71404266 443.66189194 C111.70320115 443.66404263 115.69206906 443.67995478 119.68113899 443.70628166 C121.14238697 443.71346025 122.60367022 443.71558261 124.06493187 443.71217918 C138.09157231 443.68473662 138.09157231 443.68473662 143.69743347 447.13371277 C145.79806102 450.2846541 146.04056633 451.35614937 146.13493347 455.00871277 C146.17489441 455.85175964 146.21485535 456.69480652 146.25602722 457.56340027 C145.44068128 461.31513196 143.6246991 462.71489437 140.69743347 465.13371277 C137.60131741 465.76571178 137.60131741 465.76571178 134.06472778 465.77536011 C133.41147052 465.78386563 132.75821325 465.79237115 132.08516032 465.80113441 C129.90319916 465.82336212 127.72295048 465.8099819 125.54093933 465.79655457 C123.97347292 465.80497028 122.40601663 465.81549652 120.83857727 465.82797241 C116.58389174 465.85503659 112.32979232 465.85031331 108.0750587 465.83827186 C104.51691003 465.83113582 100.95886945 465.83964398 97.40072924 465.84817725 C88.99798543 465.86813795 80.59552598 465.86255594 72.1927948 465.84049988 C63.54542533 465.81818612 54.89880435 465.83567154 46.25150579 465.87354916 C38.81342942 465.90487681 31.3755836 465.91266939 23.93744951 465.90159541 C19.5014431 465.89513193 15.06586736 465.8969952 10.62991142 465.92091942 C6.4508681 465.94230863 2.27286995 465.93401773 -1.90610886 465.90382576 C-3.43138216 465.89754292 -4.95673814 465.90125034 -6.48195076 465.91623688 C-17.01087404 466.0112221 -25.92455592 464.5268579 -34.22224522 457.51046276 C-40.51029015 450.7889943 -42.90715919 442.88297306 -42.85188293 433.85710144 C-42.8621048 432.97773422 -42.87232666 432.098367 -42.88285828 431.19235229 C-42.91044911 428.31184457 -42.90875219 425.43230493 -42.90412903 422.55168152 C-42.91191482 420.53062593 -42.92058658 418.50957359 -42.93009949 416.48852539 C-42.94498119 412.26134108 -42.94447338 408.03449096 -42.93391418 403.80729675 C-42.9223383 398.41729988 -42.95617152 393.0286806 -43.00260353 387.63891125 C-43.03221661 383.46670674 -43.03380294 379.29482862 -43.02758408 375.12253761 C-43.02860386 373.13680102 -43.03895349 371.15104455 -43.05920792 369.165411 C-43.1682816 356.97668168 -43.05870147 346.78715151 -34.56004333 337.15975952 C-27.66130026 330.45405251 -19.73592485 329.0770486 -10.30256653 328.13371277 C-10.30256653 319.22371277 -10.30256653 310.31371277 -10.30256653 301.13371277 C-13.60256653 301.13371277 -16.90256653 301.13371277 -20.30256653 301.13371277 C-28.77149701 298.47009754 -35.13929701 293.89384954 -39.40239525 286.13098621 C-42.05397865 280.55859563 -42.88945262 275.99172706 -42.85188293 269.85710144 C-42.8621048 268.97773422 -42.87232666 268.098367 -42.88285828 267.19235229 C-42.91044911 264.31184457 -42.90875219 261.43230493 -42.90412903 258.55168152 C-42.91191482 256.53062593 -42.92058658 254.50957359 -42.93009949 252.48852539 C-42.94498119 248.26134108 -42.94447338 244.03449096 -42.93391418 239.80729675 C-42.9223383 234.41729988 -42.95617152 229.0286806 -43.00260353 223.63891125 C-43.03221661 219.46670674 -43.03380294 215.29482862 -43.02758408 211.12253761 C-43.02860386 209.13680102 -43.03895349 207.15104455 -43.05920792 205.165411 C-43.1682816 192.97668168 -43.05870147 182.78715151 -34.56004333 173.15975952 C-27.66130026 166.45405251 -19.73592485 165.0770486 -10.30256653 164.13371277 C-10.30256653 155.22371277 -10.30256653 146.31371277 -10.30256653 137.13371277 C-13.60256653 137.13371277 -16.90256653 137.13371277 -20.30256653 137.13371277 C-28.77149701 134.47009754 -35.13929701 129.89384954 -39.40239525 122.13098621 C-42.05397865 116.55859563 -42.88945262 111.99172706 -42.85188293 105.85710144 C-42.8621048 104.97773422 -42.87232666 104.098367 -42.88285828 103.19235229 C-42.91044911 100.31184457 -42.90875219 97.43230493 -42.90412903 94.55168152 C-42.91191482 92.53062593 -42.92058658 90.50957359 -42.93009949 88.48852539 C-42.94498119 84.26134108 -42.94447338 80.03449096 -42.93391418 75.80729675 C-42.9223383 70.41729988 -42.95617152 65.0286806 -43.00260353 59.63891125 C-43.03221661 55.46670674 -43.03380294 51.29482862 -43.02758408 47.12253761 C-43.02860386 45.13680102 -43.03895349 43.15104455 -43.05920792 41.165411 C-43.16827269 28.97767694 -43.05976351 18.78513853 -34.55931091 9.15975952 C-24.93420949 -0.20038534 -12.54806778 -0.01546144 0 0 Z M-19.30256653 24.13371277 C-22.14119559 29.05522012 -22.6805371 33.17351788 -22.69075012 38.79386902 C-22.69600708 39.52491852 -22.70126404 40.25596802 -22.7066803 41.00917053 C-22.71979157 43.40507418 -22.71117425 45.80030337 -22.70100403 48.19621277 C-22.70302732 49.87337877 -22.70594089 51.55054391 -22.70970154 53.22770691 C-22.71411286 56.73454707 -22.70773241 60.24115725 -22.69367981 63.74797058 C-22.67658854 68.23015655 -22.68643614 72.7118035 -22.7043972 77.19396973 C-22.71526736 80.65479044 -22.71177392 84.11548456 -22.70401382 87.5763092 C-22.70202074 89.22842982 -22.70443958 90.88056214 -22.71145248 92.53266907 C-22.71912054 94.84660538 -22.70738912 97.15968367 -22.69075012 99.47355652 C-22.68836334 100.78703064 -22.68597656 102.10050476 -22.68351746 103.45378113 C-22.24000006 107.73809591 -21.30875449 110.33873737 -19.30256653 114.13371277 C-15.89325128 116.4065896 -14.70261947 116.38609541 -10.69995308 116.39377499 C-8.93998723 116.40437337 -8.93998723 116.40437337 -7.14446652 116.41518587 C-5.84925701 116.41277078 -4.55404751 116.4103557 -3.21958923 116.40786743 C-1.83462766 116.41231779 -0.44966863 116.41763116 0.93528664 116.42373616 C4.74980386 116.43795083 8.56423974 116.4395788 12.37877965 116.43913925 C16.48930764 116.44078439 20.59980181 116.45384517 24.71031189 116.46533203 C33.70191824 116.48820391 42.69350101 116.49610486 51.6851325 116.50115848 C57.29693422 116.50441269 62.90872906 116.51093345 68.52052689 116.51815987 C84.0508979 116.53772795 99.58126251 116.55413117 115.11164665 116.5570364 C116.10590086 116.55722397 117.10015507 116.55741154 118.12453819 116.55760479 C120.14022454 116.55797105 122.15591088 116.55833475 124.17159723 116.5586959 C125.67252826 116.55897012 125.67252826 116.55897012 127.20378113 116.55924988 C128.20561963 116.55943043 129.20745814 116.55961098 130.23965539 116.559797 C146.48006078 116.5633401 162.72033368 116.59037003 178.96069311 116.62774777 C195.62511222 116.66579535 212.28946553 116.68519361 228.95392907 116.68549591 C238.31423522 116.68608125 247.67438333 116.69462256 257.0346489 116.72349358 C265.00366738 116.74795997 272.97247017 116.75532251 280.94151603 116.74024605 C285.00904938 116.73305781 289.07615639 116.73401621 293.14364243 116.75665665 C296.86585655 116.77717717 300.58731472 116.77471239 304.30952002 116.7537818 C306.29698908 116.74860888 308.28447478 116.76811944 310.27184665 116.78844351 C317.20813488 116.97549649 317.20813488 116.97549649 322.98084068 113.71123123 C326.01291491 109.15847571 325.84982762 105.17117296 325.85856628 99.81413269 C325.86353119 99.08352127 325.86849609 98.35290985 325.87361145 97.60015869 C325.88819093 95.18815664 325.89502815 92.77622036 325.90055847 90.36418152 C325.90631356 88.68272908 325.91207125 87.00127664 325.91783142 85.31982422 C325.92832953 81.79513748 325.93417993 78.27047348 325.93766785 74.74577332 C325.94314894 70.24001379 325.96717365 65.734557 325.9956398 61.22889233 C326.01430831 57.75523006 326.01947403 54.28164009 326.02100372 50.8079319 C326.02402146 49.14742186 326.0320202 47.48691282 326.0451889 45.82645226 C326.06233743 43.4978959 326.06034803 41.17007117 326.05387878 38.84147644 C326.06309357 38.16227142 326.07230835 37.48306641 326.08180237 36.78327942 C326.03990301 31.94329733 325.12074124 28.32676169 322.69743347 24.13371277 C316.95054635 19.92671279 310.29077432 20.71670167 303.48820496 20.75276184 C302.12611485 20.74930377 300.76402754 20.74453819 299.40194607 20.73858011 C295.66449015 20.72606091 291.92726415 20.7322446 288.18980742 20.74153876 C284.15702478 20.74832517 280.12428174 20.73785005 276.09150696 20.729599 C268.1934605 20.71625511 260.29549955 20.71914232 252.39744973 20.72783692 C245.97887231 20.73461047 239.56031886 20.73553161 233.14173889 20.73226547 C232.22841496 20.73180577 231.31509103 20.73134607 230.37409061 20.73087244 C228.5187242 20.72991327 226.66335779 20.72894063 224.80799139 20.72795467 C207.40784653 20.71939885 190.00774909 20.72923792 172.60761201 20.74535577 C157.67561469 20.75875912 142.74368734 20.75643109 127.81169128 20.74259949 C110.47405501 20.72654706 93.1364603 20.72022285 75.79881763 20.72943628 C73.95025445 20.73039193 72.10169125 20.73133504 70.25312805 20.73226547 C68.88881477 20.73295971 68.88881477 20.73295971 67.4969396 20.73366798 C61.08564185 20.73625888 54.67437045 20.73188471 48.26307678 20.72482681 C40.4504614 20.71641537 32.63793646 20.71868446 24.82533145 20.73466904 C20.83877125 20.74255656 16.85236187 20.74563521 12.86580276 20.73572159 C9.21658856 20.72678407 5.567665 20.73169178 1.91847718 20.74765424 C-0.02732331 20.75259424 -1.97314396 20.74279706 -3.91892338 20.73248255 C-12.07232202 20.68402704 -12.07232202 20.68402704 -19.30256653 24.13371277 Z M9.69743347 137.13371277 C9.69743347 146.04371277 9.69743347 154.95371277 9.69743347 164.13371277 C103.41743347 164.13371277 197.13743347 164.13371277 293.69743347 164.13371277 C293.69743347 155.22371277 293.69743347 146.31371277 293.69743347 137.13371277 C199.97743347 137.13371277 106.25743347 137.13371277 9.69743347 137.13371277 Z M-19.30256653 188.13371277 C-22.14119559 193.05522012 -22.6805371 197.17351788 -22.69075012 202.79386902 C-22.69600708 203.52491852 -22.70126404 204.25596802 -22.7066803 205.00917053 C-22.71979157 207.40507418 -22.71117425 209.80030337 -22.70100403 212.19621277 C-22.70302732 213.87337877 -22.70594089 215.55054391 -22.70970154 217.22770691 C-22.71411286 220.73454707 -22.70773241 224.24115725 -22.69367981 227.74797058 C-22.67658854 232.23015655 -22.68643614 236.7118035 -22.7043972 241.19396973 C-22.71526736 244.65479044 -22.71177392 248.11548456 -22.70401382 251.5763092 C-22.70202074 253.22842982 -22.70443958 254.88056214 -22.71145248 256.53266907 C-22.71912054 258.84660538 -22.70738912 261.15968367 -22.69075012 263.47355652 C-22.68836334 264.78703064 -22.68597656 266.10050476 -22.68351746 267.45378113 C-22.24000006 271.73809591 -21.30875449 274.33873737 -19.30256653 278.13371277 C-15.89325128 280.4065896 -14.70261947 280.38609541 -10.69995308 280.39377499 C-8.93998723 280.40437337 -8.93998723 280.40437337 -7.14446652 280.41518587 C-5.84925701 280.41277078 -4.55404751 280.4103557 -3.21958923 280.40786743 C-1.83462766 280.41231779 -0.44966863 280.41763116 0.93528664 280.42373616 C4.74980386 280.43795083 8.56423974 280.4395788 12.37877965 280.43913925 C16.48930764 280.44078439 20.59980181 280.45384517 24.71031189 280.46533203 C33.70191824 280.48820391 42.69350101 280.49610486 51.6851325 280.50115848 C57.29693422 280.50441269 62.90872906 280.51093345 68.52052689 280.51815987 C84.0508979 280.53772795 99.58126251 280.55413117 115.11164665 280.5570364 C116.10590086 280.55722397 117.10015507 280.55741154 118.12453819 280.55760479 C120.14022454 280.55797105 122.15591088 280.55833475 124.17159723 280.5586959 C125.67252826 280.55897012 125.67252826 280.55897012 127.20378113 280.55924988 C128.20561963 280.55943043 129.20745814 280.55961098 130.23965539 280.559797 C146.48006078 280.5633401 162.72033368 280.59037003 178.96069311 280.62774777 C195.62511222 280.66579535 212.28946553 280.68519361 228.95392907 280.68549591 C238.31423522 280.68608125 247.67438333 280.69462256 257.0346489 280.72349358 C265.00366738 280.74795997 272.97247017 280.75532251 280.94151603 280.74024605 C285.00904938 280.73305781 289.07615639 280.73401621 293.14364243 280.75665665 C296.86585655 280.77717717 300.58731472 280.77471239 304.30952002 280.7537818 C306.29698908 280.74860888 308.28447478 280.76811944 310.27184665 280.78844351 C317.20813488 280.97549649 317.20813488 280.97549649 322.98084068 277.71123123 C326.01291491 273.15847571 325.84982762 269.17117296 325.85856628 263.81413269 C325.86353119 263.08352127 325.86849609 262.35290985 325.87361145 261.60015869 C325.88819093 259.18815664 325.89502815 256.77622036 325.90055847 254.36418152 C325.90631356 252.68272908 325.91207125 251.00127664 325.91783142 249.31982422 C325.92832953 245.79513748 325.93417993 242.27047348 325.93766785 238.74577332 C325.94314894 234.24001379 325.96717365 229.734557 325.9956398 225.22889233 C326.01430831 221.75523006 326.01947403 218.28164009 326.02100372 214.8079319 C326.02402146 213.14742186 326.0320202 211.48691282 326.0451889 209.82645226 C326.06233743 207.4978959 326.06034803 205.17007117 326.05387878 202.84147644 C326.06309357 202.16227142 326.07230835 201.48306641 326.08180237 200.78327942 C326.03990301 195.94329733 325.12074124 192.32676169 322.69743347 188.13371277 C316.95054635 183.92671279 310.29077432 184.71670167 303.48820496 184.75276184 C302.12611485 184.74930377 300.76402754 184.74453819 299.40194607 184.73858011 C295.66449015 184.72606091 291.92726415 184.7322446 288.18980742 184.74153876 C284.15702478 184.74832517 280.12428174 184.73785005 276.09150696 184.729599 C268.1934605 184.71625511 260.29549955 184.71914232 252.39744973 184.72783692 C245.97887231 184.73461047 239.56031886 184.73553161 233.14173889 184.73226547 C232.22841496 184.73180577 231.31509103 184.73134607 230.37409061 184.73087244 C228.5187242 184.72991327 226.66335779 184.72894063 224.80799139 184.72795467 C207.40784653 184.71939885 190.00774909 184.72923792 172.60761201 184.74535577 C157.67561469 184.75875912 142.74368734 184.75643109 127.81169128 184.74259949 C110.47405501 184.72654706 93.1364603 184.72022285 75.79881763 184.72943628 C73.95025445 184.73039193 72.10169125 184.73133504 70.25312805 184.73226547 C68.88881477 184.73295971 68.88881477 184.73295971 67.4969396 184.73366798 C61.08564185 184.73625888 54.67437045 184.73188471 48.26307678 184.72482681 C40.4504614 184.71641537 32.63793646 184.71868446 24.82533145 184.73466904 C20.83877125 184.74255656 16.85236187 184.74563521 12.86580276 184.73572159 C9.21658856 184.72678407 5.567665 184.73169178 1.91847718 184.74765424 C-0.02732331 184.75259424 -1.97314396 184.74279706 -3.91892338 184.73248255 C-12.07232202 184.68402704 -12.07232202 184.68402704 -19.30256653 188.13371277 Z M265.25993347 322.00871277 C258.31548759 329.36232403 253.63001821 337.96514096 249.05680847 346.91886902 C247.69743347 349.13371277 247.69743347 349.13371277 244.69743347 351.13371277 C242.61149597 351.39933777 242.61149597 351.39933777 240.32243347 351.38371277 C239.19708191 351.39144714 239.19708191 351.39144714 238.04899597 351.39933777 C235.69743347 351.13371277 235.69743347 351.13371277 233.26774597 350.14152527 C227.12757892 347.73398256 219.84665286 348.29920906 213.82243347 350.82121277 C205.87539679 354.95252426 201.08588272 360.50722247 198.05680847 368.91105652 C197.39628302 372.99626283 197.701068 377.16439514 197.8243866 381.28996277 C197.93448012 388.23233105 197.93448012 388.23233105 195.69743347 391.13371277 C193.56071472 392.55558777 193.56071472 392.55558777 191.00993347 393.88371277 C184.08395827 397.86714937 178.56441273 403.14691152 176.13883972 410.94230652 C174.60097379 418.57719842 175.17835588 424.93296733 179.00602722 431.77043152 C183.67108858 438.28858885 189.40469589 443.03777764 197.32443237 444.67766953 C201.31527817 445.21724784 205.24104157 445.27858324 209.25920105 445.27415466 C210.10791212 445.27712579 210.95662319 445.28009691 211.83105278 445.28315806 C214.6680335 445.29181256 217.50497186 445.29335058 220.34196472 445.29484558 C222.37922251 445.29947617 224.41647943 445.30450115 226.45373535 445.30989075 C231.98513507 445.3229962 237.51652267 445.32945645 243.04793549 445.33390141 C246.50782432 445.33683598 249.96770987 445.34094158 253.42759705 445.34540558 C264.2643698 445.35907752 275.10113502 445.36874486 285.9379158 445.37260747 C298.42511528 445.37708334 310.91220502 445.39461071 323.39937115 445.42360806 C333.06502599 445.44526985 342.73065008 445.4553142 352.39632893 445.45664859 C358.16248103 445.45769367 363.92852994 445.46353789 369.69465637 445.4814682 C375.12508694 445.49802602 380.55533762 445.50006712 385.98578453 445.49132919 C387.96980969 445.49056285 389.95384482 445.49484783 391.93784523 445.50478745 C408.78519662 445.58418371 423.91229121 445.08780811 436.97868347 433.02824402 C446.52379014 422.96670434 449.21290306 412.9647292 448.97087097 399.46965027 C448.51450827 389.03656642 443.35599405 379.40672012 435.74821472 372.31730652 C425.49393836 364.27908203 414.68217996 361.07407672 401.69743347 362.13371277 C391.09740574 363.99969398 381.47441509 369.78879196 374.69743347 378.13371277 C373.7969522 379.5553895 372.92119667 380.99306711 372.07243347 382.44621277 C370.56619187 384.96965648 369.82556505 386.04941568 367.32243347 387.69621277 C362.76776863 388.45532358 359.17735245 388.14628891 355.32243347 385.50871277 C353.03968791 382.17239233 352.63078906 380.19902175 352.69743347 376.13371277 C357.06832493 363.82198708 368.64619557 354.35003409 379.69743347 348.13371277 C375.58883279 332.7264602 364.59209556 320.33854799 351.38493347 311.75871277 C322.7598514 295.30519092 289.25492541 299.17535433 265.25993347 322.00871277 Z " fill="#12b8c8" transform="translate(42.30256652832031,22.866287231445313)"/>
<path d="M0 0 C6.66144774 7.15981042 8.92952297 14.64736984 8.86499023 24.33520508 C8.462727 32.75110552 5.12076267 40.12961879 -1.05859375 45.93359375 C-2.86328125 47.25390625 -2.86328125 47.25390625 -4.74609375 48.43359375 C-5.36742187 48.84351563 -5.98875 49.2534375 -6.62890625 49.67578125 C-13.60851613 53.52385514 -22.0065442 53.68413899 -29.74609375 52.43359375 C-37.32233638 50.03261204 -43.49369667 46.22053214 -47.74609375 39.43359375 C-48.15601562 38.81226563 -48.5659375 38.1909375 -48.98828125 37.55078125 C-52.83635514 30.57117137 -52.99663899 22.1731433 -51.74609375 14.43359375 C-48.99609541 5.75603714 -44.49585288 -0.41067699 -36.546875 -4.7734375 C-24.28708256 -10.66396596 -10.28203802 -9.2239312 0 0 Z M-28.74609375 15.43359375 C-31.20829147 19.12689033 -31.53808058 22.14852815 -30.74609375 26.43359375 C-28.75687489 29.41742205 -27.36106807 31.03636216 -23.80859375 31.91015625 C-19.88545883 32.19250308 -18.07497004 31.65284461 -14.74609375 29.43359375 C-12.52457172 26.10131071 -11.99808985 24.29270983 -12.2578125 20.3671875 C-13.11469721 16.97392407 -14.99719114 15.44945567 -17.74609375 13.43359375 C-22.20746549 11.60328739 -24.77585197 12.96322109 -28.74609375 15.43359375 Z " fill="#12b8c8" transform="translate(175.74609375,397.56640625)"/>
<path d="M0 0 C6.66144774 7.15981042 8.92952297 14.64736984 8.86499023 24.33520508 C8.462727 32.75110552 5.12076267 40.12961879 -1.05859375 45.93359375 C-2.86328125 47.25390625 -2.86328125 47.25390625 -4.74609375 48.43359375 C-5.36742187 48.84351563 -5.98875 49.2534375 -6.62890625 49.67578125 C-13.60851613 53.52385514 -22.0065442 53.68413899 -29.74609375 52.43359375 C-37.32233638 50.03261204 -43.49369667 46.22053214 -47.74609375 39.43359375 C-48.15601563 38.81226563 -48.5659375 38.1909375 -48.98828125 37.55078125 C-52.83635514 30.57117137 -52.99663899 22.1731433 -51.74609375 14.43359375 C-48.99609541 5.75603714 -44.49585288 -0.41067699 -36.546875 -4.7734375 C-24.28708256 -10.66396596 -10.28203802 -9.2239312 0 0 Z M-28.74609375 15.43359375 C-31.20829147 19.12689033 -31.53808058 22.14852815 -30.74609375 26.43359375 C-28.75687489 29.41742205 -27.36106807 31.03636216 -23.80859375 31.91015625 C-19.88545883 32.19250308 -18.07497004 31.65284461 -14.74609375 29.43359375 C-12.52457172 26.10131071 -11.99808985 24.29270983 -12.2578125 20.3671875 C-13.11469721 16.97392407 -14.99719114 15.44945567 -17.74609375 13.43359375 C-22.20746549 11.60328739 -24.77585197 12.96322109 -28.74609375 15.43359375 Z " fill="#12b8c8" transform="translate(95.74609375,397.56640625)"/>
<path d="M0 0 C6.66144774 7.15981042 8.92952297 14.64736984 8.86499023 24.33520508 C8.462727 32.75110552 5.12076267 40.12961879 -1.05859375 45.93359375 C-2.86328125 47.25390625 -2.86328125 47.25390625 -4.74609375 48.43359375 C-5.36742187 48.84351563 -5.98875 49.2534375 -6.62890625 49.67578125 C-13.60851613 53.52385514 -22.0065442 53.68413899 -29.74609375 52.43359375 C-37.32233638 50.03261204 -43.49369667 46.22053214 -47.74609375 39.43359375 C-48.15601562 38.81226563 -48.5659375 38.1909375 -48.98828125 37.55078125 C-52.83635514 30.57117137 -52.99663899 22.1731433 -51.74609375 14.43359375 C-48.99609541 5.75603714 -44.49585288 -0.41067699 -36.546875 -4.7734375 C-24.28708256 -10.66396596 -10.28203802 -9.2239312 0 0 Z M-28.74609375 15.43359375 C-31.20829147 19.12689033 -31.53808058 22.14852815 -30.74609375 26.43359375 C-28.75687489 29.41742205 -27.36106807 31.03636216 -23.80859375 31.91015625 C-19.88545883 32.19250308 -18.07497004 31.65284461 -14.74609375 29.43359375 C-12.52457172 26.10131071 -11.99808985 24.29270983 -12.2578125 20.3671875 C-13.11469721 16.97392407 -14.99719114 15.44945567 -17.74609375 13.43359375 C-22.20746549 11.60328739 -24.77585197 12.96322109 -28.74609375 15.43359375 Z " fill="#12b8c8" transform="translate(175.74609375,233.56640625)"/>
<path d="M0 0 C6.66144774 7.15981042 8.92952297 14.64736984 8.86499023 24.33520508 C8.462727 32.75110552 5.12076267 40.12961879 -1.05859375 45.93359375 C-2.86328125 47.25390625 -2.86328125 47.25390625 -4.74609375 48.43359375 C-5.36742187 48.84351563 -5.98875 49.2534375 -6.62890625 49.67578125 C-13.60851613 53.52385514 -22.0065442 53.68413899 -29.74609375 52.43359375 C-37.32233638 50.03261204 -43.49369667 46.22053214 -47.74609375 39.43359375 C-48.15601563 38.81226563 -48.5659375 38.1909375 -48.98828125 37.55078125 C-52.83635514 30.57117137 -52.99663899 22.1731433 -51.74609375 14.43359375 C-48.99609541 5.75603714 -44.49585288 -0.41067699 -36.546875 -4.7734375 C-24.28708256 -10.66396596 -10.28203802 -9.2239312 0 0 Z M-28.74609375 15.43359375 C-31.20829147 19.12689033 -31.53808058 22.14852815 -30.74609375 26.43359375 C-28.75687489 29.41742205 -27.36106807 31.03636216 -23.80859375 31.91015625 C-19.88545883 32.19250308 -18.07497004 31.65284461 -14.74609375 29.43359375 C-12.52457172 26.10131071 -11.99808985 24.29270983 -12.2578125 20.3671875 C-13.11469721 16.97392407 -14.99719114 15.44945567 -17.74609375 13.43359375 C-22.20746549 11.60328739 -24.77585197 12.96322109 -28.74609375 15.43359375 Z " fill="#12b8c8" transform="translate(95.74609375,233.56640625)"/>
<path d="M0 0 C3.58598889 2.54054385 6.15992797 5.04327701 8.4921875 8.765625 C8.90210938 9.38695313 9.31203125 10.00828125 9.734375 10.6484375 C13.58244889 17.62804738 13.74273274 26.02607545 12.4921875 33.765625 C10.09120579 41.34186763 6.27912589 47.51322792 -0.5078125 51.765625 C-1.12914062 52.17554688 -1.75046875 52.58546875 -2.390625 53.0078125 C-9.37023488 56.85588639 -17.76826295 57.01617024 -25.5078125 55.765625 C-33.08405513 53.36464329 -39.25541542 49.55256339 -43.5078125 42.765625 C-43.91773437 42.14429688 -44.32765625 41.52296875 -44.75 40.8828125 C-48.59807389 33.90320262 -48.75835774 25.50517455 -47.5078125 17.765625 C-45.10683079 10.18938237 -41.29475089 4.01802208 -34.5078125 -0.234375 C-33.88648438 -0.64429687 -33.26515625 -1.05421875 -32.625 -1.4765625 C-22.455808 -7.08315125 -9.72162164 -5.63801363 0 0 Z M-26.5078125 21.765625 C-27.20628375 24.6053114 -27.20628375 26.9259386 -26.5078125 29.765625 C-24.51859364 32.7494533 -23.12278682 34.36839341 -19.5703125 35.2421875 C-15.64717758 35.52453433 -13.83668879 34.98487586 -10.5078125 32.765625 C-8.28856164 29.43674871 -7.74890317 27.62625992 -8.03125 23.703125 C-8.90504409 20.15065068 -10.5239842 18.75484386 -13.5078125 16.765625 C-19.32444453 15.33492115 -23.11596156 16.67784859 -26.5078125 21.765625 Z " fill="#12b8c8" transform="translate(171.5078125,67.234375)"/>
<path d="M0 0 C3.58598889 2.54054385 6.15992797 5.04327701 8.4921875 8.765625 C8.90210938 9.38695313 9.31203125 10.00828125 9.734375 10.6484375 C13.58244889 17.62804738 13.74273274 26.02607545 12.4921875 33.765625 C10.09120579 41.34186763 6.27912589 47.51322792 -0.5078125 51.765625 C-1.12914062 52.17554688 -1.75046875 52.58546875 -2.390625 53.0078125 C-9.37023488 56.85588639 -17.76826295 57.01617024 -25.5078125 55.765625 C-33.08405513 53.36464329 -39.25541542 49.55256339 -43.5078125 42.765625 C-43.91773438 42.14429688 -44.32765625 41.52296875 -44.75 40.8828125 C-48.59807389 33.90320262 -48.75835774 25.50517455 -47.5078125 17.765625 C-45.10683079 10.18938237 -41.29475089 4.01802208 -34.5078125 -0.234375 C-33.88648438 -0.64429687 -33.26515625 -1.05421875 -32.625 -1.4765625 C-22.455808 -7.08315125 -9.72162164 -5.63801363 0 0 Z M-26.5078125 21.765625 C-27.20628375 24.6053114 -27.20628375 26.9259386 -26.5078125 29.765625 C-24.51859364 32.7494533 -23.12278682 34.36839341 -19.5703125 35.2421875 C-15.64717758 35.52453433 -13.83668879 34.98487586 -10.5078125 32.765625 C-8.28856164 29.43674871 -7.74890317 27.62625992 -8.03125 23.703125 C-8.90504409 20.15065068 -10.5239842 18.75484386 -13.5078125 16.765625 C-19.32444453 15.33492115 -23.11596156 16.67784859 -26.5078125 21.765625 Z " fill="#12b8c8" transform="translate(91.5078125,67.234375)"/>
<path d="M0 0 C0.7696257 -0.0049649 1.5392514 -0.00992981 2.3321991 -0.01504517 C4.87406311 -0.02962976 7.41586471 -0.0364627 9.95776367 -0.04199219 C11.7288971 -0.0477468 13.50003053 -0.0535045 15.27116394 -0.05926514 C18.98416432 -0.06976467 22.69714312 -0.07561415 26.41015625 -0.07910156 C31.15804562 -0.08458329 35.90564778 -0.10860885 40.65344715 -0.13707352 C44.31240156 -0.1557363 47.97128729 -0.16090744 51.63028526 -0.16243744 C53.38010922 -0.16545641 55.12993219 -0.17345933 56.87970924 -0.18662262 C59.33278621 -0.20375913 61.78516801 -0.20178455 64.23828125 -0.1953125 C65.31319321 -0.20913467 65.31319321 -0.20913467 66.40982056 -0.22323608 C71.49351709 -0.18141488 74.89620866 0.80389497 79.31323242 3.16113281 C81.41385997 6.31207414 81.65636528 7.38356941 81.75073242 11.03613281 C81.81067383 12.30070312 81.81067383 12.30070312 81.87182617 13.59082031 C81.04193151 17.40949644 79.35367541 18.74965209 76.31323242 21.16113281 C73.26909281 21.65564625 70.78632924 21.8467027 67.74682617 21.80810547 C66.89581329 21.81686707 66.04480042 21.82562866 65.16799927 21.83465576 C62.36172129 21.85661906 59.55702574 21.84210833 56.75073242 21.82519531 C54.79687193 21.82856434 52.84301348 21.83341768 50.88916016 21.83969116 C46.7969159 21.84705832 42.70521782 21.83636195 38.61303711 21.81298828 C33.37030056 21.78450068 28.12884378 21.80090548 22.88615417 21.8308506 C18.85231909 21.84892775 14.81878689 21.84316361 10.78494263 21.83021164 C8.85205941 21.82687878 6.9191486 21.83096047 4.98629761 21.84260941 C2.28333826 21.85532504 -0.41755565 21.83593218 -3.12036133 21.80810547 C-4.31591141 21.8232872 -4.31591141 21.8232872 -5.53561401 21.83877563 C-9.59761495 21.76139261 -11.46262532 21.33962822 -14.68066406 18.77694702 C-17.44901775 15.1672136 -17.4020702 12.9432816 -17.17895508 8.54003906 C-16.41759325 4.86012354 -14.69799621 3.28268026 -11.68676758 1.16113281 C-7.90880299 -0.20362541 -3.96549552 0.00613392 0 0 Z " fill="#12b8c8" transform="translate(262.686767578125,244.8388671875)"/>
<path d="M0 0 C0.85101288 -0.0087616 1.70202576 -0.01752319 2.5788269 -0.02655029 C5.38510488 -0.0485136 8.18980044 -0.03400286 10.99609375 -0.01708984 C12.94995424 -0.02045887 14.90381269 -0.02531221 16.85766602 -0.03158569 C20.94991028 -0.03895286 25.04160836 -0.02825648 29.13378906 -0.00488281 C34.37652561 0.02360479 39.61798239 0.00719999 44.860672 -0.02274513 C48.89450708 -0.04082228 52.92803928 -0.03505815 56.96188354 -0.02210617 C58.89476676 -0.01877332 60.82767758 -0.022855 62.76052856 -0.03450394 C65.46348792 -0.04721957 68.16438182 -0.02782672 70.8671875 0 C71.66422089 -0.01012115 72.46125427 -0.02024231 73.28244019 -0.03067017 C77.34444112 0.04671286 79.2094515 0.46847725 82.42749023 3.03115845 C84.60717287 5.8733073 85.11376748 7.11585375 85.05859375 10.64697266 C85.07792969 11.88447266 85.07792969 11.88447266 85.09765625 13.14697266 C84.11265304 16.85522002 82.42140468 18.26763309 79.43359375 20.64697266 C76.38945414 21.14148609 73.90669057 21.33254254 70.8671875 21.29394531 C70.01617462 21.30270691 69.16516174 21.31146851 68.2883606 21.32049561 C65.48208262 21.34245891 62.67738706 21.32794817 59.87109375 21.31103516 C57.91723326 21.31440418 55.96337481 21.31925752 54.00952148 21.32553101 C49.91727722 21.33289817 45.82557914 21.32220179 41.73339844 21.29882812 C36.49066189 21.27034052 31.24920511 21.28674532 26.0065155 21.31669044 C21.97268042 21.33476759 17.93914822 21.32900346 13.90530396 21.31605148 C11.97242074 21.31271863 10.03950992 21.31680031 8.10665894 21.32844925 C5.40369958 21.34116488 2.70280568 21.32177203 0 21.29394531 C-1.19555008 21.30912704 -1.19555008 21.30912704 -2.41525269 21.32461548 C-6.47725362 21.24723245 -8.342264 20.82546806 -11.56030273 18.26278687 C-13.73998537 15.42063801 -14.24657998 14.17809157 -14.19140625 10.64697266 C-14.20429688 9.82197266 -14.2171875 8.99697266 -14.23046875 8.14697266 C-12.2865355 0.82863571 -6.67216055 -0.08472665 0 0 Z " fill="#12b8c8" transform="translate(259.56640625,82.35302734375)"/>
<path d="M0 0 C2.46810594 2.1516821 3.74159986 3.68402403 4.37890625 6.9296875 C4.60432912 10.78369142 4.24527155 12.61574124 2.125 15.9375 C-1.36158203 19.3215355 -4.03592714 19.38966392 -8.73828125 19.359375 C-12.32520929 18.78943134 -13.86838894 16.79773951 -16 14 C-17.43304064 11.13391871 -17.30644155 9.18699217 -17 6 C-15.15602845 2.31205689 -13.84112479 0.44859989 -10.1875 -1.5 C-6.12765138 -2.136839 -3.77517685 -1.60794569 0 0 Z " fill="#12b8c8" transform="translate(224,247)"/>
<path d="M0 0 C2.87029869 1.79393668 4.49131638 2.98263276 6 6 C6.5811138 13.08958838 6.5811138 13.08958838 4.125 16.9375 C0.63841797 20.3215355 -2.03592714 20.38966392 -6.73828125 20.359375 C-10.32520929 19.78943134 -11.86838894 17.79773951 -14 15 C-15.43304064 12.13391871 -15.30644155 10.18699217 -15 7 C-11.06142639 0.04185329 -7.71503326 -0.99935664 0 0 Z " fill="#12b8c8" transform="translate(222,83)"/>
</svg>
