<?xml version="1.0" encoding="UTF-8"?>
<svg version="1.1" xmlns="http://www.w3.org/2000/svg" width="512" height="512">
<path d="M0 0 C1.35474947 -0.00577456 2.70949109 -0.01372458 4.06421661 -0.02363622 C7.75387063 -0.04435035 11.44287121 -0.03426589 15.1325264 -0.01870513 C19.12444552 -0.00733155 23.11625699 -0.02488391 27.1081543 -0.03860474 C34.91519835 -0.06077798 42.72200135 -0.05606245 50.52905464 -0.04154153 C56.87689305 -0.03022592 63.22466415 -0.02872841 69.57250977 -0.03416061 C70.4777377 -0.03492678 71.38296563 -0.03569294 72.31562471 -0.03648233 C74.15487355 -0.03808104 75.99412237 -0.0397021 77.83337116 -0.04134528 C95.05921481 -0.05558546 112.28492517 -0.03923728 129.51074696 -0.01234345 C144.27480948 0.00999376 159.0386754 0.00611314 173.80273438 -0.01693726 C190.9690957 -0.0437259 208.13534036 -0.05421232 225.30171967 -0.03887594 C227.13400775 -0.03728328 228.96629586 -0.03571142 230.79858398 -0.03416061 C231.69998375 -0.03338924 232.60138352 -0.03261786 233.53009844 -0.03182311 C239.86652978 -0.02751529 246.20288681 -0.0347728 252.53930664 -0.04655838 C260.26675873 -0.06061601 267.99395703 -0.05671512 275.72138023 -0.03015466 C279.66021049 -0.01706014 283.59861842 -0.01178881 287.53744507 -0.02840042 C291.14991389 -0.04340466 294.76157276 -0.0349422 298.37396908 -0.00851266 C300.2852255 -0.00036601 302.19653908 -0.01651159 304.10773468 -0.03379881 C314.57275363 0.08392786 323.2086136 2.66661879 331.12304688 9.69741821 C338.6495571 18.01619267 340.80274678 26.8204334 340.734375 37.75991821 C340.77662609 42.78310365 341.79887209 44.99455992 345.18554688 48.63491821 C346.20507812 50.66226196 346.20507812 50.66226196 346.99804688 52.57241821 C350.19963575 59.11104781 354.83984899 62.32823314 361.56054688 64.88491821 C365.73562451 66.29192512 369.84626897 67.27026638 374.21289062 67.84976196 C377.4055522 69.12050449 378.38847932 70.6920277 380.18554688 73.63491821 C380.78573091 77.24274588 380.74593201 80.81238235 380.71679688 84.46304321 C380.72062378 85.52545227 380.72445068 86.58786133 380.72839355 87.6824646 C380.73111437 89.9351801 380.72374139 92.18792711 380.70703125 94.44058228 C380.68587925 97.83163263 380.70669516 101.22050181 380.73242188 104.61148071 C380.77160375 133.7932593 372.569483 158.18013872 351.64306641 179.21206665 C343.34973974 187.30813161 334.43289655 193.38421012 324.18554688 198.63491821 C323.31027344 199.09124634 322.435 199.54757446 321.53320312 200.01773071 C313.7360602 203.63196552 305.84630066 204.08436142 297.63085938 201.52944946 C273.60923093 191.72631225 255.21024539 173.97591239 243.62304688 151.00991821 C243.27628906 150.3228479 242.92953125 149.63577759 242.57226562 148.92788696 C241.13878138 145.98454431 240.18554688 143.95045668 240.18554688 140.63491821 C238.23856714 140.64183166 238.23856714 140.64183166 236.25225449 140.64888477 C205.40954548 140.75727919 174.56688806 140.83967328 143.72403418 140.89024486 C139.92409537 140.89649806 136.12415696 140.9029697 132.32421875 140.90957642 C131.56775032 140.91088797 130.8112819 140.91219952 130.03189018 140.91355082 C117.79879974 140.93528074 105.56582733 140.97468886 93.3328068 141.02068219 C80.77153837 141.0675142 68.21033157 141.09522782 55.64897943 141.10536069 C47.90394165 141.11220593 40.15923752 141.13379026 32.4143025 141.17450055 C26.46577245 141.20416695 20.51741171 141.20717537 14.56880569 141.20045662 C12.1356387 141.20182839 9.70245867 141.21172363 7.26936722 141.23094559 C-19.44823055 141.43160772 -19.44823055 141.43160772 -30.75195312 131.57241821 C-40.614741 120.6363551 -40.5649198 108.53166262 -40.47851562 94.63491821 C-40.48189178 92.70783178 -40.48675103 90.78074743 -40.49301147 88.85366821 C-40.50034512 84.8326268 -40.48979127 80.81214418 -40.46630859 76.79116821 C-40.437823 71.66701769 -40.45424593 66.54417707 -40.48417091 61.42007446 C-40.50233929 57.44601784 -40.49644239 53.47226584 -40.48353195 49.49819946 C-40.48022423 47.610177 -40.48419099 45.72212583 -40.49592972 43.83413696 C-40.55900193 30.84260494 -39.89662309 19.83721734 -30.75195312 9.69741821 C-21.63496637 1.59540404 -11.86842864 -0.10735278 0 0 Z M-14.77539062 24.18569946 C-15.24203125 24.76706665 -15.70867187 25.34843384 -16.18945312 25.94741821 C-16.91261719 26.80786743 -16.91261719 26.80786743 -17.65039062 27.68569946 C-20.2168479 31.98322355 -19.94480453 36.82296831 -19.9597168 41.70083618 C-19.96307541 42.39257935 -19.96643402 43.08432251 -19.96989441 43.79702759 C-19.97935875 46.07373879 -19.98134523 48.35037609 -19.98242188 50.62710571 C-19.98563755 52.21744822 -19.98900186 53.80779043 -19.99250793 55.39813232 C-19.99848787 58.72853277 -20.000349 62.05890731 -19.99975586 65.38931274 C-19.99965429 69.64499621 -20.013306 73.90051263 -20.03052807 78.15615654 C-20.04167709 81.44023392 -20.04367418 84.72427127 -20.04314613 88.00836563 C-20.04432189 89.57675884 -20.04872086 91.14515322 -20.0564785 92.71352768 C-20.06633743 94.91253935 -20.06337738 97.11119306 -20.05737305 99.31021118 C-20.05879807 100.55865814 -20.06022308 101.8071051 -20.06169128 103.09338379 C-19.74451602 107.63672419 -19.14124797 111.95720786 -16.26367188 115.59585571 C-15.39162109 116.29581665 -15.39162109 116.29581665 -14.50195312 117.00991821 C-13.92832031 117.49202759 -13.3546875 117.97413696 -12.76367188 118.47085571 C-7.77230481 121.45167212 -1.68341227 120.77290409 3.93611145 120.75517273 C4.92451969 120.75602715 5.91292794 120.75688158 6.93128794 120.7577619 C10.24628391 120.75941021 13.56122939 120.75390589 16.8762207 120.7484436 C19.25131224 120.74816157 21.62640387 120.74831979 24.00149536 120.74888611 C29.78340183 120.7491436 35.56529173 120.74480555 41.34719441 120.73844845 C48.07563816 120.73129806 54.80407956 120.72980312 61.53252658 120.72866028 C73.53137213 120.72647229 85.53021088 120.71981905 97.52905273 120.71035767 C109.18400031 120.70117701 120.83894603 120.69409937 132.49389648 120.68984985 C133.57172496 120.68945577 133.57172496 120.68945577 134.67132775 120.68905372 C138.27613574 120.68774867 141.88094374 120.68648497 145.48575175 120.68524182 C175.38568836 120.67487708 205.28561647 120.6569902 235.18554688 120.63491821 C235.18554688 113.37491821 235.18554688 106.11491821 235.18554688 98.63491821 C230.02901489 98.59733398 230.02901489 98.59733398 224.76831055 98.55899048 C213.42874466 98.47563161 202.08922432 98.38698051 190.74972057 98.29557896 C183.87247097 98.24027514 176.99521617 98.1867978 170.11791992 98.13760376 C163.48488385 98.09015183 156.85190055 98.03763184 150.21892738 97.98197746 C147.68432228 97.96154753 145.14970274 97.94283552 142.61507225 97.92584419 C139.07365053 97.90181444 135.53232866 97.87175773 131.9909668 97.84024048 C130.93576843 97.83448502 129.88057007 97.82872955 128.793396 97.82279968 C127.83005844 97.81301086 126.86672089 97.80322205 125.87419128 97.7931366 C124.61732655 97.78345777 124.61732655 97.78345777 123.33507061 97.77358341 C121.18554687 97.63491821 121.18554687 97.63491821 118.18554688 96.63491821 C115.99245307 92.02942123 115.91234591 88.54583624 117.18554688 83.63491821 C119.45087934 80.76549708 120.70277524 79.79584209 124.18554688 78.63491821 C125.70806905 78.53451222 127.23451808 78.48876816 128.76029968 78.47669983 C130.16744232 78.4620166 130.16744232 78.4620166 131.60301208 78.44703674 C132.63015823 78.44128128 133.65730438 78.43552582 134.71557617 78.42959595 C135.79866058 78.41969635 136.881745 78.40979675 137.99765015 78.39959717 C141.58499958 78.36795766 145.17236227 78.34321495 148.75976562 78.31851196 C151.24412891 78.29794456 153.72848868 78.27694815 156.21284485 78.25553894 C162.08823012 78.20594553 167.96363633 78.16068591 173.83907205 78.11751658 C181.18441833 78.06328238 188.52970517 78.00233609 195.875 77.94155884 C208.97847597 77.83395035 222.0819913 77.73232478 235.18554688 77.63491821 C235.61867188 76.52116821 236.05179688 75.40741821 236.49804688 74.25991821 C238.18554688 70.63491821 238.18554688 70.63491821 241.18554688 68.63491821 C244.78366291 67.77924258 248.39995968 67.10607203 252.03320312 66.41616821 C255.26036261 65.90426627 255.26036261 65.90426627 257.18554688 63.63491821 C256.50563124 63.63252986 255.8257156 63.63014151 255.12519646 63.62768078 C238.57444911 63.56852153 222.02386588 63.4929656 205.47327995 63.3992033 C197.46950472 63.35425496 189.46577389 63.3148381 181.46191406 63.28848267 C174.48501228 63.26549476 167.50825112 63.23208795 160.53146088 63.18621665 C156.83794774 63.16229499 153.14457378 63.14355935 149.45098495 63.13730431 C145.32568293 63.13012282 141.20086475 63.09967888 137.07568359 63.06729126 C135.24256874 63.06944389 135.24256874 63.06944389 133.37242126 63.07164001 C122.8854516 62.95500415 122.8854516 62.95500415 118.18554688 59.63491821 C115.57907012 55.55521546 116.24661993 52.24419596 117.18554688 47.63491821 C117.51554688 46.64491821 117.84554687 45.65491821 118.18554688 44.63491821 C121.86646905 43.40794416 125.26753664 43.48159775 129.10112 43.47669983 C130.32390529 43.46929286 130.32390529 43.46929286 131.57139331 43.46173626 C134.31216051 43.44633692 137.05290423 43.43799404 139.79370117 43.42959595 C141.75471199 43.42001934 143.71572073 43.41000939 145.67672729 43.39959717 C151.00901097 43.37251851 156.34130353 43.35152497 161.67361808 43.33159518 C167.2430253 43.30975389 172.81240507 43.28235613 178.38179016 43.25553894 C188.9320919 43.20558692 199.48240886 43.1606574 210.03274041 43.11751658 C222.04227314 43.06816564 234.05177833 43.01323957 246.06128442 42.95783699 C270.76934622 42.84397842 295.47743442 42.73714781 320.18554688 42.63491821 C320.20294922 40.76706665 320.20294922 40.76706665 320.22070312 38.86148071 C320.227229 38.16103638 320.23375488 37.46059204 320.24047852 36.73892212 C320.13101576 32.54625538 319.48317362 29.11983129 316.66992188 25.90054321 C311.64068966 21.30863554 307.48298503 20.51134269 300.71724129 20.50628376 C299.62478352 20.50305931 298.53232575 20.49983487 297.4067632 20.49651271 C295.61480796 20.49883561 295.61480796 20.49883561 293.78665161 20.50120544 C292.51325011 20.49893989 291.23984861 20.49667433 289.92785919 20.49434012 C286.3953727 20.48822301 282.86290988 20.48835561 279.3304193 20.4895345 C275.51983637 20.48973852 271.70926103 20.48421957 267.89868164 20.47947693 C260.43399955 20.47117043 252.96932537 20.46842209 245.50463904 20.46786455 C239.43740628 20.46738942 233.37017612 20.46533479 227.30294418 20.46216393 C210.10263438 20.45335756 192.90233082 20.44874455 175.70201875 20.4494944 C174.77474221 20.44953436 173.84746567 20.44957431 172.89208984 20.44961548 C171.96368172 20.44965636 171.03527359 20.44969724 170.07873188 20.44973936 C155.02969437 20.45014588 139.98068188 20.44057467 124.93165161 20.42647711 C109.48079818 20.41211728 94.02995695 20.4052067 78.57909667 20.40607089 C69.90404 20.40640298 61.22900956 20.40365048 52.55395889 20.39289284 C45.16846617 20.38379304 37.78301157 20.38160832 30.39751567 20.38840226 C26.62959124 20.39167002 22.86173997 20.39171491 19.09382248 20.38304901 C15.00862927 20.37375003 10.92360587 20.3799533 6.83840942 20.38768005 C5.64823404 20.38253649 4.45805866 20.37739293 3.23181736 20.3720935 C-6.3329817 20.23918957 -6.3329817 20.23918957 -14.77539062 24.18569946 Z M282.58398438 67.99819946 C281.75633292 69.5288711 280.95400093 71.07368763 280.18554688 72.63491821 C274.55679217 78.94544361 266.68825432 82.08918071 259.18554688 85.63491821 C257.85088347 86.29891807 256.51725023 86.96500151 255.18554688 87.63491821 C254.66082737 116.56310788 256.85198802 141.23482468 277.68164062 163.25991821 C285.44550452 170.6240824 294.825042 178.4983818 305.18554688 181.63491821 C318.99324446 181.05436729 332.54305459 168.82277111 341.56445312 159.06069946 C343.55809723 156.65092472 345.39841158 154.20085099 347.18554688 151.63491821 C347.72695313 150.86921509 348.26835937 150.10351196 348.82617188 149.31460571 C360.96827114 130.73351441 360.57259755 108.97331977 360.18554688 87.63491821 C359.58734131 87.37154663 358.98913574 87.10817505 358.37280273 86.83682251 C335.87452395 76.89254226 335.87452395 76.89254226 330.61376953 66.54263306 C328.02612936 63.4440211 327.79934121 63.20601541 324.07885742 62.8109436 C322.41085978 62.75116814 320.74132545 62.72723207 319.07226562 62.73257446 C317.74060112 62.7132914 317.74060112 62.7132914 316.3820343 62.69361877 C314.50517438 62.67640762 312.62811437 62.67487503 310.7512207 62.68789673 C307.89053009 62.69736038 305.03922042 62.62712558 302.1796875 62.55093384 C291.12905722 62.01739772 291.12905722 62.01739772 282.58398438 67.99819946 Z " fill="#12b8c8" transform="translate(85.814453125,309.3650817871094)"/>
<path d="M0 0 C1.35474947 -0.00577456 2.70949109 -0.01372458 4.06421661 -0.02363622 C7.75387063 -0.04435035 11.44287121 -0.03426589 15.1325264 -0.01870513 C19.12444552 -0.00733155 23.11625699 -0.02488391 27.1081543 -0.03860474 C34.91519835 -0.06077798 42.72200135 -0.05606245 50.52905464 -0.04154153 C56.87689305 -0.03022592 63.22466415 -0.02872841 69.57250977 -0.03416061 C70.4777377 -0.03492678 71.38296563 -0.03569294 72.31562471 -0.03648233 C74.15487355 -0.03808104 75.99412237 -0.0397021 77.83337116 -0.04134528 C95.05921481 -0.05558546 112.28492517 -0.03923728 129.51074696 -0.01234345 C144.27480948 0.00999376 159.0386754 0.00611314 173.80273438 -0.01693726 C190.9690957 -0.0437259 208.13534036 -0.05421232 225.30171967 -0.03887594 C227.13400775 -0.03728328 228.96629586 -0.03571142 230.79858398 -0.03416061 C231.69998375 -0.03338924 232.60138352 -0.03261786 233.53009844 -0.03182311 C239.86652978 -0.02751529 246.20288681 -0.0347728 252.53930664 -0.04655838 C260.26675873 -0.06061601 267.99395703 -0.05671512 275.72138023 -0.03015466 C279.66021049 -0.01706014 283.59861842 -0.01178881 287.53744507 -0.02840042 C291.14991389 -0.04340466 294.76157276 -0.0349422 298.37396908 -0.00851266 C300.2852255 -0.00036601 302.19653908 -0.01651159 304.10773468 -0.03379881 C314.57147721 0.0839135 323.21039894 2.66566667 331.12304688 9.69741821 C340.98583475 20.63348132 340.93601355 32.73817381 340.84960938 46.63491821 C340.85298553 48.56200465 340.85784478 50.48908899 340.86410522 52.41616821 C340.87143887 56.43720962 340.86088502 60.45769224 340.83740234 64.47866821 C340.80891675 69.60281873 340.82533968 74.72565936 340.85526466 79.84976196 C340.87343304 83.82381858 340.86753614 87.79757058 340.8546257 91.77163696 C340.85131798 93.65965942 340.85528474 95.5477106 340.86702347 97.43569946 C340.93009568 110.42723149 340.26771684 121.43261909 331.12304688 131.57241821 C322.00606012 139.67443239 312.23952239 141.37718921 300.37109375 141.26983643 C299.01634428 141.27561099 297.66160266 141.28356101 296.30687714 141.29347265 C292.61722312 141.31418677 288.92822254 141.30410231 285.23856735 141.28854156 C281.24664823 141.27716798 277.25483676 141.29472034 273.26293945 141.30844116 C265.4558954 141.33061441 257.6490924 141.32589888 249.84203911 141.31137796 C243.4942007 141.30006234 237.1464296 141.29856484 230.79858398 141.30399704 C229.89335605 141.3047632 228.98812812 141.30552937 228.05546904 141.30631875 C226.2162202 141.30791746 224.37697138 141.30953853 222.53772259 141.31118171 C205.31187894 141.32542189 188.08616858 141.3090737 170.86034679 141.28217988 C156.09628427 141.25984267 141.33241835 141.26372329 126.56835938 141.28677368 C109.40199805 141.31356232 92.23575339 141.32404875 75.06937408 141.30871236 C73.237086 141.3071197 71.40479789 141.30554785 69.57250977 141.30399704 C68.67111 141.30322566 67.76971023 141.30245428 66.84099531 141.30165953 C60.50456397 141.29735172 54.16820694 141.30460923 47.83178711 141.31639481 C40.10433502 141.33045244 32.37713672 141.32655154 24.64971352 141.29999109 C20.71088326 141.28689656 16.77247533 141.28162523 12.83364868 141.29823685 C9.22117986 141.31324109 5.60952099 141.30477863 1.99712467 141.27834909 C0.08586825 141.27020244 -1.82544533 141.28634802 -3.73664093 141.30363524 C-14.20038346 141.18592292 -22.83930519 138.60416976 -30.75195312 131.57241821 C-40.614741 120.6363551 -40.5649198 108.53166262 -40.47851562 94.63491821 C-40.48189178 92.70783178 -40.48675103 90.78074743 -40.49301147 88.85366821 C-40.50034512 84.8326268 -40.48979127 80.81214418 -40.46630859 76.79116821 C-40.437823 71.66701769 -40.45424593 66.54417707 -40.48417091 61.42007446 C-40.50233929 57.44601784 -40.49644239 53.47226584 -40.48353195 49.49819946 C-40.48022423 47.610177 -40.48419099 45.72212583 -40.49592972 43.83413696 C-40.55900193 30.84260494 -39.89662309 19.83721734 -30.75195312 9.69741821 C-21.63496637 1.59540404 -11.86842864 -0.10735278 0 0 Z M-14.77539062 24.18569946 C-15.24203125 24.76706665 -15.70867187 25.34843384 -16.18945312 25.94741821 C-16.91261719 26.80786743 -16.91261719 26.80786743 -17.65039062 27.68569946 C-20.2168479 31.98322355 -19.94480453 36.82296831 -19.9597168 41.70083618 C-19.96307541 42.39257935 -19.96643402 43.08432251 -19.96989441 43.79702759 C-19.97935875 46.07373879 -19.98134523 48.35037609 -19.98242188 50.62710571 C-19.98563755 52.21744822 -19.98900186 53.80779043 -19.99250793 55.39813232 C-19.99848787 58.72853277 -20.000349 62.05890731 -19.99975586 65.38931274 C-19.99965429 69.64499621 -20.013306 73.90051263 -20.03052807 78.15615654 C-20.04167709 81.44023392 -20.04367418 84.72427127 -20.04314613 88.00836563 C-20.04432189 89.57675884 -20.04872086 91.14515322 -20.0564785 92.71352768 C-20.06633743 94.91253935 -20.06337738 97.11119306 -20.05737305 99.31021118 C-20.05879807 100.55865814 -20.06022308 101.8071051 -20.06169128 103.09338379 C-19.74451602 107.63672419 -19.14124797 111.95720786 -16.26367188 115.59585571 C-15.39162109 116.29581665 -15.39162109 116.29581665 -14.50195312 117.00991821 C-13.92832031 117.49202759 -13.3546875 117.97413696 -12.76367188 118.47085571 C-8.92573079 120.76285259 -4.72143643 120.76028115 -0.34614754 120.76355267 C0.74631023 120.76677711 1.838768 120.77000156 2.96433055 120.77332371 C4.15896738 120.77177511 5.3536042 120.77022651 6.58444214 120.76863098 C7.85784364 120.77089654 9.13124514 120.77316209 10.44323456 120.7754963 C13.97572105 120.78161342 17.50818387 120.78148081 21.04067445 120.78030193 C24.85125738 120.7800979 28.66183272 120.78561686 32.47241211 120.7903595 C39.9370942 120.79866599 47.40176838 120.80141433 54.86645471 120.80197188 C60.93368747 120.80244701 67.00091763 120.80450163 73.06814957 120.8076725 C90.26845937 120.81647887 107.46876293 120.82109187 124.669075 120.82034203 C126.05998981 120.82028209 126.05998981 120.82028209 127.47900391 120.82022095 C128.8716161 120.82015963 128.8716161 120.82015963 130.29236187 120.82009707 C145.34139938 120.81969054 160.39041187 120.82926175 175.43944214 120.84335931 C190.89029557 120.85771915 206.3411368 120.86462972 221.79199708 120.86376554 C230.46705375 120.86343344 239.14208419 120.86618595 247.81713486 120.87694359 C255.20262758 120.88604339 262.58808218 120.8882281 269.97357808 120.88143416 C273.74150251 120.8781664 277.50935378 120.87812151 281.27727127 120.88678741 C285.36246448 120.89608639 289.44748788 120.88988312 293.53268433 120.88215637 C294.72285971 120.88729994 295.91303509 120.8924435 297.13927639 120.89774293 C306.70407545 121.03064686 306.70407545 121.03064686 315.14648438 117.08413696 C315.613125 116.50276978 316.07976562 115.92140259 316.56054688 115.32241821 C317.28371094 114.46196899 317.28371094 114.46196899 318.02148438 113.58413696 C320.58794165 109.28661287 320.31589828 104.44686812 320.33081055 99.56900024 C320.33416916 98.87725708 320.33752777 98.18551392 320.34098816 97.47280884 C320.3504525 95.19609764 320.35243898 92.91946034 320.35351562 90.64273071 C320.3567313 89.05238821 320.36009561 87.46204599 320.36360168 85.8717041 C320.36958162 82.54130365 320.37144275 79.21092912 320.37084961 75.88052368 C320.37074804 71.62484022 320.38439975 67.36932379 320.40162182 63.11367989 C320.41277084 59.82960251 320.41476793 56.54556515 320.41423988 53.26147079 C320.41541564 51.69307759 320.41981461 50.12468321 320.42757225 48.55630875 C320.43743118 46.35729708 320.43447113 44.15864337 320.4284668 41.95962524 C320.43060432 40.0869548 320.43060432 40.0869548 320.43278503 38.17645264 C320.11560977 33.63311224 319.51234172 29.31262857 316.63476562 25.67398071 C316.05339844 25.20734009 315.47203125 24.74069946 314.87304688 24.25991821 C314.29941406 23.77780884 313.72578125 23.29569946 313.13476562 22.79898071 C309.29682454 20.50698383 305.09253018 20.50955528 300.71724129 20.50628376 C299.62478352 20.50305931 298.53232575 20.49983487 297.4067632 20.49651271 C295.61480796 20.49883561 295.61480796 20.49883561 293.78665161 20.50120544 C292.51325011 20.49893989 291.23984861 20.49667433 289.92785919 20.49434012 C286.3953727 20.48822301 282.86290988 20.48835561 279.3304193 20.4895345 C275.51983637 20.48973852 271.70926103 20.48421957 267.89868164 20.47947693 C260.43399955 20.47117043 252.96932537 20.46842209 245.50463904 20.46786455 C239.43740628 20.46738942 233.37017612 20.46533479 227.30294418 20.46216393 C210.10263438 20.45335756 192.90233082 20.44874455 175.70201875 20.4494944 C174.77474221 20.44953436 173.84746567 20.44957431 172.89208984 20.44961548 C171.96368172 20.44965636 171.03527359 20.44969724 170.07873188 20.44973936 C155.02969437 20.45014588 139.98068188 20.44057467 124.93165161 20.42647711 C109.48079818 20.41211728 94.02995695 20.4052067 78.57909667 20.40607089 C69.90404 20.40640298 61.22900956 20.40365048 52.55395889 20.39289284 C45.16846617 20.38379304 37.78301157 20.38160832 30.39751567 20.38840226 C26.62959124 20.39167002 22.86173997 20.39171491 19.09382248 20.38304901 C15.00862927 20.37375003 10.92360587 20.3799533 6.83840942 20.38768005 C5.64823404 20.38253649 4.45805866 20.37739293 3.23181736 20.3720935 C-6.3329817 20.23918957 -6.3329817 20.23918957 -14.77539062 24.18569946 Z " fill="#12b8c8" transform="translate(85.814453125,154.36508178710938)"/>
<path d="M0 0 C1.35474947 -0.00577456 2.70949109 -0.01372458 4.06421661 -0.02363622 C7.75387063 -0.04435035 11.44287121 -0.03426589 15.1325264 -0.01870513 C19.12444552 -0.00733155 23.11625699 -0.02488391 27.1081543 -0.03860474 C34.91519835 -0.06077798 42.72200135 -0.05606245 50.52905464 -0.04154153 C56.87689305 -0.03022592 63.22466415 -0.02872841 69.57250977 -0.03416061 C70.4777377 -0.03492678 71.38296563 -0.03569294 72.31562471 -0.03648233 C74.15487355 -0.03808104 75.99412237 -0.0397021 77.83337116 -0.04134528 C95.05921481 -0.05558546 112.28492517 -0.03923728 129.51074696 -0.01234345 C144.27480948 0.00999376 159.0386754 0.00611314 173.80273438 -0.01693726 C190.9690957 -0.0437259 208.13534036 -0.05421232 225.30171967 -0.03887594 C227.13400775 -0.03728328 228.96629586 -0.03571142 230.79858398 -0.03416061 C231.69998375 -0.03338924 232.60138352 -0.03261786 233.53009844 -0.03182311 C239.86652978 -0.02751529 246.20288681 -0.0347728 252.53930664 -0.04655838 C260.26675873 -0.06061601 267.99395703 -0.05671512 275.72138023 -0.03015466 C279.66021049 -0.01706014 283.59861842 -0.01178881 287.53744507 -0.02840042 C291.14991389 -0.04340466 294.76157276 -0.0349422 298.37396908 -0.00851266 C300.2852255 -0.00036601 302.19653908 -0.01651159 304.10773468 -0.03379881 C314.57147721 0.0839135 323.21039894 2.66566667 331.12304688 9.69741821 C340.98583475 20.63348132 340.93601355 32.73817381 340.84960938 46.63491821 C340.85298553 48.56200465 340.85784478 50.48908899 340.86410522 52.41616821 C340.87143887 56.43720962 340.86088502 60.45769224 340.83740234 64.47866821 C340.80891675 69.60281873 340.82533968 74.72565936 340.85526466 79.84976196 C340.87343304 83.82381858 340.86753614 87.79757058 340.8546257 91.77163696 C340.85131798 93.65965942 340.85528474 95.5477106 340.86702347 97.43569946 C340.93009568 110.42723149 340.26771684 121.43261909 331.12304688 131.57241821 C322.00606012 139.67443239 312.23952239 141.37718921 300.37109375 141.26983643 C299.01634428 141.27561099 297.66160266 141.28356101 296.30687714 141.29347265 C292.61722312 141.31418677 288.92822254 141.30410231 285.23856735 141.28854156 C281.24664823 141.27716798 277.25483676 141.29472034 273.26293945 141.30844116 C265.4558954 141.33061441 257.6490924 141.32589888 249.84203911 141.31137796 C243.4942007 141.30006234 237.1464296 141.29856484 230.79858398 141.30399704 C229.89335605 141.3047632 228.98812812 141.30552937 228.05546904 141.30631875 C226.2162202 141.30791746 224.37697138 141.30953853 222.53772259 141.31118171 C205.31187894 141.32542189 188.08616858 141.3090737 170.86034679 141.28217988 C156.09628427 141.25984267 141.33241835 141.26372329 126.56835938 141.28677368 C109.40199805 141.31356232 92.23575339 141.32404875 75.06937408 141.30871236 C73.237086 141.3071197 71.40479789 141.30554785 69.57250977 141.30399704 C68.67111 141.30322566 67.76971023 141.30245428 66.84099531 141.30165953 C60.50456397 141.29735172 54.16820694 141.30460923 47.83178711 141.31639481 C40.10433502 141.33045244 32.37713672 141.32655154 24.64971352 141.29999109 C20.71088326 141.28689656 16.77247533 141.28162523 12.83364868 141.29823685 C9.22117986 141.31324109 5.60952099 141.30477863 1.99712467 141.27834909 C0.08586825 141.27020244 -1.82544533 141.28634802 -3.73664093 141.30363524 C-14.20038346 141.18592292 -22.83930519 138.60416976 -30.75195312 131.57241821 C-40.614741 120.6363551 -40.5649198 108.53166262 -40.47851562 94.63491821 C-40.48189178 92.70783178 -40.48675103 90.78074743 -40.49301147 88.85366821 C-40.50034512 84.8326268 -40.48979127 80.81214418 -40.46630859 76.79116821 C-40.437823 71.66701769 -40.45424593 66.54417707 -40.48417091 61.42007446 C-40.50233929 57.44601784 -40.49644239 53.47226584 -40.48353195 49.49819946 C-40.48022423 47.610177 -40.48419099 45.72212583 -40.49592972 43.83413696 C-40.55900193 30.84260494 -39.89662309 19.83721734 -30.75195312 9.69741821 C-21.63496637 1.59540404 -11.86842864 -0.10735278 0 0 Z M-14.77539062 24.18569946 C-15.24203125 24.76706665 -15.70867187 25.34843384 -16.18945312 25.94741821 C-16.91261719 26.80786743 -16.91261719 26.80786743 -17.65039062 27.68569946 C-20.2168479 31.98322355 -19.94480453 36.82296831 -19.9597168 41.70083618 C-19.96307541 42.39257935 -19.96643402 43.08432251 -19.96989441 43.79702759 C-19.97935875 46.07373879 -19.98134523 48.35037609 -19.98242188 50.62710571 C-19.98563755 52.21744822 -19.98900186 53.80779043 -19.99250793 55.39813232 C-19.99848787 58.72853277 -20.000349 62.05890731 -19.99975586 65.38931274 C-19.99965429 69.64499621 -20.013306 73.90051263 -20.03052807 78.15615654 C-20.04167709 81.44023392 -20.04367418 84.72427127 -20.04314613 88.00836563 C-20.04432189 89.57675884 -20.04872086 91.14515322 -20.0564785 92.71352768 C-20.06633743 94.91253935 -20.06337738 97.11119306 -20.05737305 99.31021118 C-20.05879807 100.55865814 -20.06022308 101.8071051 -20.06169128 103.09338379 C-19.74451602 107.63672419 -19.14124797 111.95720786 -16.26367188 115.59585571 C-15.39162109 116.29581665 -15.39162109 116.29581665 -14.50195312 117.00991821 C-13.92832031 117.49202759 -13.3546875 117.97413696 -12.76367188 118.47085571 C-8.92573079 120.76285259 -4.72143643 120.76028115 -0.34614754 120.76355267 C0.74631023 120.76677711 1.838768 120.77000156 2.96433055 120.77332371 C4.15896738 120.77177511 5.3536042 120.77022651 6.58444214 120.76863098 C7.85784364 120.77089654 9.13124514 120.77316209 10.44323456 120.7754963 C13.97572105 120.78161342 17.50818387 120.78148081 21.04067445 120.78030193 C24.85125738 120.7800979 28.66183272 120.78561686 32.47241211 120.7903595 C39.9370942 120.79866599 47.40176838 120.80141433 54.86645471 120.80197188 C60.93368747 120.80244701 67.00091763 120.80450163 73.06814957 120.8076725 C90.26845937 120.81647887 107.46876293 120.82109187 124.669075 120.82034203 C126.05998981 120.82028209 126.05998981 120.82028209 127.47900391 120.82022095 C128.8716161 120.82015963 128.8716161 120.82015963 130.29236187 120.82009707 C145.34139938 120.81969054 160.39041187 120.82926175 175.43944214 120.84335931 C190.89029557 120.85771915 206.3411368 120.86462972 221.79199708 120.86376554 C230.46705375 120.86343344 239.14208419 120.86618595 247.81713486 120.87694359 C255.20262758 120.88604339 262.58808218 120.8882281 269.97357808 120.88143416 C273.74150251 120.8781664 277.50935378 120.87812151 281.27727127 120.88678741 C285.36246448 120.89608639 289.44748788 120.88988312 293.53268433 120.88215637 C294.72285971 120.88729994 295.91303509 120.8924435 297.13927639 120.89774293 C306.70407545 121.03064686 306.70407545 121.03064686 315.14648438 117.08413696 C315.613125 116.50276978 316.07976562 115.92140259 316.56054688 115.32241821 C317.28371094 114.46196899 317.28371094 114.46196899 318.02148438 113.58413696 C320.58794165 109.28661287 320.31589828 104.44686812 320.33081055 99.56900024 C320.33416916 98.87725708 320.33752777 98.18551392 320.34098816 97.47280884 C320.3504525 95.19609764 320.35243898 92.91946034 320.35351562 90.64273071 C320.3567313 89.05238821 320.36009561 87.46204599 320.36360168 85.8717041 C320.36958162 82.54130365 320.37144275 79.21092912 320.37084961 75.88052368 C320.37074804 71.62484022 320.38439975 67.36932379 320.40162182 63.11367989 C320.41277084 59.82960251 320.41476793 56.54556515 320.41423988 53.26147079 C320.41541564 51.69307759 320.41981461 50.12468321 320.42757225 48.55630875 C320.43743118 46.35729708 320.43447113 44.15864337 320.4284668 41.95962524 C320.43060432 40.0869548 320.43060432 40.0869548 320.43278503 38.17645264 C320.11560977 33.63311224 319.51234172 29.31262857 316.63476562 25.67398071 C316.05339844 25.20734009 315.47203125 24.74069946 314.87304688 24.25991821 C314.29941406 23.77780884 313.72578125 23.29569946 313.13476562 22.79898071 C309.29682454 20.50698383 305.09253018 20.50955528 300.71724129 20.50628376 C299.62478352 20.50305931 298.53232575 20.49983487 297.4067632 20.49651271 C295.61480796 20.49883561 295.61480796 20.49883561 293.78665161 20.50120544 C292.51325011 20.49893989 291.23984861 20.49667433 289.92785919 20.49434012 C286.3953727 20.48822301 282.86290988 20.48835561 279.3304193 20.4895345 C275.51983637 20.48973852 271.70926103 20.48421957 267.89868164 20.47947693 C260.43399955 20.47117043 252.96932537 20.46842209 245.50463904 20.46786455 C239.43740628 20.46738942 233.37017612 20.46533479 227.30294418 20.46216393 C210.10263438 20.45335756 192.90233082 20.44874455 175.70201875 20.4494944 C174.77474221 20.44953436 173.84746567 20.44957431 172.89208984 20.44961548 C171.96368172 20.44965636 171.03527359 20.44969724 170.07873188 20.44973936 C155.02969437 20.45014588 139.98068188 20.44057467 124.93165161 20.42647711 C109.48079818 20.41211728 94.02995695 20.4052067 78.57909667 20.40607089 C69.90404 20.40640298 61.22900956 20.40365048 52.55395889 20.39289284 C45.16846617 20.38379304 37.78301157 20.38160832 30.39751567 20.38840226 C26.62959124 20.39167002 22.86173997 20.39171491 19.09382248 20.38304901 C15.00862927 20.37375003 10.92360587 20.3799533 6.83840942 20.38768005 C5.64823404 20.38253649 4.45805866 20.37739293 3.23181736 20.3720935 C-6.3329817 20.23918957 -6.3329817 20.23918957 -14.77539062 24.18569946 Z " fill="#12b8c8" transform="translate(85.814453125,-0.634918212890625)"/>
<path d="M0 0 C0.64186202 -0.00709439 1.28372403 -0.01418877 1.94503641 -0.02149814 C4.08811889 -0.03905043 6.22938079 -0.02099094 8.37243652 -0.00291443 C9.91184819 -0.0080544 11.45125397 -0.01533626 12.99064636 -0.02459717 C17.16639439 -0.04310991 21.34150383 -0.03017378 25.51722527 -0.01050687 C29.88844416 0.00588217 34.25962269 -0.00293361 38.63085938 -0.00802612 C45.97141721 -0.0125468 53.3117202 0.00332109 60.65222168 0.03126526 C69.13714098 0.06331714 77.62160067 0.0633014 86.1065526 0.04605049 C94.27101939 0.03018304 102.43531779 0.03692034 110.59977722 0.0539875 C114.07338446 0.06085755 117.5468567 0.05982605 121.02046204 0.05244255 C125.11149453 0.04477758 129.20200439 0.05691229 133.29294777 0.08429146 C134.79373943 0.09117423 136.29457992 0.09127436 137.7953701 0.08407593 C139.84552587 0.07537608 141.89407062 0.0913423 143.9440918 0.11352539 C145.66409519 0.11773577 145.66409519 0.11773577 147.41884613 0.12203121 C151.13294364 0.73775237 152.79772658 2.03041807 155.4720459 4.62818909 C157.21104422 8.10618574 157.06183626 11.83387109 156.4720459 15.62818909 C153.79898903 19.19226492 151.80822606 20.87653277 147.4720459 21.62818909 C145.41599467 21.72355083 143.35711268 21.7630753 141.29885864 21.76863098 C140.03149368 21.77434113 138.76412872 21.78005127 137.45835876 21.78593445 C136.05618296 21.78717971 134.65400704 21.78830483 133.25183105 21.7893219 C131.77330909 21.79395184 130.29478831 21.79897674 128.81626892 21.80436707 C124.80176859 21.81747463 120.78728497 21.82393261 116.77276659 21.82837772 C114.26407046 21.83131062 111.75537887 21.83541581 109.24668503 21.8398819 C101.39569197 21.85355144 93.54470933 21.8632212 85.6937052 21.86708379 C76.63399846 21.87156573 67.57444249 21.88912219 58.51478159 21.91808438 C51.50914184 21.93970227 44.50354451 21.9497881 37.49787176 21.95112491 C33.31477202 21.9521727 29.13181413 21.95807525 24.94874954 21.97594452 C21.01380309 21.99242748 17.0791051 21.99457971 13.14413643 21.98580551 C11.70179516 21.9850353 10.25944053 21.98937582 8.81713295 21.99926376 C6.84452948 22.01199185 4.87182609 22.00431162 2.89920044 21.99568176 C1.2450006 21.9978816 1.2450006 21.9978816 -0.44261742 22.00012589 C-4.04745191 21.56556372 -6.43329608 20.50463564 -9.5279541 18.62818909 C-11.93210879 15.21584049 -12.5279541 13.24629218 -12.5279541 9.06568909 C-10.57099655 2.33864749 -6.81007554 0.0034821 0 0 Z " fill="#12b8c8" transform="translate(213.5279541015625,196.37181091308594)"/>
<path d="M0 0 C0.64186202 -0.00709439 1.28372403 -0.01418877 1.94503641 -0.02149814 C4.08811889 -0.03905043 6.22938079 -0.02099094 8.37243652 -0.00291443 C9.91184819 -0.0080544 11.45125397 -0.01533626 12.99064636 -0.02459717 C17.16639439 -0.04310991 21.34150383 -0.03017378 25.51722527 -0.01050687 C29.88844416 0.00588217 34.25962269 -0.00293361 38.63085938 -0.00802612 C45.97141721 -0.0125468 53.3117202 0.00332109 60.65222168 0.03126526 C69.13714098 0.06331714 77.62160067 0.0633014 86.1065526 0.04605049 C94.27101939 0.03018304 102.43531779 0.03692034 110.59977722 0.0539875 C114.07338446 0.06085755 117.5468567 0.05982605 121.02046204 0.05244255 C125.11149453 0.04477758 129.20200439 0.05691229 133.29294777 0.08429146 C134.79373943 0.09117423 136.29457992 0.09127436 137.7953701 0.08407593 C139.84552587 0.07537608 141.89407062 0.0913423 143.9440918 0.11352539 C145.66409519 0.11773577 145.66409519 0.11773577 147.41884613 0.12203121 C151.13294364 0.73775237 152.79772658 2.03041807 155.4720459 4.62818909 C157.21104422 8.10618574 157.06183626 11.83387109 156.4720459 15.62818909 C153.79898903 19.19226492 151.80822606 20.87653277 147.4720459 21.62818909 C145.41599467 21.72355083 143.35711268 21.7630753 141.29885864 21.76863098 C140.03149368 21.77434113 138.76412872 21.78005127 137.45835876 21.78593445 C136.05618296 21.78717971 134.65400704 21.78830483 133.25183105 21.7893219 C131.77330909 21.79395184 130.29478831 21.79897674 128.81626892 21.80436707 C124.80176859 21.81747463 120.78728497 21.82393261 116.77276659 21.82837772 C114.26407046 21.83131062 111.75537887 21.83541581 109.24668503 21.8398819 C101.39569197 21.85355144 93.54470933 21.8632212 85.6937052 21.86708379 C76.63399846 21.87156573 67.57444249 21.88912219 58.51478159 21.91808438 C51.50914184 21.93970227 44.50354451 21.9497881 37.49787176 21.95112491 C33.31477202 21.9521727 29.13181413 21.95807525 24.94874954 21.97594452 C21.01380309 21.99242748 17.0791051 21.99457971 13.14413643 21.98580551 C11.70179516 21.9850353 10.25944053 21.98937582 8.81713295 21.99926376 C6.84452948 22.01199185 4.87182609 22.00431162 2.89920044 21.99568176 C1.2450006 21.9978816 1.2450006 21.9978816 -0.44261742 22.00012589 C-4.04745191 21.56556372 -6.43329608 20.50463564 -9.5279541 18.62818909 C-11.93210879 15.21584049 -12.5279541 13.24629218 -12.5279541 9.06568909 C-10.57099655 2.33864749 -6.81007554 0.0034821 0 0 Z " fill="#12b8c8" transform="translate(213.5279541015625,41.37181091308594)"/>
<path d="M0 0 C6.48142353 5.79990046 9.95261558 13.49141522 11.0078125 22.06640625 C11.52041245 32.98633849 8.27150429 42.11954942 0.9453125 50.25390625 C-5.84948182 56.59178381 -14.69167454 59.75279091 -23.9296875 59.50390625 C-33.37890669 58.66101815 -41.71510904 55.22326071 -48.3046875 48.31640625 C-55.96418065 38.85832767 -57.08299548 29.31329944 -55.9296875 17.50390625 C-54.09789915 8.90594967 -48.81905872 1.7794654 -41.5390625 -3.09765625 C-27.48836183 -10.65322171 -12.69217636 -9.84029058 0 0 Z M-33.3671875 17.56640625 C-35.65947178 21.8759007 -35.69339367 25.72483774 -34.9296875 30.50390625 C-32.97021224 34.18771973 -31.2171422 35.33577237 -27.6171875 37.44140625 C-23.12317031 38.73629256 -21.17823414 38.3921492 -16.9296875 36.50390625 C-13.87025506 33.92038553 -11.07805651 31.40836089 -9.9296875 27.50390625 C-10.1213021 22.23450488 -11.08014157 19.1508445 -14.9296875 15.50390625 C-22.04116663 11.55132075 -27.20794944 12.35474327 -33.3671875 17.56640625 Z " fill="#12b8c8" transform="translate(157.9296875,354.49609375)"/>
<path d="M0 0 C6.48142353 5.79990046 9.95261558 13.49141522 11.0078125 22.06640625 C11.52041245 32.98633849 8.27150429 42.11954942 0.9453125 50.25390625 C-5.84948182 56.59178381 -14.69167454 59.75279091 -23.9296875 59.50390625 C-33.37890669 58.66101815 -41.71510904 55.22326071 -48.3046875 48.31640625 C-55.96418065 38.85832767 -57.08299548 29.31329944 -55.9296875 17.50390625 C-54.09789915 8.90594967 -48.81905872 1.7794654 -41.5390625 -3.09765625 C-27.48836183 -10.65322171 -12.69217636 -9.84029058 0 0 Z M-33.3671875 17.56640625 C-35.65947178 21.8759007 -35.69339367 25.72483774 -34.9296875 30.50390625 C-32.97021224 34.18771973 -31.2171422 35.33577237 -27.6171875 37.44140625 C-23.12317031 38.73629256 -21.17823414 38.3921492 -16.9296875 36.50390625 C-13.87025506 33.92038553 -11.07805651 31.40836089 -9.9296875 27.50390625 C-10.1213021 22.23450488 -11.08014157 19.1508445 -14.9296875 15.50390625 C-22.04116663 11.55132075 -27.20794944 12.35474327 -33.3671875 17.56640625 Z " fill="#12b8c8" transform="translate(157.9296875,199.49609375)"/>
<path d="M0 0 C6.48142353 5.79990046 9.95261558 13.49141522 11.0078125 22.06640625 C11.52041245 32.98633849 8.27150429 42.11954942 0.9453125 50.25390625 C-5.84948182 56.59178381 -14.69167454 59.75279091 -23.9296875 59.50390625 C-33.37890669 58.66101815 -41.71510904 55.22326071 -48.3046875 48.31640625 C-55.96418065 38.85832767 -57.08299548 29.31329944 -55.9296875 17.50390625 C-54.09789915 8.90594967 -48.81905872 1.7794654 -41.5390625 -3.09765625 C-27.48836183 -10.65322171 -12.69217636 -9.84029058 0 0 Z M-33.3671875 17.56640625 C-35.65947178 21.8759007 -35.69339367 25.72483774 -34.9296875 30.50390625 C-32.97021224 34.18771973 -31.2171422 35.33577237 -27.6171875 37.44140625 C-23.12317031 38.73629256 -21.17823414 38.3921492 -16.9296875 36.50390625 C-13.87025506 33.92038553 -11.07805651 31.40836089 -9.9296875 27.50390625 C-10.1213021 22.23450488 -11.08014157 19.1508445 -14.9296875 15.50390625 C-22.04116663 11.55132075 -27.20794944 12.35474327 -33.3671875 17.56640625 Z " fill="#12b8c8" transform="translate(157.9296875,44.49609375)"/>
<path d="M0 0 C1.77176102 -0.00788544 1.77176102 -0.00788544 3.57931519 -0.01593018 C6.80665817 -0.02684672 10.03363006 -0.02432293 13.26096725 -0.01479292 C16.64542138 -0.00717426 20.0298515 -0.01424804 23.41430664 -0.01895142 C29.09688743 -0.02440257 34.77935108 -0.01723425 40.46191406 -0.00292969 C47.0228454 0.0133957 53.58349701 0.00810673 60.14442158 -0.0084089 C65.78707675 -0.0220421 71.42964793 -0.02393451 77.07231426 -0.0160929 C80.43824025 -0.01142641 83.80403495 -0.01076314 87.16995239 -0.02070236 C90.92338975 -0.02832158 94.67629013 -0.01670495 98.4296875 0 C99.53947968 -0.00607269 100.64927185 -0.01214539 101.79269409 -0.0184021 C107.33252935 0.02726977 111.47071971 0.18011968 116.21484375 3.38818359 C119.02091061 6.5563236 119.21484375 8.10954554 119.21484375 12.38818359 C118.89169205 15.7274178 117.46500677 17.97937436 115.04946899 20.30451584 C110.88763348 22.76280914 105.66172201 22.07564872 100.9765625 22.03515625 C99.7354068 22.04391785 98.4942511 22.05267944 97.21548462 22.06170654 C93.81832207 22.07992702 90.42268471 22.07568054 87.02560806 22.05981112 C83.46716545 22.04713267 79.90878703 22.0588976 76.3503418 22.06674194 C70.37504403 22.07583293 64.40005548 22.06386539 58.42480469 22.04003906 C51.52119129 22.0128284 44.61831624 22.02164298 37.71472073 22.04917109 C31.78246723 22.07187719 25.85043573 22.07505505 19.91815281 22.06197774 C16.37722741 22.0541913 12.83664882 22.05311887 9.29574585 22.06966019 C5.34791469 22.08681497 1.40090738 22.06302453 -2.546875 22.03515625 C-3.71793793 22.0452774 -4.88900085 22.05539856 -6.09555054 22.06582642 C-13.99446361 21.96238818 -13.99446361 21.96238818 -17.98754883 19.06259155 C-20.26759771 15.6704266 -20.78515625 13.4735624 -20.78515625 9.38818359 C-19.58473124 5.71629534 -18.58602009 3.94155 -15.40063477 1.74057007 C-10.24066861 -0.18953916 -5.4666789 -0.02991322 0 0 Z " fill="#12b8c8" transform="translate(221.78515625,231.61181640625)"/>
<path d="M0 0 C1.77176102 -0.00788544 1.77176102 -0.00788544 3.57931519 -0.01593018 C6.80665817 -0.02684672 10.03363006 -0.02432293 13.26096725 -0.01479292 C16.64542138 -0.00717426 20.0298515 -0.01424804 23.41430664 -0.01895142 C29.09688743 -0.02440257 34.77935108 -0.01723425 40.46191406 -0.00292969 C47.0228454 0.0133957 53.58349701 0.00810673 60.14442158 -0.0084089 C65.78707675 -0.0220421 71.42964793 -0.02393451 77.07231426 -0.0160929 C80.43824025 -0.01142641 83.80403495 -0.01076314 87.16995239 -0.02070236 C90.92338975 -0.02832158 94.67629013 -0.01670495 98.4296875 0 C99.53947968 -0.00607269 100.64927185 -0.01214539 101.79269409 -0.0184021 C107.33252935 0.02726977 111.47071971 0.18011968 116.21484375 3.38818359 C119.02091061 6.5563236 119.21484375 8.10954554 119.21484375 12.38818359 C118.89169205 15.7274178 117.46500677 17.97937436 115.04946899 20.30451584 C110.88763348 22.76280914 105.66172201 22.07564872 100.9765625 22.03515625 C99.7354068 22.04391785 98.4942511 22.05267944 97.21548462 22.06170654 C93.81832207 22.07992702 90.42268471 22.07568054 87.02560806 22.05981112 C83.46716545 22.04713267 79.90878703 22.0588976 76.3503418 22.06674194 C70.37504403 22.07583293 64.40005548 22.06386539 58.42480469 22.04003906 C51.52119129 22.0128284 44.61831624 22.02164298 37.71472073 22.04917109 C31.78246723 22.07187719 25.85043573 22.07505505 19.91815281 22.06197774 C16.37722741 22.0541913 12.83664882 22.05311887 9.29574585 22.06966019 C5.34791469 22.08681497 1.40090738 22.06302453 -2.546875 22.03515625 C-3.71793793 22.0452774 -4.88900085 22.05539856 -6.09555054 22.06582642 C-13.99446361 21.96238818 -13.99446361 21.96238818 -17.98754883 19.06259155 C-20.26759771 15.6704266 -20.78515625 13.4735624 -20.78515625 9.38818359 C-19.58473124 5.71629534 -18.58602009 3.94155 -15.40063477 1.74057007 C-10.24066861 -0.18953916 -5.4666789 -0.02991322 0 0 Z " fill="#12b8c8" transform="translate(221.78515625,76.61181640625)"/>
<path d="M0 0 C3.02182284 2.05741129 4.69011377 3.49949825 5.4453125 7.15625 C5.65056702 11.26134032 5.33688603 13.46098235 3.125 17 C-0.38583817 20.30431828 -3.06429794 20.38948117 -7.73828125 20.359375 C-11.32520929 19.78943134 -12.86838894 17.79773951 -15 15 C-16.74989713 11.50020575 -15.97392321 7.69827598 -15 4 C-10.37305971 -0.87046346 -6.43531829 -1.55335269 0 0 Z " fill="#12b8c8" transform="translate(365,233)"/>
<path d="M0 0 C3.02182284 2.05741129 4.69011377 3.49949825 5.4453125 7.15625 C5.65056702 11.26134032 5.33688603 13.46098235 3.125 17 C-0.38583817 20.30431828 -3.06429794 20.38948117 -7.73828125 20.359375 C-11.32520929 19.78943134 -12.86838894 17.79773951 -15 15 C-16.74989713 11.50020575 -15.97392321 7.69827598 -15 4 C-10.37305971 -0.87046346 -6.43531829 -1.55335269 0 0 Z " fill="#12b8c8" transform="translate(365,78)"/>
</svg>
