<?xml version="1.0" encoding="UTF-8"?>
<svg version="1.1" xmlns="http://www.w3.org/2000/svg" width="512" height="512">
<path d="M0 0 C1.01790619 0.00215515 2.03581238 0.0043103 3.08456421 0.00653076 C17.69363523 0.05620146 32.02575853 0.30709809 46.375 3.3125 C47.34985352 3.51117676 48.32470703 3.70985352 49.32910156 3.91455078 C96.42773222 13.76674005 139.53235483 34.75270749 174.65625 67.8046875 C176.57943486 69.57865974 178.49453578 71.25450639 180.515625 72.90625 C182.8100781 74.83710124 184.71239466 76.65243993 186.625 78.9375 C188.56625892 81.22632056 190.51872424 83.46384213 192.5859375 85.640625 C222.41811846 117.11405863 252.64902785 169.79577197 251.703125 214.33203125 C251.18422545 217.46396069 249.63718583 219.18338392 247.375 221.3125 C243.87619258 223.06190371 240.19296141 222.85508724 236.375 222.3125 C229.69513464 218.246495 230.43152693 213.53860773 228.375 205.3125 C226.395 197.0625 224.415 188.8125 222.375 180.3125 C75.855 180.3125 -70.665 180.3125 -221.625 180.3125 C-227.48787174 204.70218581 -227.48787174 204.70218581 -231.625 229.3125 C-231.80804688 230.61316406 -231.99109375 231.91382813 -232.1796875 233.25390625 C-235.80236253 267.00407733 -229.77695522 299.70467913 -221.625 332.3125 C-75.105 332.3125 71.415 332.3125 222.375 332.3125 C225.84 317.4625 225.84 317.4625 229.375 302.3125 C232.93463303 291.63360092 232.93463303 291.63360092 237.375 289.3125 C241.80127318 288.66867845 243.82119886 289.0048327 247.75 291.1875 C250.375 293.3125 250.375 293.3125 251.375 295.3125 C252.1285921 303.04020917 250.57279503 310.21889449 248.75 317.6875 C248.47712158 318.82654785 248.20424316 319.9655957 247.9230957 321.13916016 C237.50748351 363.90997144 216.96623522 401.55061235 186.375 433.3125 C185.74287598 433.97185547 185.11075195 434.63121094 184.45947266 435.31054688 C175.31502521 444.79880305 166.01765991 453.5387044 155.375 461.3125 C154.22394983 462.17056152 153.07290823 463.02863451 151.921875 463.88671875 C143.73224019 469.92427396 135.22961724 475.30707302 126.375 480.3125 C125.66778809 480.7146875 124.96057617 481.116875 124.23193359 481.53125 C101.11239063 494.54775099 75.96330247 503.281052 50 508.625 C49.28948486 508.77235596 48.57896973 508.91971191 47.84692383 509.0715332 C32.20458949 512.05794017 16.56823907 512.68730954 0.6875 512.625 C-0.27989105 512.62317719 -1.2472821 512.62135437 -2.24398804 512.61947632 C-16.57690977 512.57404826 -30.52273917 512.06516072 -44.625 509.3125 C-45.52202637 509.15152832 -46.41905273 508.99055664 -47.34326172 508.82470703 C-94.75622121 500.2453761 -138.86713722 477.79251132 -173.90625 444.8203125 C-175.82943486 443.04634026 -177.74453578 441.37049361 -179.765625 439.71875 C-182.0600781 437.78789876 -183.96239466 435.97256007 -185.875 433.6875 C-187.81625892 431.39867944 -189.76872424 429.16115787 -191.8359375 426.984375 C-222.77366741 394.34456933 -241.29608539 352.28153798 -249.875 308.625 C-250.12137207 307.37936279 -250.36774414 306.13372559 -250.62158203 304.8503418 C-253.65281602 288.81748119 -255.0150469 272.99619276 -254.9375 256.6875 C-254.93534485 255.86178497 -254.9331897 255.03606995 -254.93096924 254.18533325 C-254.87347036 240.37214131 -254.09849627 226.92775218 -251.625 213.3125 C-251.42100586 212.17554688 -251.21701172 211.03859375 -251.00683594 209.8671875 C-242.16902037 161.80593718 -222.74724221 119.76394157 -189.6484375 83.55859375 C-188.05088072 81.78524404 -186.54116508 79.99566018 -185.0625 78.125 C-182.54539237 75.22064505 -179.88796731 72.82595548 -176.96484375 70.34375 C-174.27790299 68.01118039 -171.71189317 65.56798188 -169.125 63.125 C-136.05494413 32.52569543 -93.02728716 12.9736117 -49.1875 4 C-48.46860596 3.85264404 -47.74971191 3.70528809 -47.0090332 3.5534668 C-31.36274391 0.57960912 -15.88931954 -0.06050362 0 0 Z M-26.89111328 36.81689453 C-37.72499386 50.4186461 -45.01084735 65.95440031 -50.625 82.3125 C-17.14459271 86.34581222 17.93052744 87.63866421 51.375 82.3125 C45.91231847 66.39574559 39.00310314 51.4913479 28.375 38.3125 C27.75109375 37.51328125 27.1271875 36.7140625 26.484375 35.890625 C20.86349959 29.08159706 12.93433147 22.01136332 3.80859375 21.0390625 C-9.4299915 20.5902969 -18.49647762 26.84239686 -26.89111328 36.81689453 Z M45.375 25.3125 C47.18483094 28.55511377 49.00876362 31.74978857 51.03515625 34.86328125 C55.64022264 42.00255255 59.46540557 49.3387013 63.125 57 C63.58463135 57.96164063 64.0442627 58.92328125 64.51782227 59.9140625 C67.36744818 65.96284078 69.96858238 72.07436437 72.375 78.3125 C79.6026682 77.71895968 86.27793698 76.21906458 93.25 74.25 C94.33756592 73.94416992 95.42513184 73.63833984 96.5456543 73.32324219 C113.98569142 68.47751642 113.98569142 68.47751642 129.375 59.3125 C106.7775619 43.69481667 73.5853745 25.3125 45.375 25.3125 Z M-52.17578125 26.24609375 C-53.09029053 26.47828613 -54.0047998 26.71047852 -54.94702148 26.94970703 C-55.93387939 27.21380371 -56.9207373 27.47790039 -57.9375 27.75 C-58.96496338 28.02440918 -59.99242676 28.29881836 -61.05102539 28.58154297 C-84.8360855 35.10692171 -108.71810219 44.4696376 -128.625 59.3125 C-115.50953678 70.05197351 -88.4579931 78.3125 -71.625 78.3125 C-71.37443848 77.71526123 -71.12387695 77.11802246 -70.86572266 76.50268555 C-55.7398325 40.62928756 -55.7398325 40.62928756 -44.625 26.3125 C-47.93573666 25.20892111 -48.89125881 25.40981313 -52.17578125 26.24609375 Z M-148.625 73.3125 C-170.03972676 93.00920383 -170.03972676 93.00920383 -188.625 115.3125 C-189.08503418 115.94414063 -189.54506836 116.57578125 -190.01904297 117.2265625 C-195.23956809 124.46357626 -200.10252296 131.8580518 -204.5 139.625 C-204.84498535 140.2339209 -205.1899707 140.8428418 -205.54541016 141.47021484 C-208.58036984 146.97484177 -211.00140514 152.54059131 -213.625 158.3125 C-173.035 158.3125 -132.445 158.3125 -90.625 158.3125 C-88.645 147.4225 -86.665 136.5325 -84.625 125.3125 C-80.875 109.89583333 -80.875 109.89583333 -79.08056641 103.33251953 C-78.51499984 101.16987567 -78.51499984 101.16987567 -78.625 98.3125 C-79.8625 98.044375 -81.1 97.77625 -82.375 97.5 C-103.4805037 92.78603848 -123.34453324 86.13208656 -142.625 76.3125 C-143.78773438 75.73113281 -144.95046875 75.14976563 -146.1484375 74.55078125 C-146.96570313 74.14214844 -147.78296875 73.73351562 -148.625 73.3125 Z M148.375 73.3125 C147.42625 73.85777344 146.4775 74.40304688 145.5 74.96484375 C124.92992704 86.48233133 102.47249183 93.79670153 79.375 98.3125 C80.88274268 107.16638518 82.85833744 115.86331045 84.98828125 124.5859375 C87.64516709 135.79166328 89.38663541 146.87940361 91.375 158.3125 C131.965 158.3125 172.555 158.3125 214.375 158.3125 C206.09437618 140.83118304 197.28132954 125.30792879 185.375 110.3125 C184.60414063 109.33667969 183.83328125 108.36085937 183.0390625 107.35546875 C177.31161205 100.27826564 171.03688583 93.77056323 164.625 87.3125 C163.4186792 86.09228149 163.4186792 86.09228149 162.18798828 84.84741211 C157.82751988 80.50995052 153.50306455 76.71292783 148.375 73.3125 Z M-57.625 102.3125 C-61.43764836 115.67577468 -64.95655897 129.03124564 -67.5625 142.6875 C-67.77350342 143.7914209 -67.98450684 144.8953418 -68.2019043 146.03271484 C-68.97684027 150.22861338 -69.625 154.03194149 -69.625 158.3125 C-23.425 158.3125 22.775 158.3125 70.375 158.3125 C69.56114026 149.97291175 69.56114026 149.97291175 68.140625 141.84375 C67.89844238 140.70325195 67.65625977 139.56275391 67.40673828 138.38769531 C67.14876465 137.20788086 66.89079102 136.02806641 66.625 134.8125 C66.36058105 133.58885742 66.09616211 132.36521484 65.82373047 131.10449219 C63.69156076 121.39935586 61.22055491 111.8312589 58.375 102.3125 C57.47128662 102.39552368 57.47128662 102.39552368 56.54931641 102.48022461 C49.4938641 103.12363794 42.43585213 103.73137428 35.375 104.3125 C34.23248779 104.40797119 34.23248779 104.40797119 33.06689453 104.50537109 C6.89267005 106.6000639 -19.50716802 105.54344858 -45.625 103.3125 C-47.89841447 103.12342079 -50.17185102 102.93460686 -52.4453125 102.74609375 C-54.17188845 102.60172327 -55.89845627 102.45725536 -57.625 102.3125 Z M-213.625 354.3125 C-205.34437618 371.79381696 -196.53132954 387.31707121 -184.625 402.3125 C-183.85414063 403.28832031 -183.08328125 404.26414062 -182.2890625 405.26953125 C-176.56161205 412.34673436 -170.28688583 418.85443677 -163.875 425.3125 C-162.6686792 426.53271851 -162.6686792 426.53271851 -161.43798828 427.77758789 C-157.07751988 432.11504948 -152.75306455 435.91207217 -147.625 439.3125 C-146.93019531 438.83941406 -146.23539062 438.36632812 -145.51953125 437.87890625 C-125.64100324 424.95408386 -102.57754409 417.62848433 -79.625 412.3125 C-80.34284029 404.0270663 -82.20230262 396.19887223 -84.18945312 388.13671875 C-86.88080127 376.8919512 -88.62657896 365.80342097 -90.625 354.3125 C-131.215 354.3125 -171.805 354.3125 -213.625 354.3125 Z M-69.625 354.3125 C-68.80180177 362.70815757 -68.80180177 362.70815757 -67.35546875 370.88671875 C-67.10812988 372.04268555 -66.86079102 373.19865234 -66.60595703 374.38964844 C-66.34411621 375.58106445 -66.08227539 376.77248047 -65.8125 378 C-65.54550293 379.23137695 -65.27850586 380.46275391 -65.00341797 381.73144531 C-63.1174323 390.33008835 -61.07016247 398.85511451 -58.625 407.3125 C-53.28564471 407.39625981 -48.14499445 407.22869399 -42.84375 406.6137085 C-29.70846519 405.09422675 -16.62335173 405.00731662 -3.4140625 405.05175781 C0.36995459 405.0624857 4.15349712 405.05179336 7.9375 405.0390625 C20.69868588 405.03281681 33.24181612 405.41280383 45.921875 406.88378906 C50.42464838 407.3836825 54.84701979 407.38353156 59.375 407.3125 C64.53469929 387.41385131 64.53469929 387.41385131 68.8125 367.3125 C68.97588867 366.45438721 69.13927734 365.59627441 69.30761719 364.7121582 C69.96381605 361.12096746 70.375 357.99280357 70.375 354.3125 C24.175 354.3125 -22.025 354.3125 -69.625 354.3125 Z M91.375 354.3125 C89.395 365.2025 87.415 376.0925 85.375 387.3125 C82.5 399.0625 82.5 399.0625 81.2578125 403.609375 C80.50743988 406.75695571 80.29753955 409.12771035 80.375 412.3125 C81.25514771 412.52229492 81.25514771 412.52229492 82.15307617 412.73632812 C106.16670376 418.53633836 127.94870313 427.02620684 149.375 439.3125 C170.78972676 419.61579617 170.78972676 419.61579617 189.375 397.3125 C189.83503418 396.68085938 190.29506836 396.04921875 190.76904297 395.3984375 C195.98956809 388.16142374 200.85252296 380.7669482 205.25 373 C205.59498535 372.3910791 205.9399707 371.7821582 206.29541016 371.15478516 C209.33036984 365.65015823 211.75140514 360.08440869 214.375 354.3125 C173.785 354.3125 133.195 354.3125 91.375 354.3125 Z M-40.125 426.25 C-41.36286255 426.36178589 -41.36286255 426.36178589 -42.62573242 426.47583008 C-46.32966649 426.86402743 -48.47379946 427.21169964 -51.625 429.3125 C-37.08135527 465.56886587 -37.08135527 465.56886587 -8.328125 490.42578125 C-1.556123 492.64723277 5.01254603 492.29333745 11.5 489.375 C33.42737951 476.76500539 44.13004815 450.97948982 52.375 428.3125 C50.7933067 427.99180234 49.20948591 427.6816025 47.625 427.375 C46.74328125 427.20097656 45.8615625 427.02695312 44.953125 426.84765625 C17.19874171 422.69661857 -12.28189825 423.66404033 -40.125 426.25 Z M-81.9140625 433.46484375 C-82.92919922 433.74279785 -83.94433594 434.02075195 -84.99023438 434.30712891 C-86.60381836 434.7738501 -86.60381836 434.7738501 -88.25 435.25 C-89.91385742 435.72445557 -89.91385742 435.72445557 -91.61132812 436.20849609 C-105.01269075 440.1483734 -117.51405116 445.36818109 -129.625 452.3125 C-108.30396713 470.32231185 -74.83742557 483.0903097 -47.625 487.3125 C-46.635 486.9825 -45.645 486.6525 -44.625 486.3125 C-45.20765625 485.51972656 -45.7903125 484.72695313 -46.390625 483.91015625 C-56.78236573 469.29683798 -65.19364717 452.53491268 -70.46484375 435.375 C-71.4405017 433.08897297 -71.4405017 433.08897297 -73.86694336 432.61157227 C-76.92368343 432.280112 -78.95723261 432.65167584 -81.9140625 433.46484375 Z M73.375 432.3125 C73.08729736 433.02212891 72.79959473 433.73175781 72.50317383 434.46289062 C69.2599141 442.36532754 65.7484377 450.10753154 62.0625 457.8125 C61.53205078 458.94558594 61.00160156 460.07867187 60.45507812 461.24609375 C57.15274789 468.1513256 53.4627348 474.49019218 49.08520508 480.77148438 C47.64625042 482.90947725 46.45389447 484.97849505 45.375 487.3125 C53.83053021 486.11051619 61.85159456 484.23299434 70 481.6875 C71.13590576 481.33341064 72.27181152 480.97932129 73.44213867 480.61450195 C93.43478093 474.22833654 112.75237799 464.70617226 130.375 453.3125 C127.42468276 450.16833001 124.11162377 448.44845667 120.25 446.625 C119.52369385 446.28194824 118.7973877 445.93889648 118.04907227 445.58544922 C105.0124071 439.66788772 87.86836873 432.3125 73.375 432.3125 Z " fill="#12B8C8" transform="translate(255.625,-0.3125)"/>
<path d="M0 0 C0.96457626 -0.01268417 1.92915253 -0.02536835 2.92295837 -0.03843689 C4.47618553 -0.03403343 4.47618553 -0.03403343 6.06079102 -0.02954102 C7.13087906 -0.03478287 8.2009671 -0.04002472 9.30348206 -0.04542542 C11.56543104 -0.05184581 13.82741341 -0.05050841 16.08935547 -0.04199219 C19.54853862 -0.033487 23.00606808 -0.06223743 26.46508789 -0.09399414 C28.6636551 -0.09560637 30.86222524 -0.09502821 33.06079102 -0.09204102 C34.09425156 -0.10327499 35.1277121 -0.11450897 36.19248962 -0.12608337 C43.37110065 -0.05649546 43.37110065 -0.05649546 47.25634766 2.31005859 C50.41135901 5.84138215 50.51622063 8.53942545 50.48657227 13.14233398 C49.9166286 16.72926203 47.92493678 18.27244168 45.12719727 20.40405273 C42.06125132 21.9370257 38.85607874 21.52536728 35.49438477 21.50170898 C34.74254913 21.50029404 33.9907135 21.49887909 33.21609497 21.49742126 C30.81142217 21.49181739 28.40684199 21.4792643 26.00219727 21.46655273 C24.37329236 21.46153823 22.74438599 21.45697524 21.11547852 21.45288086 C17.11932025 21.44269697 13.12336262 21.42312245 9.12719727 21.40405273 C9.12719727 30.64405273 9.12719727 39.88405273 9.12719727 49.40405273 C11.37918945 49.35764648 13.63118164 49.31124023 15.95141602 49.26342773 C18.14239246 49.23219633 20.33334372 49.20792921 22.52441406 49.18432617 C24.04243137 49.1642607 25.56037185 49.13700139 27.078125 49.10229492 C29.26524848 49.05354881 31.45134679 49.03103468 33.63891602 49.01342773 C35.61057739 48.98200684 35.61057739 48.98200684 37.62207031 48.94995117 C41.67470512 49.47498431 43.27381762 50.54235807 46.12719727 53.40405273 C47.8648527 56.8793636 47.72305079 60.61285283 47.12719727 64.40405273 C44.59751252 67.68580592 43.04988395 69.09649051 39.12719727 70.40405273 C36.84334557 70.48783901 34.55709626 70.51135189 32.27172852 70.50170898 C31.61009201 70.50029404 30.94845551 70.49887909 30.26676941 70.49742126 C28.15769899 70.49183269 26.0487355 70.47928238 23.93969727 70.46655273 C22.50805818 70.46153625 21.07641742 70.4569736 19.64477539 70.45288086 C16.13884187 70.44271873 12.63313899 70.42314135 9.12719727 70.40405273 C9.12719727 79.31405273 9.12719727 88.22405273 9.12719727 97.40405273 C11.35598633 97.36924805 13.58477539 97.33444336 15.88110352 97.29858398 C18.05890626 97.27513413 20.23669452 97.25694862 22.41455078 97.23925781 C23.91884743 97.22424552 25.42310087 97.2038292 26.92724609 97.17773438 C29.09947422 97.14101458 31.27111978 97.12425112 33.44360352 97.11108398 C34.7475708 97.09537354 36.05153809 97.07966309 37.39501953 97.06347656 C41.73891434 97.45987437 44.29057783 98.36764508 48.12719727 100.40405273 C50.22782482 103.55499406 50.47033013 104.62648934 50.56469727 108.27905273 C50.62463867 109.54362305 50.62463867 109.54362305 50.68579102 110.83374023 C49.83082518 114.76777885 48.35429671 115.98936127 45.12719727 118.40405273 C41.30790125 119.15703248 37.54118518 119.10470294 33.65844727 119.06811523 C31.98884949 119.07529068 31.98884949 119.07529068 30.28552246 119.08261108 C27.93536972 119.08600916 25.58516964 119.07681337 23.23510742 119.0559082 C19.63947064 119.02914409 16.04695579 119.05566207 12.45141602 119.08764648 C10.16625288 119.08434237 7.88109169 119.07793612 5.59594727 119.06811523 C4.52187622 119.07823639 3.44780518 119.08835754 2.34118652 119.0987854 C-5.09828505 118.98206353 -5.09828505 118.98206353 -9.02709961 116.05004883 C-11.38163418 112.67459304 -11.99716121 110.22146286 -12.01324463 106.20462036 C-12.02180984 104.9219075 -12.02180984 104.9219075 -12.0305481 103.61328125 C-12.03166595 102.67814697 -12.03278381 101.7430127 -12.03393555 100.77954102 C-12.03890045 99.7922702 -12.04386536 98.80499939 -12.04898071 97.78781128 C-12.06360476 94.51665555 -12.07040444 91.2455483 -12.07592773 87.97436523 C-12.08167858 85.70376585 -12.08743632 83.43316649 -12.09320068 81.16256714 C-12.10371109 76.39947279 -12.10955363 71.63639533 -12.11303711 66.87329102 C-12.11852467 60.76766943 -12.14255829 54.66227053 -12.17100906 48.55671883 C-12.18962417 43.86586859 -12.19484043 39.17507214 -12.19637299 34.48418808 C-12.19940212 32.23311011 -12.2074394 29.98203314 -12.22055817 27.73099136 C-12.23759626 24.58293915 -12.23574381 21.43543302 -12.22924805 18.28735352 C-12.23846283 17.3562677 -12.24767761 16.42518188 -12.25717163 15.46588135 C-12.22592757 10.63672425 -12.09754457 7.26726087 -8.87280273 3.40405273 C-5.95160063 0.63132414 -3.99047196 0.02546963 0 0 Z " fill="#12B8C8" transform="translate(377.872802734375,197.595947265625)"/>
<path d="M0 0 C3.08591746 3.32817292 4.76046022 6.39325205 6.21069336 10.66967773 C6.59466782 11.78531601 6.97864227 12.90095428 7.37425232 14.05039978 C7.77539749 15.24935379 8.17654266 16.4483078 8.58984375 17.68359375 C9.24170859 19.59009114 9.89357348 21.4965885 10.54544163 23.40308475 C11.45473704 26.07123627 12.35442072 28.7425927 13.25445557 31.41387939 C14.37839238 34.74370917 15.51255417 38.07004709 16.64648438 41.39648438 C17.93031502 45.16277416 19.21258773 48.92952336 20.48680115 52.69908142 C23.23878451 60.83153752 26.08958974 68.92314361 29 77 C29.36649658 75.92556641 29.73299316 74.85113281 30.1105957 73.74414062 C30.35577942 73.02546814 30.60096313 72.30679565 30.85357666 71.56634521 C31.41164256 69.9305091 31.96962308 68.29464386 32.52752686 66.65875244 C34.09199251 62.07254142 35.65894564 57.48720183 37.23022461 52.90332031 C41.38358981 40.78035715 41.38358981 40.78035715 45.4445343 28.6262207 C46.41563335 25.68434631 47.39704222 22.7459635 48.37948608 19.80786133 C48.83164858 18.44553517 49.27852925 17.08144357 49.71987915 15.71557617 C50.33233173 13.82159927 50.96456347 11.93405284 51.59765625 10.046875 C51.94320557 8.99338867 52.28875488 7.93990234 52.64477539 6.85449219 C54.25146529 3.4703419 56.1817448 1.44392333 59 -1 C62.08544091 -1.85060956 64.87224998 -1.62894973 68 -1 C70.87029869 0.79393668 72.49131638 1.98263276 74 5 C74.46082616 11.56941815 73.15105026 16.71947334 71.06591797 22.91674805 C70.7536879 23.87548828 70.44145782 24.83422852 70.11976624 25.82202148 C69.08964358 28.97282079 68.04188681 32.1173919 66.9921875 35.26171875 C66.26620932 37.4577513 65.54072231 39.65394627 64.81570435 41.85029602 C63.29555011 46.44506147 61.7660174 51.03657829 60.23046875 55.6262207 C58.26543331 61.50371755 56.32932099 67.39029108 54.40078545 73.27984905 C52.91127133 77.81485127 51.40385849 82.34375096 49.89126968 86.87110329 C49.16988314 89.03915931 48.45468371 91.20928432 47.74584579 93.38147545 C46.75255919 96.41801439 45.73478041 99.44525166 44.71044922 102.47143555 C44.4234465 103.36661392 44.13644379 104.2617923 43.84074402 105.18409729 C41.6656426 111.48549799 39.1097753 114.94511235 33 118 C27.98646089 118.37838031 24.99517885 118.13135639 21 115 C18.01168396 111.63085999 16.26367632 108.6757672 14.82446289 104.41992188 C14.44587128 103.31724472 14.06727966 102.21456757 13.67721558 101.07847595 C13.08095871 99.29166161 13.08095871 99.29166161 12.47265625 97.46875 C11.82036326 95.55687457 11.1680689 93.6449996 10.51571274 91.73314571 C9.59260676 89.01911818 8.67909726 86.30189329 7.76507187 83.58479691 C6.59345493 80.10816559 5.411566 76.63503559 4.22973633 73.16186523 C3.99552695 72.47351436 3.76131758 71.78516348 3.52001095 71.07595348 C3.04806534 69.68891453 2.57608407 68.30188771 2.10406685 66.91487312 C1.39891696 64.84125368 0.69518365 62.76715771 -0.00831604 60.69297791 C-2.70345974 52.75413485 -5.44778805 44.83490461 -8.2734375 36.94140625 C-8.58440872 36.07063446 -8.89537994 35.19986267 -9.21577454 34.30270386 C-10.35122532 31.12745382 -11.48787808 27.95280976 -12.64303589 24.78466797 C-13.40141482 22.70423875 -14.14887206 20.62017062 -14.89453125 18.53515625 C-15.30550049 17.404729 -15.71646973 16.27430176 -16.13989258 15.10961914 C-17.46379663 10.32319679 -17.60848211 7.21696422 -15.375 2.75 C-10.73495486 -2.62268385 -6.35940672 -2.70863619 0 0 Z " fill="#12B8C8" transform="translate(266,199)"/>
<path d="M0 0 C0.66 0.12503906 1.32 0.25007812 2 0.37890625 C5.20106002 2.07321731 6.28136897 4.27857515 8 7.4375 C8.54466355 10.45846293 8.50720994 13.40945471 8.45410156 16.47216797 C8.45468567 17.36061905 8.45526978 18.24907013 8.45587158 19.16444397 C8.45309586 22.08659611 8.42202815 25.00771464 8.390625 27.9296875 C8.38316079 29.96134891 8.37746871 31.99301753 8.37347412 34.02468872 C8.35823204 39.36120628 8.31896227 44.6972855 8.2746582 50.03363037 C8.23367487 55.48329743 8.21545655 60.93303561 8.1953125 66.3828125 C8.15246684 77.06790048 8.08423258 87.75266373 8 98.4375 C9.23302856 98.4060791 9.23302856 98.4060791 10.4909668 98.37402344 C14.22301964 98.29076691 17.95487694 98.23880753 21.6875 98.1875 C22.98107422 98.15398437 24.27464844 98.12046875 25.60742188 98.0859375 C26.85458984 98.07304687 28.10175781 98.06015625 29.38671875 98.046875 C30.53358154 98.02592773 31.68044434 98.00498047 32.86206055 97.98339844 C36.66442415 98.53365101 38.28125209 99.78021191 41 102.4375 C42.73631636 105.91013273 42.60190402 109.64943013 42 113.4375 C39.81840855 116.19319447 38.12822506 117.87338747 35 119.4375 C32.08060339 119.56117149 29.18605356 119.62595088 26.265625 119.640625 C24.95945221 119.64917511 24.95945221 119.64917511 23.62689209 119.65789795 C21.78089617 119.66735443 19.93488332 119.6738845 18.08886719 119.67773438 C15.27508698 119.6874137 12.46204537 119.71841969 9.6484375 119.75 C7.854171 119.75653277 6.05989928 119.76178216 4.265625 119.765625 C3.00906097 119.7841452 3.00906097 119.7841452 1.72711182 119.80303955 C-3.22984987 119.78430177 -6.76898867 119.31173132 -11 116.4375 C-12.80073957 113.55337104 -13.25378995 111.34541707 -13.27415466 107.97268677 C-13.28412979 107.08395874 -13.29410492 106.19523071 -13.30438232 105.27957153 C-13.305047 104.31220062 -13.30571167 103.34482971 -13.30639648 102.34814453 C-13.31472 101.3233197 -13.32304352 100.29849487 -13.33161926 99.24261475 C-13.35573225 95.85180879 -13.36449279 92.46119513 -13.37109375 89.0703125 C-13.38005863 86.71385642 -13.38918045 84.35740093 -13.39845276 82.00094604 C-13.41494853 77.05969865 -13.42264404 72.11851906 -13.42553711 67.17724609 C-13.43092337 60.84625529 -13.46861184 54.51590177 -13.51428127 48.18509102 C-13.54402494 43.31747103 -13.55126008 38.45000506 -13.55226326 33.58230209 C-13.55647038 31.24830072 -13.56892424 28.91429909 -13.58978081 26.58038712 C-13.61663976 23.3149961 -13.61188528 20.05108965 -13.59936523 16.78564453 C-13.61419952 15.82232208 -13.62903381 14.85899963 -13.64431763 13.8664856 C-13.5958366 9.42553309 -13.43710686 6.38513331 -10.59144592 2.84762573 C-6.97894612 -0.51211203 -4.74351791 -1.02837986 0 0 Z " fill="#12B8C8" transform="translate(115,197.5625)"/>
<path d="M0 0 C3.30116098 3.30116098 4.12110013 6.66130809 4.14717102 11.23066711 C4.15432632 12.09277802 4.16148163 12.95488892 4.16885376 13.84312439 C4.17288712 15.25749535 4.17288712 15.25749535 4.17700195 16.70043945 C4.18357315 17.69585754 4.19014435 18.69127563 4.19691467 19.71685791 C4.21664854 23.01566643 4.22830985 26.31442945 4.23828125 29.61328125 C4.24235678 30.73939505 4.2464323 31.86550884 4.25063133 33.0257473 C4.27149137 38.98485506 4.28579401 44.94393979 4.29516602 50.90307617 C4.30623675 57.06023061 4.34064485 63.21702429 4.38033772 69.37405109 C4.4064704 74.10697608 4.41485484 78.83981461 4.41844749 83.5728054 C4.42332124 85.84260688 4.43495754 88.1124043 4.45348549 90.38213539 C4.47780743 93.55884113 4.4769244 96.7346068 4.4699707 99.91137695 C4.48278076 100.84821823 4.49559082 101.78505951 4.50878906 102.75028992 C4.46311248 108.47692065 3.74135736 111.59993275 0 116 C-3.20785018 118.35242347 -6.09649252 118.4684209 -10 118 C-15.57894737 114.84210526 -15.57894737 114.84210526 -17 112 C-17.10223486 110.5819988 -17.14373637 109.15937748 -17.15390015 107.73773193 C-17.16250061 106.84333908 -17.17110107 105.94894623 -17.17996216 105.02745056 C-17.18422211 104.04353836 -17.18848206 103.05962616 -17.19287109 102.04589844 C-17.20104858 101.01161209 -17.20922607 99.97732574 -17.21765137 98.91169739 C-17.24253098 95.47759587 -17.25902812 92.04353576 -17.2734375 88.609375 C-17.27876118 87.43821388 -17.28408485 86.26705276 -17.28956985 85.06040192 C-17.31631276 78.8614009 -17.33568392 72.6624201 -17.35009766 66.46337891 C-17.36674696 60.05613864 -17.41152457 53.64941259 -17.4624691 47.24236679 C-17.49610503 42.31985881 -17.50767116 37.3974734 -17.51332474 32.47486115 C-17.52004741 30.11293865 -17.53529563 27.7510245 -17.55921555 25.38921356 C-17.59078968 22.08294132 -17.59091485 18.77806276 -17.58349609 15.47167969 C-17.59990143 14.49586441 -17.61630676 13.52004913 -17.63320923 12.5146637 C-17.59216669 8.0461702 -17.45730672 4.96422443 -14.5921936 1.40289307 C-9.83663973 -3.00537622 -5.76483863 -2.30593545 0 0 Z " fill="#12B8C8" transform="translate(210,199)"/>
<path d="M0 0 C2.8367179 1.70705148 3.34742379 2.91519108 5 6 C6.09244247 10.58825837 5.34642399 13.35334189 3.125 17.5 C0.64526085 20.08601369 -1.46769926 20.49243265 -5 20.6875 C-8.66257001 20.44733147 -9.92321747 20.05171068 -13.0625 17.9375 C-15.39595144 14.39968652 -16 12.2362654 -16 8 C-12.98830917 0.0190193 -7.99871021 -1.42652157 0 0 Z " fill="#12B8C8" transform="translate(506,246)"/>
</svg>
