<?xml version="1.0" encoding="UTF-8"?>
<svg version="1.1" xmlns="http://www.w3.org/2000/svg" width="512" height="512">
<path d="M0 0 C1.78199541 -0.00417667 3.56398815 -0.00965601 5.345976 -0.01631981 C10.22574834 -0.03074938 15.10535142 -0.02653746 19.98513293 -0.019153 C25.25450896 -0.01441748 30.52384858 -0.02693459 35.79321289 -0.03717041 C46.10975555 -0.05435621 56.4262373 -0.05519886 66.74279056 -0.04995751 C75.1291836 -0.04591416 83.51555866 -0.04736133 91.90195084 -0.05270576 C93.69315556 -0.0538284 93.69315556 -0.0538284 95.52054624 -0.05497371 C97.94652612 -0.05650521 100.37250601 -0.05804355 102.79848589 -0.05958868 C125.54288656 -0.07331294 148.28725282 -0.06787655 171.0316527 -0.05640347 C191.83222653 -0.04647126 212.6327114 -0.05941171 233.43327151 -0.08333766 C254.79992977 -0.10772929 276.1665466 -0.11733636 297.5332185 -0.11068493 C309.52552765 -0.10719285 321.51776838 -0.1094241 333.51006699 -0.12693596 C343.71884394 -0.14165869 353.9275043 -0.14229236 364.13627897 -0.12486505 C369.34284321 -0.11635334 374.54919919 -0.11420983 379.75575256 -0.1295166 C384.52650807 -0.14336831 389.29687698 -0.13859416 394.06761016 -0.11927737 C395.78891197 -0.11551856 397.51024479 -0.11843586 399.23151897 -0.12888902 C415.55899733 -0.22095525 428.88071821 3.3005494 441.22781372 14.57518005 C451.65833713 25.75790467 454.94134547 38.50376372 454.86549377 53.35420227 C454.87357208 55.26542096 454.87357208 55.26542096 454.88181359 57.21525013 C454.8961923 60.72685482 454.89204743 64.2382233 454.88464677 67.7498405 C454.87989849 71.54681613 454.89243959 75.34374188 454.90266418 79.14070129 C454.91982525 86.56963437 454.92069778 93.99848275 454.91545128 101.4274305 C454.91140324 107.46828782 454.91286066 113.5091202 454.91819954 119.54997635 C454.91894796 120.41106948 454.91969638 121.27216261 454.92046748 122.15934948 C454.92199903 123.90888937 454.92353737 125.65842925 454.92508245 127.40796913 C454.93879781 143.80015955 454.93337664 160.19230219 454.92189724 176.58449151 C454.91196641 191.56520483 454.92490465 206.54579461 454.94883143 221.52648889 C454.973242 236.92668526 454.98282546 252.32682413 454.97617871 267.72703946 C454.97269077 276.36587754 454.97489039 285.00462065 454.99242973 293.64344406 C455.00717624 300.99760781 455.00775528 308.3516097 454.99035882 315.70577036 C454.98186642 319.45417107 454.97965575 323.20228294 454.99501038 326.95066833 C455.01148508 331.02307478 454.99666489 335.09478902 454.97901917 339.16719055 C454.98862417 340.33939113 454.99822918 341.5115917 455.00812525 342.7193135 C454.88832139 356.20258646 450.31924371 367.87040689 441.22390747 377.86424255 C428.40770993 390.16614646 414.94173237 392.70040756 397.8821106 392.61473083 C396.30459602 392.61416604 394.72708092 392.61448461 393.14956665 392.61561584 C388.88566702 392.6161877 384.6218808 392.60446061 380.35800743 392.59046793 C375.89505977 392.57793255 371.43210928 392.57678786 366.96914673 392.57441711 C358.52622158 392.56821058 350.08334846 392.55181098 341.64044619 392.53171813 C332.0249733 392.50933337 322.40949787 392.49835923 312.79400539 392.48832726 C293.0219125 392.46744401 273.2498664 392.43228414 253.47781372 392.38768005 C253.64067871 393.05975494 253.8035437 393.73182983 253.97134399 394.42427063 C255.66096379 401.39855726 257.34741984 408.37360337 259.03201294 415.34910583 C259.66147328 417.95483566 260.29206713 420.56028733 260.9236145 423.16551208 C261.82922724 426.90311944 262.73193656 430.64141759 263.63406372 434.37986755 C263.91842285 435.55072906 264.20278198 436.72159058 264.49575806 437.92793274 C264.75602783 439.00890228 265.01629761 440.08987183 265.28445435 441.20359802 C265.51539795 442.158461 265.74634155 443.11332397 265.98428345 444.09712219 C266.47781372 446.38768005 266.47781372 446.38768005 266.47781372 448.38768005 C267.78234497 448.32967224 269.08687622 448.27166443 270.43093872 448.2118988 C282.54574195 447.8337824 292.25949041 448.44556773 302.29031372 456.01268005 C309.22382524 462.58931966 313.91538519 471.21709961 314.78421021 480.74925232 C314.85413547 484.4832614 314.89861633 488.21553072 314.91531372 491.95018005 C314.94818481 493.25148865 314.98105591 494.55279724 315.0149231 495.89353943 C315.02201294 497.1510199 315.02910278 498.40850037 315.03640747 499.7040863 C315.04986206 500.84305359 315.06331665 501.98202087 315.07717896 503.15550232 C314.32688627 507.20158171 312.59409277 509.78120016 309.47781372 512.38768005 C306.2147522 513.14958191 306.2147522 513.14958191 302.47195435 513.16404724 C301.44415108 513.17981812 301.44415108 513.17981812 300.39558411 513.19590759 C298.1408038 513.22221933 295.88887035 513.20487337 293.63406372 513.18455505 C292.06134502 513.18859934 290.48862997 513.19442456 288.91592407 513.20195007 C285.62385256 513.2107844 282.33275952 513.19797814 279.040802 513.16990662 C274.8267962 513.13571838 270.61508292 513.155408 266.40116119 513.1913414 C263.15474257 513.21305303 259.90886499 513.20610907 256.66242981 513.19057465 C255.10913317 513.18658031 253.55578694 513.19145556 252.00254822 513.20545197 C249.82827243 513.2207462 247.65767556 513.19740569 245.4836731 513.16404724 C244.2485498 513.15927368 243.01342651 513.15450012 241.74087524 513.14958191 C237.15458287 512.07871498 236.09966577 510.23175972 233.47781372 506.38768005 C232.81375122 504.26268005 232.81375122 504.26268005 232.85281372 502.38768005 C232.8399231 501.76893005 232.82703247 501.15018005 232.81375122 500.51268005 C233.91738384 496.98105568 235.46667871 494.49201916 238.47781372 492.38768005 C242.65029662 491.53353548 246.75391915 491.69011883 250.99734497 491.80174255 C252.2110527 491.81023224 253.42476044 491.81872192 254.67524719 491.82746887 C258.5478428 491.86102778 262.41834854 491.9363213 266.29031372 492.01268005 C268.91723676 492.042776 271.54419246 492.07015243 274.1711731 492.0947113 C280.60743177 492.16082793 287.04247345 492.26120543 293.47781372 492.38768005 C293.39008917 490.49101479 293.28190071 488.59529013 293.16531372 486.70018005 C293.10730591 485.64443787 293.0492981 484.58869568 292.98953247 483.5009613 C292.43788239 480.14473904 291.31908587 478.20635672 289.47781372 475.38768005 C289.47781372 474.72768005 289.47781372 474.06768005 289.47781372 473.38768005 C281.06410629 468.47968405 271.59997265 469.09549345 262.20852661 469.11302185 C260.66531631 469.10866929 259.12210817 469.10348434 257.5789032 469.09753418 C253.40532748 469.08419219 249.23184259 469.08356008 245.05824971 469.08609748 C241.56680308 469.08717034 238.07537459 469.08227584 234.58393186 469.07749206 C226.34387401 469.06641373 218.10386174 469.0659502 209.86380005 469.07200623 C201.37840735 469.07804687 192.89318042 469.06572886 184.40781599 469.04443616 C177.10735142 469.02679404 169.8069395 469.02082286 162.50645441 469.0240739 C158.15286302 469.02588255 153.79938993 469.02329233 149.44581795 469.00935936 C145.35074611 468.99674285 141.25593196 468.99876104 137.16086388 469.01177025 C135.6633457 469.01412718 134.16580917 469.01143318 132.66831207 469.00314713 C124.78678296 468.96270148 117.80776543 469.23127269 110.47781372 472.38768005 C109.48781372 472.71768005 108.49781372 473.04768005 107.47781372 473.38768005 C106.30827957 475.81151082 106.30827957 475.81151082 105.47781372 478.38768005 C105.14781372 479.04768005 104.81781372 479.70768005 104.47781372 480.38768005 C104.24923258 482.42515636 104.06757094 484.46808308 103.91531372 486.51268005 C103.83152466 487.60838318 103.7477356 488.7040863 103.66140747 489.83299255 C103.60082153 490.67603943 103.5402356 491.5190863 103.47781372 492.38768005 C104.15575485 492.376577 104.83369598 492.36547394 105.53218079 492.35403442 C112.58855006 492.24341218 119.64467302 492.16800017 126.70169067 492.11302185 C129.33525599 492.08787848 131.96875154 492.05375922 134.6020813 492.01048279 C138.38765681 491.94982795 142.1723097 491.92146735 145.95828247 491.8993988 C147.72415962 491.86068916 147.72415962 491.86068916 149.52571106 491.82119751 C157.68622025 491.81839777 157.68622025 491.81839777 161.69778442 494.70335388 C163.95177377 498.10242299 164.47781372 500.30996208 164.47781372 504.38768005 C162.96264744 508.40287069 162.07228842 509.99136358 158.47781372 512.38768005 C155.45526123 512.66856384 155.45526123 512.66856384 151.69900513 512.70994568 C151.014095 512.71987549 150.32918488 512.7298053 149.6235199 512.74003601 C147.3587644 512.76923476 145.09428898 512.78287464 142.82937622 512.79393005 C141.25380446 512.80543624 139.67823276 512.81695167 138.10266113 512.82847595 C134.7989878 512.84948292 131.49541162 512.86117679 128.19168091 512.8681488 C123.96215202 512.87911955 119.73391059 512.92717748 115.50478554 512.98409271 C112.24992137 513.02137568 108.99536651 513.03175806 105.74030685 513.03482056 C104.18135916 513.04086767 102.62241655 513.05690561 101.06367874 513.08319092 C98.87993198 513.1173887 96.69931874 513.1135417 94.51541138 513.10057068 C93.27425568 513.10786194 92.03309998 513.1151532 90.7543335 513.12266541 C86.11684919 512.08238997 85.08442852 510.3026886 82.47781372 506.38768005 C81.84671021 503.21897888 81.84671021 503.21897888 81.84890747 499.8447113 C81.84697388 498.60527771 81.84504028 497.36584412 81.8430481 496.08885193 C81.86689575 494.80559021 81.89074341 493.52232849 81.91531372 492.20018005 C81.90435669 490.93625427 81.89339966 489.67232849 81.8821106 488.37010193 C81.96786281 477.31949947 84.17845757 468.07421858 91.35281372 459.4618988 C99.02319857 451.9748136 107.48134114 448.13428427 118.11453247 448.2118988 C119.01816528 448.22865662 119.9217981 448.24541443 120.85281372 448.26268005 C121.77964966 448.27170349 122.7064856 448.28072693 123.66140747 448.2900238 C125.93381449 448.31345068 128.20567552 448.34625257 130.47781372 448.38768005 C130.66214966 447.44537537 130.8464856 446.50307068 131.03640747 445.5322113 C133.42434697 433.66092388 136.25894305 421.90882344 139.13796997 410.1493988 C139.56002353 408.42071338 139.98194024 406.69199454 140.40371704 404.96324158 C141.42684017 400.77100118 142.45180851 396.57921598 143.47781372 392.38768005 C142.66519986 392.39136723 141.852586 392.3950544 141.01534748 392.3988533 C121.19932018 392.48737332 101.38332718 392.55347167 81.56714344 392.59492874 C71.98399038 392.6155124 62.40096969 392.64355233 52.81790161 392.68943787 C44.46067912 392.72943459 36.10355254 392.75514334 27.74623698 392.76403403 C23.32525449 392.76922714 18.90454629 392.7813443 14.48365211 392.81060028 C10.31314856 392.83797278 6.1430294 392.84608151 1.97244453 392.84011078 C0.45079196 392.84120134 -1.07087494 392.84902434 -2.59244919 392.86450195 C-18.72812427 393.02043223 -32.148042 389.24662262 -44.27218628 378.20018005 C-54.70270969 367.01745544 -57.98571803 354.27159639 -57.90986633 339.42115784 C-57.91525187 338.14701204 -57.92063741 336.87286625 -57.92618614 335.56010997 C-57.94056486 332.04850529 -57.93641999 328.53713681 -57.92901933 325.02551961 C-57.92427105 321.22854397 -57.93681214 317.43161823 -57.94703674 313.63465881 C-57.96419781 306.20572574 -57.96507034 298.77687735 -57.95982384 291.34792961 C-57.95577579 285.30707228 -57.95723322 279.2662399 -57.9625721 273.22538376 C-57.96332052 272.36429063 -57.96406894 271.50319749 -57.96484004 270.61601063 C-57.96637159 268.86647074 -57.96790993 267.11693085 -57.96945501 265.36739098 C-57.98317037 248.97520056 -57.9777492 232.58305792 -57.9662698 216.1908686 C-57.95633896 201.21015528 -57.96927721 186.22956549 -57.99320399 171.24887122 C-58.01761456 155.84867485 -58.02719802 140.44853597 -58.02055126 125.04832065 C-58.01706332 116.40948257 -58.01926295 107.77073946 -58.03680229 99.13191605 C-58.05154879 91.7777523 -58.05212784 84.42375041 -58.03473138 77.06958975 C-58.02623898 73.32118904 -58.02402831 69.57307716 -58.03938293 65.82469177 C-58.05585764 61.75228533 -58.04103745 57.68057108 -58.02339172 53.60816956 C-58.03299673 52.43596898 -58.04260174 51.26376841 -58.0524978 50.05604661 C-57.92781826 36.02404205 -52.79335803 23.99607912 -43.33468628 13.63768005 C-30.60106766 1.76058287 -16.56567374 -0.06323658 0 0 Z M-30.39718628 31.20018005 C-37.39951521 39.82341846 -37.67632963 49.70871473 -37.6424408 60.37875366 C-37.64329681 61.36649277 -37.64415283 62.35423187 -37.64503479 63.37190247 C-37.64668641 66.68308837 -37.64117212 69.9942234 -37.63571167 73.30540466 C-37.63540527 75.71922332 -37.63553894 78.13304207 -37.63607693 80.54686069 C-37.63630261 87.00861168 -37.63050836 93.47034414 -37.62346649 99.93209076 C-37.61776993 105.99643004 -37.61750328 112.06076481 -37.61679077 118.12510681 C-37.61154426 135.85846701 -37.5975831 153.59182377 -37.58468628 171.32518005 C-37.56406128 210.94580505 -37.54343628 250.56643005 -37.52218628 291.38768005 C118.23781372 291.38768005 273.99781372 291.38768005 434.47781372 291.38768005 C434.51906372 251.82893005 434.56031372 212.27018005 434.60281372 171.51268005 C434.62102173 159.02182556 434.63922974 146.53097107 434.6579895 133.66160583 C434.66467836 122.46505792 434.66467836 122.46505792 434.66870117 111.26850891 C434.67056448 106.28143026 434.6780596 101.29439419 434.68896484 96.30732727 C434.7026972 89.94294963 434.70679334 83.57863378 434.70395827 77.2142427 C434.70455099 74.88043362 434.70850842 72.54662235 434.71624398 70.21282601 C434.72622339 67.05497878 434.72378203 63.89737017 434.71832275 60.73951721 C434.72706075 59.37702756 434.72706075 59.37702756 434.73597527 57.98701286 C434.68658313 47.3230748 433.0100352 37.48852387 425.65359497 29.3759613 C417.35737251 21.60130882 408.36492354 20.26536478 397.21005535 20.2590456 C396.50936445 20.25729256 395.80867354 20.25553953 395.08674958 20.25373337 C392.7452164 20.24909153 390.4037458 20.25153417 388.06221008 20.25396729 C386.36387736 20.2520984 384.66554507 20.24979739 382.96721345 20.24710196 C378.30488171 20.24098718 373.64256791 20.24111718 368.98023307 20.24229634 C363.95012185 20.24250042 358.92001638 20.23698084 353.88990784 20.23223877 C344.03686271 20.22393352 334.18382356 20.22118399 324.33077522 20.22062639 C316.32187309 20.22015119 308.31297293 20.21809624 300.30407143 20.21492577 C277.59702239 20.20611969 254.88997809 20.20150634 232.18292733 20.20225624 C230.34684165 20.20231617 230.34684165 20.20231617 228.47366333 20.20237732 C226.63533582 20.20243864 226.63533582 20.20243864 224.75987039 20.2025012 C204.89542712 20.2029077 185.03100281 20.19333697 165.16656502 20.17923895 C144.76956995 20.16487719 124.37258411 20.15796865 103.97558385 20.15883273 C92.52434032 20.15916476 81.07311665 20.15641505 69.62187767 20.14565468 C59.87267 20.13655234 50.12349121 20.13437226 40.37428113 20.1411641 C35.40094401 20.14443058 30.42766231 20.14448131 25.45433044 20.13581085 C20.89892812 20.12795073 16.34362521 20.12937234 11.78822533 20.13809498 C10.14291043 20.13963103 8.49758812 20.13780986 6.85228195 20.13223491 C-7.16042429 20.08791034 -20.20867326 20.32816092 -30.39718628 31.20018005 Z M-37.52218628 312.38768005 C-39.21836704 339.13433297 -39.21836704 339.13433297 -29.52218628 362.38768005 C-23.04052837 368.63268514 -16.0297014 371.75880058 -7.04137135 371.77358341 C-5.95577793 371.78147208 -5.95577793 371.78147208 -4.84825334 371.78952011 C-2.42817703 371.80345292 -0.00864521 371.79611655 2.41145325 371.78881836 C4.16611175 371.79442472 5.92076651 371.80132765 7.67541534 371.80941433 C12.49354601 371.82776294 17.31152049 371.82736823 22.12967813 371.8238312 C27.32754001 371.82321903 32.52535177 371.8397769 37.72319031 371.85400391 C47.9057811 371.87892277 58.0883198 371.88716842 68.27093854 371.88884104 C76.54870892 371.89026665 84.82646212 371.89643156 93.10422707 371.90594292 C116.5758779 371.93236328 140.04748757 371.94620106 163.51915338 371.94395149 C164.78450299 371.94383163 166.0498526 371.94371176 167.35354614 371.94358826 C168.6204418 371.94346561 169.88733746 371.94334297 171.19262389 371.94321661 C191.72183107 371.94199741 212.25087312 371.97070117 232.78003254 372.01300336 C253.86183522 372.05610131 274.94355738 372.07681351 296.02540523 372.07422203 C307.86018999 372.07322629 319.69480167 372.08145951 331.52954674 372.11375618 C341.60668154 372.14108018 351.68356482 372.1475899 361.76072063 372.12722791 C366.90053332 372.1174362 372.03986355 372.11724664 377.17963028 372.14328766 C381.88960033 372.16690522 386.59870598 372.16256788 391.30865512 372.13643526 C393.00784448 372.13183497 394.70709858 372.13726157 396.40621158 372.15401549 C407.35693079 372.25479842 416.84644932 371.20455778 425.46509475 363.64448363 C438.47325518 350.1497414 434.47781372 329.14091295 434.47781372 312.38768005 C278.71781372 312.38768005 122.95781372 312.38768005 -37.52218628 312.38768005 Z M165.47781372 392.38768005 C163.88968872 398.71955505 162.30156372 405.05143005 160.66531372 411.57518005 C160.17055542 413.54510925 159.67579712 415.51503845 159.16604614 417.54466248 C154.59539449 432.80942788 154.59539449 432.80942788 152.47781372 448.38768005 C182.83781372 448.38768005 213.19781372 448.38768005 244.47781372 448.38768005 C243.18177425 441.25946295 241.8224664 434.25953296 240.13015747 427.23143005 C239.80501915 425.86709839 239.80501915 425.86709839 239.47331238 424.47520447 C239.02006867 422.57590529 238.56542169 420.67694047 238.10940552 418.77830505 C237.41050092 415.86763657 236.71627812 412.95588036 236.0227356 410.04393005 C235.57964678 408.18969871 235.13629692 406.33552973 234.69265747 404.48143005 C234.48535507 403.61272278 234.27805267 402.7440155 234.06446838 401.84898376 C233.77395348 400.64127319 233.77395348 400.64127319 233.47756958 399.40916443 C233.30817368 398.70287903 233.13877777 397.99659363 232.96424866 397.26890564 C232.53845934 395.6222193 232.01566802 394.00124294 231.47781372 392.38768005 C209.69781372 392.38768005 187.91781372 392.38768005 165.47781372 392.38768005 Z " fill="#12B8C8" transform="translate(57.522186279296875,-0.3876800537109375)"/>
<path d="M0 0 C6.91019263 4.88797907 11.54210038 11.43204215 13.8984375 19.58984375 C14.76557955 25.0528387 15.28969889 30.22855959 13.5234375 35.52734375 C14.1628125 35.75421875 14.8021875 35.98109375 15.4609375 36.21484375 C18.96162867 37.71513996 22.09960136 39.60799916 25.33984375 41.6015625 C28.00357142 42.73090679 28.86294718 42.57417775 31.5234375 41.52734375 C33.20701378 40.72872423 34.87318197 39.89272165 36.5234375 39.02734375 C44.2006992 35.00146261 51.94488846 34.23430258 60.47265625 36.2109375 C70.66367352 39.63637008 77.43807882 45.02200043 82.5234375 54.52734375 C86.65133037 63.12582248 86.87268323 72.34070701 83.8359375 81.33984375 C80.04041104 90.49376051 75.05779482 95.40672936 66.5234375 100.52734375 C65.5334375 100.85734375 64.5434375 101.18734375 63.5234375 101.52734375 C63.1934375 107.46734375 62.8634375 113.40734375 62.5234375 119.52734375 C65.4934375 120.51734375 65.4934375 120.51734375 68.5234375 121.52734375 C76.82445015 126.39727117 81.32627214 133.13430149 84.8984375 141.90234375 C86.85214152 153.23382704 85.37845196 163.10456833 78.9609375 172.77734375 C73.36294606 179.66499904 65.25679925 184.27972064 56.5234375 185.52734375 C45.72454859 186.49121152 37.3698346 183.58876398 28.5234375 177.52734375 C23.9034375 180.16734375 19.2834375 182.80734375 14.5234375 185.52734375 C14.5853125 187.30109375 14.6471875 189.07484375 14.7109375 190.90234375 C14.6612131 201.49364101 11.60765073 209.56276228 4.5234375 217.52734375 C-2.94495419 224.10895052 -12.05672712 227.18102301 -21.97265625 226.80859375 C-31.79628362 225.70515979 -40.47446458 221.56296101 -46.7890625 213.83984375 C-52.97360541 204.74391435 -53.94217464 196.35282598 -53.4765625 185.52734375 C-58.4265625 182.88734375 -63.3765625 180.24734375 -68.4765625 177.52734375 C-69.4253125 178.29046875 -70.3740625 179.05359375 -71.3515625 179.83984375 C-78.52655467 184.92152835 -86.81255024 186.50052453 -95.4765625 185.52734375 C-104.35439914 183.88583312 -112.02813462 179.88579063 -117.7890625 172.83984375 C-123.48324028 164.4809811 -125.76486257 155.57082594 -124.4765625 145.52734375 C-121.9324966 134.83654995 -116.80554289 127.56723113 -107.625 121.65625 C-105.4765625 120.52734375 -105.4765625 120.52734375 -101.4765625 119.52734375 C-101.8065625 113.58734375 -102.1365625 107.64734375 -102.4765625 101.52734375 C-105.1165625 100.20734375 -107.7565625 98.88734375 -110.4765625 97.52734375 C-117.18733261 92.96402007 -120.81867673 86.59669972 -123.8515625 79.15234375 C-125.72829374 68.26730254 -124.54888809 59.25645234 -118.7890625 49.83984375 C-113.22199006 42.00773694 -105.77358841 37.73973762 -96.4765625 35.52734375 C-88.17193052 34.46208991 -80.97929262 35.83767877 -73.4765625 39.52734375 C-72.8165625 40.08808594 -72.1565625 40.64882812 -71.4765625 41.2265625 C-69.53435932 42.76787333 -69.53435932 42.76787333 -67.05078125 42.40625 C-64.16087044 41.41955815 -61.85967612 40.1098809 -59.2890625 38.46484375 C-54.67891544 35.52734375 -54.67891544 35.52734375 -52.4765625 35.52734375 C-52.8065625 34.86734375 -53.1365625 34.20734375 -53.4765625 33.52734375 C-54.52265654 23.80381391 -52.29904116 15.28796011 -46.7890625 7.21484375 C-34.97765511 -7.26748491 -15.64377331 -9.30236994 0 0 Z M-29.4765625 19.52734375 C-32.17984874 23.53867172 -33.1776739 26.71972275 -32.4765625 31.52734375 C-29.71977565 36.54863408 -27.17092371 39.68909804 -21.6640625 41.40234375 C-16.44421076 41.60704382 -12.90516584 39.84316262 -9.1015625 36.33984375 C-7.00239253 32.70666495 -6.14964773 29.72939454 -6.4765625 25.52734375 C-7.81534216 21.34469673 -9.71976788 19.03735752 -13.3515625 16.58984375 C-19.7138441 14.42666801 -24.32557504 15.31289947 -29.4765625 19.52734375 Z M-42.4765625 53.52734375 C-44.80171456 54.73642282 -47.10959725 55.96743156 -49.4140625 57.21484375 C-50.07341797 57.55451172 -50.73277344 57.89417969 -51.41210938 58.24414062 C-55.24874203 60.31518601 -55.24874203 60.31518601 -57.40625 63.94921875 C-57.42945312 64.8 -57.45265625 65.65078125 -57.4765625 66.52734375 C-57.51136719 67.41550781 -57.54617187 68.30367187 -57.58203125 69.21875 C-57.60910156 70.16621094 -57.63617188 71.11367187 -57.6640625 72.08984375 C-58.37701041 80.86126351 -61.85170978 88.51465948 -68.3515625 94.52734375 C-72.16732002 97.69888247 -75.7952785 99.18670175 -80.4765625 101.52734375 C-80.4765625 107.46734375 -80.4765625 113.40734375 -80.4765625 119.52734375 C-78.9709375 120.20796875 -77.4653125 120.88859375 -75.9140625 121.58984375 C-67.89487195 125.62779543 -62.61587705 131.07170254 -59.4765625 139.52734375 C-58.24978157 143.39696132 -57.21480965 146.94685509 -57.88671875 151.00390625 C-58.36701795 154.01626825 -58.54305365 155.63836774 -57.4765625 158.52734375 C-53.13490586 162.4358488 -47.67635436 164.96458919 -42.4765625 167.52734375 C-41.8475 167.11742187 -41.2184375 166.7075 -40.5703125 166.28515625 C-32.52396978 161.2198381 -25.12419029 158.32139028 -15.4765625 159.52734375 C-8.33650316 161.19221336 -2.42863133 163.27969043 3.5234375 167.52734375 C11.53712536 163.82532684 11.53712536 163.82532684 18.5234375 158.52734375 C19.5429524 155.18709099 19.32065774 152.95464328 18.875 149.51171875 C18.01476836 142.20930794 21.57991006 135.39634126 25.71484375 129.5703125 C30.1005677 124.6162442 35.45984213 121.9527819 41.5234375 119.52734375 C41.5234375 113.58734375 41.5234375 107.64734375 41.5234375 101.52734375 C40.0178125 100.84671875 38.5121875 100.16609375 36.9609375 99.46484375 C28.06690744 94.98637883 23.17811501 88.89976243 19.83984375 79.62890625 C18.91713335 76.51078145 18.44776073 74.12144991 18.86328125 70.859375 C19.24933587 67.71454807 19.40995903 65.58584303 18.5234375 62.52734375 C13.82172212 58.39353219 8.46856505 55.50905293 2.5234375 53.52734375 C0.57769518 54.43638529 0.57769518 54.43638529 -1.3515625 55.83984375 C-8.81423349 60.94665194 -16.68597619 62.31989009 -25.64453125 61.09375 C-32.1398891 59.63661649 -37.06348051 57.37895978 -42.4765625 53.52734375 Z M-101.2890625 61.15234375 C-103.12556857 64.82535589 -103.59384984 68.43694778 -103.4765625 72.52734375 C-101.8124188 76.68770301 -99.23671516 79.13451933 -95.4765625 81.52734375 C-91.44378527 82.62719209 -89.24409666 82.79823816 -85.2890625 81.40234375 C-81.25719443 78.7144317 -79.05055369 76.2875834 -77.5390625 71.65234375 C-77.45670886 67.53466164 -78.48298421 65.11578468 -80.4765625 61.52734375 C-83.59895953 58.63341479 -85.94688615 56.66640524 -90.2265625 56.27734375 C-94.78143062 56.62771822 -97.8930925 58.107681 -101.2890625 61.15234375 Z M41.2734375 61.77734375 C39.10006333 65.19264602 38.5943755 67.48387776 38.5234375 71.52734375 C40.17158146 76.19708497 42.30167841 78.93671886 46.5234375 81.52734375 C50.55621473 82.62719209 52.75590334 82.79823816 56.7109375 81.40234375 C60.29520718 79.01283063 62.5989743 76.37627014 64.5234375 72.52734375 C64.65545318 67.72763068 64.2176398 64.40916829 61.2109375 60.58984375 C53.90361751 54.9819005 47.95739492 55.09338633 41.2734375 61.77734375 Z M-100.4765625 142.52734375 C-103.11114045 146.06755787 -103.70567514 148.77966219 -103.4765625 153.08984375 C-102.65265465 158.46787959 -99.87370502 160.70882184 -95.6640625 163.90234375 C-92.12782489 164.91269735 -88.94449487 164.53437796 -85.4765625 163.52734375 C-81.22129423 161.00570329 -79.22156285 158.78892076 -77.9140625 154.08984375 C-77.38168634 150.81953307 -77.49452367 149.47134715 -78.5390625 146.21484375 C-81.02099054 142.77216938 -83.67904274 140.42610363 -87.4765625 138.52734375 C-92.79676905 137.90871508 -96.38840033 139.22180204 -100.4765625 142.52734375 Z M40.7109375 144.33984375 C39.0108573 147.47157043 38.64606591 149.97111986 38.5234375 153.52734375 C40.1703333 158.1935485 42.27518738 160.97839368 46.5234375 163.52734375 C50.47182324 164.69664257 53.42901309 164.97506283 57.2734375 163.40234375 C60.34126363 160.84582197 62.73252756 158.10916362 64.5234375 154.52734375 C64.78359394 150.46239932 64.61931239 146.8566757 61.96484375 143.63671875 C58.74671676 140.88023576 56.0620116 138.70218172 51.7734375 138.21484375 C46.93632289 138.67995092 44.08696262 140.96381863 40.7109375 144.33984375 Z M-27.4765625 182.52734375 C-31.16434904 186.47135637 -31.16434904 186.47135637 -32.56640625 191.48046875 C-32.28726788 195.68901646 -31.8133395 198.78980325 -28.9765625 202.02734375 C-25.80356443 204.75795266 -22.79793095 205.56342172 -18.65625 205.765625 C-14.25425498 205.28440332 -11.6718772 202.72265845 -8.6640625 199.71484375 C-6.9639823 196.58311707 -6.59919091 194.08356764 -6.4765625 190.52734375 C-8.12470646 185.85760253 -10.25480341 183.11796864 -14.4765625 180.52734375 C-19.85108616 179.06156457 -22.83875233 179.4354703 -27.4765625 182.52734375 Z " fill="#12B8C8" transform="translate(175.4765625,45.47265625)"/>
<path d="M0 0 C1.89059395 -0.01268921 1.89059395 -0.01268921 3.81938171 -0.02563477 C5.21370063 -0.01980199 6.60801828 -0.01365749 8.00233459 -0.00723267 C9.4726297 -0.01129836 10.94292175 -0.01664023 12.41320801 -0.02316284 C16.40499124 -0.03684385 20.39654195 -0.03153431 24.38832927 -0.02202559 C28.56603164 -0.0144316 32.74371408 -0.021474 36.92141724 -0.02618408 C43.9383349 -0.031643 50.95515787 -0.02444709 57.97206116 -0.01016235 C66.082558 0.0061581 74.19282853 0.00088066 82.30331987 -0.01564157 C89.2673473 -0.02926015 96.23130663 -0.03117409 103.19534308 -0.02332556 C107.35435638 -0.01865026 111.51326336 -0.0180201 115.67226982 -0.02793503 C119.58344285 -0.03660763 123.49432449 -0.0305776 127.40546608 -0.01325226 C128.84015291 -0.00928868 130.2748643 -0.01041928 131.70954132 -0.01704025 C133.66938902 -0.02525023 135.62929037 -0.01312448 137.58911133 0 C138.68545867 0.00113108 139.78180601 0.00226215 140.911376 0.00342751 C144.26285242 0.43281397 146.14209982 1.40600583 148.85804749 3.38095093 C151.00166814 6.44637323 151.1231815 9.10410119 151.16444397 12.78866577 C151.18043137 13.87013885 151.19641876 14.95161194 151.21289062 16.06585693 C151.21825333 17.22944733 151.22361603 18.39303772 151.22914124 19.59188843 C151.23816971 20.79278107 151.24719818 21.99367371 151.25650024 23.23095703 C151.27100693 25.77116399 151.27989051 28.31140836 151.28358459 30.85165405 C151.29548163 34.73445679 151.34466804 38.61567103 151.39515686 42.49813843 C151.40462098 44.96688067 151.41185606 47.43563268 151.41664124 49.90438843 C151.43617355 51.06393036 151.45570587 52.22347229 151.47583008 53.41815186 C151.42559542 62.40903179 151.42559542 62.40903179 148.44813538 66.09823608 C144.68985861 69.41050753 142.92535897 69.50794188 137.99456787 69.52139282 C136.74533539 69.52710297 135.49610291 69.53281311 134.20901489 69.53869629 C132.81687937 69.53994171 131.42474374 69.54106679 130.03260803 69.54208374 C128.57246271 69.54671099 127.1123186 69.55173552 125.6521759 69.55712891 C121.6789453 69.57026466 117.7057316 69.57670025 113.73248267 69.58113956 C111.25094165 69.58406864 108.76940528 69.58817315 106.28786659 69.59264374 C98.52603606 69.6063223 90.76421611 69.61598697 83.00237435 69.61984563 C74.03828765 69.62432622 65.07435344 69.64187261 56.11031312 69.67084622 C49.18455876 69.69245557 42.25884733 69.70254952 35.33305961 69.70388675 C31.19523341 69.7049354 27.05755049 69.71085568 22.91975975 69.72870636 C19.02670165 69.74517401 15.13389471 69.74734901 11.24081421 69.73856735 C9.81256755 69.73779625 8.38430746 69.74214941 6.95609474 69.7520256 C5.00493014 69.76472578 3.05366483 69.7570836 1.10247803 69.7484436 C-0.53487792 69.75064344 -0.53487792 69.75064344 -2.20531178 69.75288773 C-5.58049128 69.32540831 -7.43151312 68.41113939 -10.14195251 66.38095093 C-13.65636874 60.50215143 -13.58066197 54.94737987 -13.54039001 48.22470093 C-13.54326019 47.16360107 -13.54613037 46.10250122 -13.54908752 45.00924683 C-13.55112217 42.77360498 -13.54563444 40.53794509 -13.5330658 38.30233765 C-13.51700425 34.89193694 -13.53293561 31.48272129 -13.55210876 28.07235718 C-13.55012623 25.89396916 -13.54628234 23.71558188 -13.54039001 21.53720093 C-13.54646271 20.52347412 -13.5525354 19.50974731 -13.55879211 18.46530151 C-13.50167741 12.67986809 -13.05750231 8.4346806 -10.14195251 3.38095093 C-6.87638142 0.23067541 -4.4619775 0.00460491 0 0 Z M7.85804749 21.38095093 C7.85804749 30.29095093 7.85804749 39.20095093 7.85804749 48.38095093 C48.11804749 48.38095093 88.37804749 48.38095093 129.85804749 48.38095093 C129.85804749 39.47095093 129.85804749 30.56095093 129.85804749 21.38095093 C89.59804749 21.38095093 49.33804749 21.38095093 7.85804749 21.38095093 Z " fill="#12B8C8" transform="translate(309.14195251464844,175.61904907226563)"/>
<path d="M0 0 C1.22391953 -0.00571014 2.44783905 -0.01142029 3.70884705 -0.01730347 C5.06742849 -0.01854881 6.42601004 -0.01967391 7.78459167 -0.02069092 C9.21370573 -0.02531966 10.64281855 -0.0303444 12.07192993 -0.03573608 C15.95632832 -0.04885691 19.84070942 -0.05530445 23.7251265 -0.05974674 C26.1522401 -0.06267806 28.57934897 -0.06678299 31.00646019 -0.07125092 C38.6011674 -0.08492519 46.19586381 -0.09459211 53.79058248 -0.09845281 C62.55598886 -0.10293314 71.32123926 -0.12048012 80.08659822 -0.1494534 C86.86292045 -0.17107411 93.63919882 -0.1811573 100.41555518 -0.18249393 C104.46229687 -0.1835417 108.50889194 -0.1894436 112.55559731 -0.20731354 C116.36331276 -0.22380096 120.17077146 -0.22594658 123.9785099 -0.21717453 C125.37408638 -0.2164045 126.76967671 -0.22074242 128.16521835 -0.23063278 C130.07437756 -0.24336697 131.98364008 -0.23567843 133.89282227 -0.22705078 C134.96004926 -0.22851734 136.02727625 -0.2299839 137.12684345 -0.2314949 C141.72051316 0.33612314 145.08459569 1.84261644 148.0118866 5.45294189 C149.3752217 8.70979798 149.63735778 10.63714358 149.1368866 14.14044189 C145.97899186 19.71938926 145.97899186 19.71938926 143.1368866 21.14044189 C141.1614294 21.24504476 139.18240786 21.28435633 137.20420837 21.29434204 C135.93959274 21.3029425 134.67497711 21.31154297 133.37203979 21.32040405 C131.96260112 21.32483944 130.55316201 21.32913778 129.14372253 21.33331299 C127.66549486 21.34121305 126.18726911 21.34948194 124.70904541 21.35809326 C119.84646958 21.3843261 114.98388508 21.39962289 110.1212616 21.41387939 C108.44793441 21.4192387 106.77460728 21.42461621 105.10128021 21.43001175 C98.14073813 21.451643 91.18019839 21.4703797 84.2196312 21.48163414 C74.24168186 21.49787286 64.26412199 21.53104568 54.28631949 21.58803499 C47.27223063 21.62673159 40.25824594 21.64626653 33.24405313 21.6515547 C29.05409875 21.6552088 24.86455964 21.66723553 20.67472076 21.69965744 C16.73147635 21.72973322 12.78889853 21.73605206 8.84556389 21.72427368 C7.3999807 21.7240529 5.95436664 21.73236237 4.50889015 21.74992752 C-7.77064249 21.89099714 -7.77064249 21.89099714 -11.72242737 18.76022339 C-14.69827957 15.11836167 -14.66459315 13.05245207 -14.3943634 8.51934814 C-13.58415301 4.89127365 -11.8198728 3.27205914 -8.8631134 1.14044189 C-5.66133985 0.07318404 -3.36596767 0.00939186 0 0 Z " fill="#12B8C8" transform="translate(310.8631134033203,81.85955810546875)"/>
<path d="M0 0 C1.40881943 -0.00856522 1.40881943 -0.00856522 2.84609985 -0.01730347 C3.8695752 -0.01842133 4.89305054 -0.01953918 5.94754028 -0.02069092 C7.57255966 -0.02813828 7.57255966 -0.02813828 9.23040771 -0.03573608 C12.81597528 -0.05034712 16.40149862 -0.05715751 19.98709106 -0.06268311 C22.47806805 -0.06843483 24.96904502 -0.07419256 27.46002197 -0.07995605 C32.68372809 -0.09046262 37.90741883 -0.09630775 43.13113403 -0.09979248 C48.49512849 -0.10355979 53.85898576 -0.11765638 59.22293091 -0.14080811 C65.69848265 -0.16832749 72.17390082 -0.18119999 78.64950943 -0.18312836 C81.11746457 -0.18615615 83.58541882 -0.19418888 86.05334091 -0.20731354 C89.50521073 -0.22436252 92.95658298 -0.22249645 96.40847778 -0.21600342 C97.9376181 -0.22982559 97.9376181 -0.22982559 99.49765015 -0.243927 C105.78712405 -0.20685557 110.39227112 0.41965161 115.18240356 4.89044189 C116.81080713 8.14724903 116.68573442 10.54629877 116.30740356 14.14044189 C114.65601051 17.6791413 113.59135127 18.95114342 110.30740356 21.14044189 C108.09375954 21.40050411 108.09375954 21.40050411 105.46258545 21.41459656 C104.46440292 21.42457169 103.4662204 21.43454681 102.43778992 21.44482422 C100.79664467 21.44582123 100.79664467 21.44582123 99.12234497 21.44683838 C97.3927227 21.45932365 97.3927227 21.45932365 95.62815857 21.47206116 C91.80506036 21.49621549 87.98213256 21.50493982 84.15896606 21.51153564 C82.17716635 21.51823334 80.19536663 21.52493316 78.21356809 21.53197056 C71.98019113 21.55344522 65.74686863 21.56277699 59.51345825 21.565979 C53.08594603 21.56961419 46.65891135 21.59950737 40.23154509 21.64138359 C34.71126566 21.67608747 29.19114448 21.69152745 23.6707567 21.69222504 C20.37450044 21.69301787 17.07884084 21.7041239 13.78267288 21.7302227 C10.10510724 21.75702391 6.42886406 21.75234384 2.75125122 21.73980713 C1.66120285 21.75464142 0.57115448 21.76947571 -0.55192566 21.78475952 C-7.92947396 21.71300206 -7.92947396 21.71300206 -11.86633301 18.75923157 C-14.40102443 15.12458411 -14.40303835 12.82666317 -14.18478394 8.51934814 C-13.4234221 4.83943262 -11.70382506 3.26198934 -8.69259644 1.14044189 C-5.75841195 0.18405936 -3.07462965 0.0112297 0 0 Z " fill="#12B8C8" transform="translate(310.6925964355469,121.85955810546875)"/>
<path d="M0 0 C3.125 1.875 3.125 1.875 5 5 C5.98876625 10.02622846 5.7769173 13.70513784 3.125 18.125 C-1.29486216 20.7769173 -4.97377154 20.98876625 -10 20 C-13.125 18.125 -13.125 18.125 -15 15 C-15.98876625 9.97377154 -15.7769173 6.29486216 -13.125 1.875 C-8.70513784 -0.7769173 -5.02622846 -0.98876625 0 0 Z " fill="#12B8C8" transform="translate(261,492)"/>
</svg>
