<?xml version="1.0" encoding="UTF-8"?>
<svg version="1.1" xmlns="http://www.w3.org/2000/svg" width="512" height="512">
<path d="M0 0 C0.80537007 -0.00495952 1.61074014 -0.00991903 2.44051537 -0.01502883 C5.13828071 -0.02797868 7.8355506 -0.01960222 10.53332806 -0.01129913 C12.48740146 -0.01618832 14.44147197 -0.02237826 16.39553756 -0.02975702 C21.76480536 -0.04617611 27.13392652 -0.04383457 32.50321066 -0.03838205 C38.29408076 -0.03571429 44.08491155 -0.05023892 49.8757658 -0.06247711 C61.2207563 -0.08354414 72.56569571 -0.08807123 83.91070346 -0.08628923 C93.13147242 -0.08498222 102.35222542 -0.08878263 111.57299137 -0.09621429 C114.22782808 -0.09831346 116.8826648 -0.10041106 119.53750151 -0.10250711 C120.19751352 -0.10303111 120.85752553 -0.1035551 121.53753791 -0.10409497 C140.10053851 -0.11867793 158.66353341 -0.12696092 177.22653961 -0.12234497 C177.92630108 -0.12217302 178.62606255 -0.12200106 179.34702891 -0.1218239 C182.89365786 -0.12093501 186.44028681 -0.1199902 189.98691574 -0.11902589 C190.69128079 -0.11883485 191.39564584 -0.11864382 192.12135529 -0.118447 C193.5457527 -0.11805991 194.97015012 -0.11766958 196.39454753 -0.11727602 C218.55622207 -0.11130652 240.71779218 -0.12674215 262.87944317 -0.15888214 C287.78169202 -0.19496611 312.68387466 -0.2142908 337.5861513 -0.20934343 C350.7700601 -0.20709779 363.95386537 -0.21235592 377.13775349 -0.23723602 C388.361895 -0.25823723 399.58587623 -0.26185276 410.8100243 -0.24293643 C416.53684771 -0.23377137 422.26337217 -0.23265953 427.99017239 -0.25329208 C433.23408648 -0.27197595 438.47745623 -0.26752719 443.72134944 -0.24474627 C445.6169995 -0.24055402 447.51269109 -0.24478146 449.40829728 -0.25834221 C460.5830773 -0.33283118 469.27756874 -0.1053788 478.20146465 7.44561005 C478.97490215 8.40467255 478.97490215 8.40467255 479.76396465 9.38311005 C480.56833965 10.34217255 480.56833965 10.34217255 481.38896465 11.32061005 C484.16714669 15.4878831 485.01412231 19.10025908 485.02123356 24.07564545 C485.02768245 25.21810415 485.03413134 26.36056286 485.04077566 27.53764153 C485.03767845 28.78811586 485.03458125 30.0385902 485.03139019 31.3269577 C485.0351273 32.67239703 485.03972906 34.01783419 485.04512084 35.3632679 C485.05735839 39.05925606 485.0570895 42.75515376 485.05473208 46.45115757 C485.05432412 50.43758351 485.06536097 54.42398036 485.07484722 58.41039276 C485.09146127 66.21931686 485.09695691 74.02821076 485.09807198 81.83715105 C485.09902206 88.1828177 485.10313035 94.52847438 485.10947323 100.87413788 C485.12708511 118.85930814 485.13631194 136.84445453 485.13481228 154.82963347 C485.13469241 156.28406336 485.13469241 156.28406336 485.13457012 157.76787567 C485.13448836 158.73867703 485.1344066 159.70947838 485.13432236 160.70969796 C485.13350901 176.45203526 485.15265926 192.19427698 485.18084686 207.93658662 C485.20955136 224.0948232 485.22338856 240.25301313 485.2216593 256.41127586 C485.22099466 265.48536338 485.22651966 274.55935064 485.2480154 283.63341522 C485.26619501 291.35716172 485.27060099 299.0807625 485.25699656 306.80452108 C485.25045113 310.74644599 485.25040614 314.68809107 485.26770306 318.62998962 C485.28336943 322.23731479 485.28063693 325.84413675 485.26313479 329.45144916 C485.25858758 331.37717382 485.27377245 333.3029137 485.28961408 335.22857857 C485.28041649 336.37103727 485.2712189 337.51349598 485.26174259 338.69057465 C485.2623947 340.16912713 485.2623947 340.16912713 485.26305997 341.67754936 C484.62185491 345.15347697 483.17190137 346.84542343 480.76396465 349.38311005 C477.86433573 350.83292451 475.35958029 350.49776759 472.11911297 350.48749542 C471.42828902 350.48678887 470.73746507 350.48608232 470.02570707 350.48535436 C467.699087 350.48196623 465.37254683 350.47160381 463.04594707 350.46147919 C461.38203821 350.45796439 459.7181281 350.45499688 458.05421734 350.45253754 C454.46325406 350.44685399 450.87230572 350.43883589 447.28135014 350.42951393 C441.59416429 350.41634689 435.90704634 350.41806614 430.21985149 350.4237442 C428.77997499 350.42512432 428.77997499 350.42512432 427.31101006 350.42653233 C424.35327082 350.42950435 421.39553181 350.43266952 418.43779278 350.43584442 C406.18970205 350.44862402 393.94193047 350.45074661 381.69389629 350.40727997 C372.76590953 350.37570107 363.83841044 350.37255659 354.91040975 350.40203947 C350.18853037 350.4165439 345.46762569 350.41690591 340.74582767 350.38263893 C336.29415386 350.3506145 331.84407085 350.35646257 327.39242458 350.39014053 C325.76757756 350.39591491 324.14261278 350.38829921 322.51791477 350.36554909 C310.95506734 350.21440707 304.10828347 352.61767941 294.76396465 359.38311005 C276.02709978 369.42979142 254.42609918 370.33484355 233.76396465 367.38311005 C231.78396465 373.32311005 229.80396465 379.26311005 227.76396465 385.38311005 C230.73396465 386.04311005 233.70396465 386.70311005 236.76396465 387.38311005 C239.94142062 388.97183803 242.50544666 390.63448718 244.76396465 393.38311005 C245.95296942 400.02399848 244.26752882 406.30726105 242.10527325 412.54546356 C241.82230389 413.40053497 241.53933453 414.25560638 241.24779034 415.13658905 C240.31762429 417.93366639 239.36583111 420.72279111 238.41240215 423.5120163 C237.7532315 425.47125024 237.09501366 427.43080499 236.43770123 429.39066315 C235.06022608 433.4864721 233.67212319 437.57847477 232.27617168 441.66802216 C230.49492587 446.88873977 228.73922606 452.11761989 226.99129581 457.34957218 C225.63700151 461.39455777 224.26979821 465.43508824 222.89868832 469.47440147 C222.246671 471.3998825 221.59844734 473.32665276 220.95422268 475.25475502 C211.77855645 502.64669706 211.77855645 502.64669706 198.2288084 509.70342255 C188.57592638 513.67568767 179.03443224 513.75465222 169.3694334 509.76592255 C159.92422098 504.7530212 155.07760576 497.32403338 151.76396465 487.38311005 C150.97889244 477.08731429 152.25969234 468.74611651 155.71708965 458.9885788 C156.12887966 457.76846603 156.54066967 456.54835327 156.96493816 455.2912674 C158.06240374 452.04177228 159.1873404 448.80249542 160.3193655 445.56490326 C161.48698793 442.21249277 162.63093344 438.8520122 163.77788067 435.49248505 C165.58901362 430.19752696 167.41583728 424.90824817 169.25468731 419.62285614 C171.10733785 414.29246429 172.93054753 408.95341799 174.72420025 403.6029129 C175.79769795 400.40314202 176.88447683 397.20802742 177.97600079 394.01436615 C178.45493401 392.6073638 178.92939507 391.19883024 179.39909649 389.78871918 C180.03498374 387.88778104 180.69371797 385.99452985 181.3538084 384.10186005 C181.70306377 383.08027802 182.05231915 382.05869598 182.41215801 381.00615692 C184.03762535 377.85209857 185.84105283 376.35307962 188.76396465 374.38311005 C190.90458965 373.8870163 190.90458965 373.8870163 193.01396465 373.94561005 C194.04263653 373.94754364 194.04263653 373.94754364 195.09208965 373.9495163 C199.09520076 374.59914398 202.9165989 376.1006548 206.76396465 377.38311005 C208.74396465 371.44311005 210.72396465 365.50311005 212.76396465 359.38311005 C211.11396465 358.72311005 209.46396465 358.06311005 207.76396465 357.38311005 C206.24423581 356.37336123 204.73646842 355.34542815 203.23979473 354.30181122 C197.24058599 350.65765203 192.03571503 350.56950959 185.1506834 350.6838913 C183.97810482 350.67729996 182.80552624 350.67070862 181.59741497 350.66391754 C177.88150732 350.64653693 174.16729114 350.66835695 170.45146465 350.69561005 C166.71812734 350.70691809 162.98528492 350.70957064 159.25195599 350.69516754 C156.93699944 350.68779097 154.62192796 350.69596144 152.30710125 350.72156525 C151.25863522 350.72113724 150.21016918 350.72070923 149.12993145 350.72026825 C148.21189236 350.72726242 147.29385326 350.73425659 146.3479948 350.74146271 C143.21017785 350.30631103 141.33458095 349.20043871 138.76396465 347.38311005 C136.19206786 343.95391432 136.26182265 340.54371518 136.76396465 336.38311005 C138.54872706 333.41071764 140.6160452 330.95706977 143.76396465 329.38311005 C146.16956739 329.22702982 148.55099237 329.12506546 150.95927715 329.0667038 C152.02044247 329.03553215 152.02044247 329.03553215 153.10304546 329.00373077 C155.3649189 328.93829927 157.62690927 328.87938031 159.88896465 328.82061005 C161.42152887 328.77741872 162.95408123 328.73380423 164.4866209 328.68975067 C168.24561538 328.58262449 172.00472758 328.48133914 175.76396465 328.38311005 C175.20104717 327.46247772 174.63812969 326.5418454 174.05815411 325.59331512 C165.08062755 310.76717942 160.36354159 295.23964798 160.38896465 277.82061005 C160.38912579 276.77864471 160.38928692 275.73667938 160.38945293 274.66313934 C160.53469262 264.71116299 161.90803599 254.85094849 165.95927715 245.6760788 C166.91172577 242.96206259 166.72724513 242.05280902 165.76396465 239.38311005 C164.37519625 237.58405498 164.37519625 237.58405498 162.6038084 235.92998505 C161.66118145 235.00186005 161.66118145 235.00186005 160.69951153 234.05498505 C159.71047832 233.10365692 159.71047832 233.10365692 158.70146465 232.13311005 C158.038242 231.48342255 157.37501934 230.83373505 156.69169903 230.16436005 C155.05567148 228.56364245 153.41305553 226.97034812 151.76396465 225.38311005 C150.88611309 226.5103952 150.88611309 226.5103952 149.99052715 227.6604538 C143.7006595 235.3517481 136.63751509 240.56301854 126.5881834 241.7620163 C117.38916717 242.0971156 110.00808774 240.1159875 102.76396465 234.38311005 C97.83864683 244.09982465 93.05331117 253.880848 88.32646465 263.69561005 C87.76523907 264.85657196 87.20401348 266.01753387 86.62578106 267.21367645 C84.09177645 272.47072463 81.58607831 277.73259736 79.20927715 283.06279755 C74.18220564 294.28202206 69.8240088 302.88600601 57.84208965 307.6917038 C49.42604606 310.49177845 41.68772235 310.09004657 33.44365215 306.77373505 C24.58303047 302.17551155 19.86968087 295.70025869 16.76396465 286.38311005 C16.02364849 276.37063731 16.09255743 267.3257188 22.52958965 259.1370163 C27.94554357 253.32659329 34.6727624 248.78696354 42.7678709 248.1448288 C52.91262125 247.93324783 60.29699643 249.73846456 68.76396465 255.38311005 C69.01452618 254.56431366 69.2650877 253.74551727 69.523242 252.90190887 C70.96431586 248.81489637 72.74295931 244.98575302 74.61552715 241.0823288 C74.99325268 240.28768723 75.3709782 239.49304565 75.76014996 238.67432404 C76.96650905 236.13819192 78.17758683 233.60434822 79.38896465 231.07061005 C80.57313472 228.58550366 81.75632731 226.09993385 82.93934917 223.6142807 C83.72250363 221.97000381 84.50670141 220.32622343 85.29194927 218.68294525 C87.22174817 214.64154934 89.13559041 210.59400982 91.0154295 206.52910614 C91.55265133 205.37158592 91.55265133 205.37158592 92.10072613 204.19068146 C92.77114962 202.74349014 93.43778907 201.29453703 94.0998106 199.84348297 C98.54280872 190.26934486 103.94395032 185.21571196 113.76396465 181.38311005 C121.54362492 178.99408052 129.61483275 179.92119149 137.06865215 182.9260788 C142.02416106 185.60492637 145.82942226 189.40258802 149.76396465 193.38311005 C150.46392559 194.08178192 151.16388653 194.7804538 151.8850584 195.50029755 C153.21255288 196.83037973 154.53554401 198.16497297 155.8538084 199.5042038 C157.66040961 201.28124915 159.52093622 202.93026543 161.45146465 204.57061005 C167.56034247 209.81028881 173.11603644 215.65769502 178.76396465 221.38311005 C182.3197476 218.40786309 185.69570015 215.48889374 188.82646465 212.07061005 C203.01322863 197.78926765 224.96997359 189.50738148 244.76396465 188.38311005 C245.60572247 188.33025848 246.44748028 188.27740692 247.3147459 188.2229538 C271.46564768 187.45466785 295.39597644 195.55931606 313.26396465 211.94561005 C321.00529366 219.30740012 327.5626991 226.99237528 332.76396465 236.38311005 C332.76396465 237.04311005 332.76396465 237.70311005 332.76396465 238.38311005 C333.85708965 237.69088348 334.95021465 236.99865692 336.07646465 236.2854538 C349.27447492 227.9346864 362.50371274 219.63468517 375.76396465 211.38311005 C376.65728497 210.82575165 377.55060528 210.26839325 378.4709959 209.6941452 C380.91954783 208.16844469 383.37218439 206.6495738 385.82646465 205.13311005 C386.533596 204.69152557 387.24072735 204.2499411 387.96928692 203.79497528 C397.62303216 197.86112897 406.27229179 195.42618132 417.6116209 198.03936005 C425.79535542 200.97386763 431.71343961 205.83384146 435.70146465 213.57061005 C439.74322609 222.2706728 439.88425931 230.90673682 436.7913084 240.00029755 C433.2656204 248.17774881 427.66369466 252.54681944 419.76396465 256.38311005 C410.97021575 259.77718857 402.35884772 259.04877908 393.76396465 255.38311005 C385.90563818 251.0282293 381.66071007 244.25696738 377.76396465 236.38311005 C373.99264443 238.73649738 370.22200084 241.09096679 366.45146465 243.44561005 C365.39894512 244.10238739 364.34642559 244.75916473 363.26201153 245.43584442 C361.69096661 246.41714325 361.69096661 246.41714325 360.0881834 247.4182663 C359.04065899 248.07198212 357.99313457 248.72569794 356.913867 249.39922333 C352.88844344 251.93453505 348.90001685 254.52575581 344.91948223 257.13091278 C342.76396465 258.38311005 342.76396465 258.38311005 340.76396465 258.38311005 C341.22802715 259.83717255 341.22802715 259.83717255 341.70146465 261.32061005 C348.27493668 284.58417419 340.75272177 307.97541825 329.76396465 328.38311005 C373.98396465 328.71311005 418.20396465 329.04311005 463.76396465 329.38311005 C463.61533572 275.0207908 463.61533572 275.0207908 463.45732403 220.65850067 C463.43535651 213.33924634 463.4134513 206.01999183 463.3916502 198.700737 C463.38891501 197.78332664 463.38617983 196.86591629 463.38336176 195.92070562 C463.33923535 181.08974678 463.29862931 166.25878027 463.25931204 151.42780799 C463.21891507 136.21895449 463.17476175 121.01011527 463.1270861 105.80128282 C463.09776263 96.40880157 463.07140557 87.01632144 463.04878568 77.62382161 C463.03301613 71.1920872 463.01361382 64.76037031 462.99129624 58.32865531 C462.97850941 54.61216825 462.96738029 50.89569476 462.96054554 47.17919159 C462.95311168 43.15953358 462.93805677 39.13994144 462.92218304 35.12030792 C462.92071588 33.33873192 462.92071588 33.33873192 462.91921908 31.52116448 C462.91374463 30.45325438 462.90827019 29.38534429 462.90262985 28.28507328 C462.89997181 27.35589763 462.89731377 26.42672198 462.89457518 25.4693895 C462.9955892 23.39422007 462.9955892 23.39422007 461.76396465 22.38311005 C459.288879 22.28338501 456.8416546 22.24948619 454.36601543 22.25726891 C453.57837905 22.25581546 452.79074266 22.25436202 451.97923851 22.25286454 C449.30589927 22.24917774 446.6326161 22.25270327 443.95927715 22.2561264 C442.03696952 22.25497564 440.1146621 22.25338842 438.19235516 22.25139916 C432.88340581 22.24719966 427.5744743 22.24929931 422.26552486 22.25238538 C416.55040391 22.25463675 410.83528615 22.25116118 405.12016582 22.24840546 C393.91374184 22.24394593 382.70732452 22.24492503 371.50090027 22.2478181 C362.39766987 22.25007142 353.29444135 22.25038496 344.19121075 22.24929428 C342.89831662 22.24914105 341.6054225 22.24898781 340.27334976 22.24882994 C337.64731502 22.24851023 335.02128029 22.24818602 332.39524555 22.24785735 C308.44253948 22.24508351 284.48983703 22.24796589 260.53713155 22.25319994 C238.65180313 22.25794586 216.76648052 22.25752125 194.88115215 22.25273895 C170.31634708 22.24738914 145.75154553 22.24527672 121.18673992 22.24835122 C118.57006613 22.24866978 115.95339235 22.24898415 113.33671856 22.24929428 C112.04907887 22.24944856 110.76143919 22.24960283 109.43478012 22.24976178 C100.33666245 22.25062721 91.23854684 22.24916351 82.1404295 22.24681473 C71.06122707 22.24401753 59.98203173 22.24475328 48.90283012 22.25009547 C43.24410073 22.25273358 37.58538318 22.25373572 31.92665386 22.25044632 C26.75531793 22.24748558 21.58400492 22.24907241 16.41267109 22.25442387 C14.53315345 22.25554902 12.65363391 22.25495475 10.77411747 22.25254808 C8.23668799 22.24954604 5.69933901 22.25258655 3.16191387 22.25726891 C2.0448457 22.25375716 2.0448457 22.25375716 0.90521049 22.25017446 C-2.45060613 21.96692883 -2.45060613 21.96692883 -5.23603535 23.38311005 C-5.33403925 25.00333589 -5.36159084 26.6278581 -5.36187649 28.25104523 C-5.36578811 29.84153513 -5.36578811 29.84153513 -5.36977875 31.46415615 C-5.36754803 32.64340947 -5.36531731 33.82266279 -5.36301899 35.03765106 C-5.36535898 36.89997423 -5.36535898 36.89997423 -5.36774623 38.79992008 C-5.37105967 42.26182754 -5.36984694 45.72368124 -5.36676002 49.1855855 C-5.36450788 52.9129585 -5.36798459 56.64032662 -5.37073994 60.36769867 C-5.37519864 67.67584199 -5.37422073 74.98397506 -5.3713273 82.29211879 C-5.36907365 88.228873 -5.36876057 94.16562433 -5.36985111 100.10237885 C-5.37000435 100.94566445 -5.37015758 101.78895005 -5.37031545 102.65778977 C-5.37063516 104.3706305 -5.37095938 106.08347124 -5.37128805 107.79631197 C-5.37414313 123.877181 -5.37085537 139.95804433 -5.36548768 156.03891242 C-5.36101962 169.85254104 -5.36179554 183.66616126 -5.36640644 197.47978973 C-5.3717517 213.50108574 -5.37386844 229.52237675 -5.37079418 245.54367352 C-5.37047561 247.25039609 -5.37016124 248.95711867 -5.36985111 250.66384125 C-5.36969684 251.50369507 -5.36954256 252.34354889 -5.36938361 253.20885283 C-5.36851831 259.14203133 -5.36998161 265.07520669 -5.37233067 271.0083847 C-5.37512833 278.23383998 -5.37439112 285.45928438 -5.36904992 292.6847384 C-5.36641245 296.37491088 -5.36540861 300.06506521 -5.36869907 303.75523758 C-5.3722042 307.74635845 -5.36803378 311.73744925 -5.36301899 315.72856903 C-5.36636507 317.49744901 -5.36636507 317.49744901 -5.36977875 319.30206394 C-5.36717101 320.36239055 -5.36456326 321.42271715 -5.36187649 322.51517487 C-5.36163296 323.89901194 -5.36163296 323.89901194 -5.36138451 325.31080532 C-5.46647407 327.37371247 -5.46647407 327.37371247 -4.23603535 328.38311005 C-2.23793448 328.49108646 -0.23604239 328.52939748 1.76494122 328.54082489 C3.0500761 328.55108704 4.33521099 328.56134918 5.65928936 328.5719223 C6.35074299 328.57536022 7.04219662 328.57879814 7.75460339 328.58234024 C9.91526831 328.59410569 12.07573121 328.61355399 14.23631573 328.6354599 C20.38104278 328.69714186 26.5257522 328.75106058 32.67070293 328.78447723 C36.42622105 328.8054525 40.18137615 328.84078395 43.93668652 328.88523483 C45.36712899 328.89937911 46.79763576 328.90811374 48.22814465 328.91128922 C50.23397847 328.91621118 52.23973352 328.94100249 54.24540997 328.96660614 C55.9563081 328.97873642 55.9563081 328.97873642 57.70176983 328.99111176 C61.71808172 329.50524867 64.56712834 330.8443205 67.07646465 334.07061005 C68.10714819 337.53745467 68.34875524 340.83209254 67.76396465 344.38311005 C65.63948195 347.82623718 64.61543824 349.09928552 60.76396465 350.38311005 C58.59408324 350.49775044 56.42087609 350.55247909 54.24809551 350.57598114 C53.59072399 350.58415863 52.93335247 350.59233612 52.2560606 350.60076141 C50.08031896 350.62557018 47.90464268 350.64212552 45.7288084 350.65654755 C44.98279432 350.66187122 44.23678024 350.6671949 43.46815968 350.6726799 C39.51444433 350.69940021 35.56076033 350.718773 31.60698223 350.7332077 C28.3488817 350.74650872 25.09141317 350.77429038 21.83354473 350.81523895 C17.88776588 350.86482598 13.94255706 350.88936097 9.99647999 350.89643478 C8.50028604 350.90310711 7.00410279 350.91822329 5.50808811 350.94232559 C-4.70737608 351.09743067 -12.65284406 350.10734883 -20.67353535 343.32061005 C-21.18916035 342.68123505 -21.70478535 342.04186005 -22.23603535 341.38311005 C-22.77228535 340.74373505 -23.30853535 340.10436005 -23.86103535 339.44561005 C-26.59041278 335.3515439 -27.48603376 331.77665019 -27.49330425 326.88636303 C-27.50297759 325.23815124 -27.50297759 325.23815124 -27.51284635 323.55664223 C-27.50974915 322.35490563 -27.50665194 321.15316903 -27.50346088 319.91501617 C-27.507992 318.63415314 -27.51252311 317.3532901 -27.51719153 316.03361303 C-27.52942636 312.48023458 -27.5291605 308.92695025 -27.52680278 305.37355554 C-27.52639473 301.54044733 -27.5374326 297.70736934 -27.54691792 293.87427521 C-27.56353159 286.36513756 -27.56902763 278.85603131 -27.57014267 271.34687682 C-27.57109298 265.24294062 -27.57520243 259.13901479 -27.58154392 253.03508186 C-27.59915743 235.72915873 -27.60838264 218.42326041 -27.60688297 201.11732825 C-27.60680306 200.18434044 -27.60672315 199.25135263 -27.60664082 198.29009247 C-27.60655905 197.35596542 -27.60647729 196.42183837 -27.60639305 195.45940445 C-27.60558015 180.32047913 -27.62471864 165.1816533 -27.65291755 150.04275676 C-27.68164377 134.49810215 -27.69545798 118.95349608 -27.69373 103.40881425 C-27.693066 94.68171476 -27.69856257 85.95471956 -27.7200861 77.22764397 C-27.73829446 69.79712988 -27.74264811 62.36676737 -27.72906725 54.93624064 C-27.72253577 51.14583492 -27.72242658 47.35572003 -27.73977375 43.56534195 C-27.75839589 39.45405934 -27.74595475 35.34345047 -27.73051167 31.23215485 C-27.74079879 30.03711041 -27.75108592 28.84206598 -27.76168478 27.61080807 C-27.696099 19.71969287 -26.61743485 14.32226616 -21.3415041 8.1760788 C-20.70857441 7.64627411 -20.07564472 7.11646942 -19.42353535 6.57061005 C-18.79834003 6.02791473 -18.17314472 5.48521942 -17.5290041 4.9260788 C-11.79074775 1.06473083 -6.85275164 -0.05981044 0 0 Z M115.76396465 204.38311005 C113.6629487 207.05713034 113.7654949 208.4259569 113.88896465 211.88311005 C114.86210719 215.77568019 115.47400894 217.13208771 118.76396465 219.38311005 C122.66658514 220.44746109 124.82276395 220.7805059 128.57646465 219.19561005 C130.93316083 217.24291893 131.94722975 216.32335571 132.76396465 213.38311005 C132.6280275 209.5768699 132.30288209 207.17075861 130.13896465 204.00811005 C125.09566556 200.55743172 120.47157351 200.48251985 115.76396465 204.38311005 Z M197.9709959 232.7776413 C196.5031939 234.72996047 195.89554572 235.93006297 195.76396465 238.38311005 C197.12486758 240.39314383 197.12486758 240.39314383 199.20146465 242.19561005 C200.32101543 243.24941864 200.32101543 243.24941864 201.4631834 244.3245163 C204.10303297 246.68648696 206.77882278 249.00235832 209.46708965 251.3088913 C214.43033683 255.79100737 219.07179865 260.62056155 223.76396465 265.38311005 C224.3363084 264.64318817 224.90865215 263.9032663 225.49833965 263.14092255 C230.6067112 256.92280132 236.56850271 250.78299824 244.76396465 249.38311005 C254.95124559 248.41928347 263.73122592 249.40058998 272.07646465 255.63311005 C276.33122573 259.98681905 279.10025294 264.94671659 281.76396465 270.38311005 C285.11022033 269.12821841 288.0527715 267.70544714 291.0569334 265.77373505 C291.84801495 265.26874481 292.63909649 264.76375458 293.4541502 264.24346161 C294.69032085 263.44633759 294.69032085 263.44633759 295.95146465 262.63311005 C297.64884569 261.54893768 299.3467578 260.46559627 301.04521465 259.38311005 C301.85732403 258.86490692 302.6694334 258.3467038 303.50615215 257.81279755 C307.54428783 255.25577738 311.64045526 252.79997416 315.76396465 250.38311005 C307.65629034 232.6386825 293.03235158 220.35896409 274.96708965 213.3792038 C246.23134762 204.4430889 219.41350141 211.64816507 197.9709959 232.7776413 Z M399.76396465 222.38311005 C398.35395802 225.20312332 398.51848015 227.2531826 398.76396465 230.38311005 C400.02685124 233.16146054 401.11618176 234.87413777 403.51396465 236.75811005 C406.90508552 237.70008806 409.37387669 237.23063204 412.76396465 236.38311005 C415.97174628 234.18831209 416.65530541 232.74983498 417.76396465 229.00811005 C417.76396465 224.5464252 416.58394708 222.76708896 413.76396465 219.38311005 C408.27353819 216.63789681 403.86247945 218.28459525 399.76396465 222.38311005 Z M184.76396465 257.38311005 C178.77287155 270.96292108 180.61448221 288.86024822 185.76396465 302.38311005 C193.82509637 321.64985658 208.48881807 335.41421519 227.76396465 343.38311005 C245.4975723 350.11989954 265.3129377 349.42902592 282.5959959 341.7229538 C300.08517329 333.37469225 313.26099566 318.71702575 319.76396465 300.38311005 C323.81457734 285.64399232 323.81457734 285.64399232 320.76396465 271.38311005 C310.96158517 277.31294455 301.22754907 283.33466741 291.57646465 289.50811005 C258.75363002 310.43725311 258.75363002 310.43725311 245.25615215 307.91436005 C234.95211611 305.2674517 228.63489818 298.40616803 221.40458965 291.0276413 C219.33086963 288.95085364 217.25586923 287.01923411 215.01396465 285.13311005 C210.87137059 281.60676965 207.08927509 277.74531007 203.26396465 273.88311005 C194.5586702 264.99726712 194.5586702 264.99726712 184.76396465 257.38311005 Z M38.76396465 273.38311005 C37.19460872 276.52182192 37.41195362 278.92166826 37.76396465 282.38311005 C40.19249847 285.66877344 41.88671279 287.09069276 45.76396465 288.38311005 C49.47991199 288.38311005 50.92135978 287.76475196 53.76396465 285.38311005 C56.10063298 281.99117215 56.92038708 280.36075023 56.26396465 276.25811005 C54.49705476 272.87153274 53.05205682 271.3260736 49.76396465 269.38311005 C44.6851212 268.53663614 42.39298045 269.85778042 38.76396465 273.38311005 Z M243.76396465 273.38311005 C242.19460872 276.52182192 242.41195362 278.92166826 242.76396465 282.38311005 C245.19249847 285.66877344 246.88671279 287.09069276 250.76396465 288.38311005 C254.45001956 288.38311005 255.91321821 287.69452608 258.76396465 285.38311005 C261.11248746 282.48659859 261.77797694 281.06971187 261.70146465 277.32061005 C260.63756993 273.98707326 259.44828409 272.5793714 256.76396465 270.38311005 C251.46578045 267.73401795 247.75547085 269.50564688 243.76396465 273.38311005 Z M199.76396465 398.38311005 C196.25277248 406.79119877 193.28084284 415.36921701 190.34208965 423.9885788 C190.09200901 424.72088526 189.84192837 425.45319172 189.58426952 426.20768929 C188.26483073 430.07261642 186.94882732 433.93869374 185.63554668 437.80571747 C184.28398996 441.78301584 182.91996354 445.7559217 181.55319881 449.72801495 C180.49776901 452.80291696 179.4518261 455.88098563 178.40839672 458.9599781 C177.90961681 460.42633011 177.40727293 461.8914751 176.90120983 463.35532951 C176.19464021 465.40192222 175.50172668 467.45267776 174.81181622 469.50493622 C174.41528851 470.66724258 174.0187608 471.82954895 173.61021709 473.02707672 C172.30790976 478.19171388 172.0011653 481.93923984 174.51396465 486.69561005 C176.69259136 489.29785862 177.70026479 490.1901154 180.76396465 491.38311005 C182.95911088 491.63314099 182.95911088 491.63314099 185.20146465 491.38311005 C185.94267559 491.34186005 186.68388653 491.30061005 187.4475584 491.25811005 C191.43349996 489.75245927 193.86868331 486.25956431 195.66290569 482.49898529 C196.47354046 480.36966547 197.19632914 478.22820944 197.8928709 476.0588913 C198.16436459 475.25136414 198.43585827 474.44383698 198.71557903 473.61183929 C199.59840678 470.97708673 200.46253484 468.33661294 201.32646465 465.69561005 C201.93532277 463.86549558 202.54552715 462.03582849 203.15703106 460.20659637 C204.0954281 457.39800004 205.0325286 454.58902425 205.96434307 451.77823639 C208.04256871 445.51180787 210.17297913 439.26570295 212.3459959 433.03154755 C212.76737583 431.81959969 212.76737583 431.81959969 213.19726849 430.58316803 C214.27327994 427.48903573 215.34945588 424.3950013 216.43489361 421.30416107 C217.17258603 419.20086797 217.90266281 417.09507375 218.63115215 414.9885788 C219.04478008 413.80417206 219.45840801 412.61976532 219.88457012 411.39946747 C220.95055772 408.26674419 220.95055772 408.26674419 220.76396465 404.38311005 C217.8289387 403.37574377 214.89057004 402.37850501 211.95146465 401.38311005 C211.11808575 401.09693817 210.28470684 400.8107663 209.42607403 400.51592255 C208.62363262 400.24521942 207.82119122 399.9745163 206.9944334 399.69561005 C206.25604229 399.44424286 205.51765118 399.19287567 204.75688457 398.9338913 C202.62663586 398.24991854 202.62663586 398.24991854 199.76396465 398.38311005 Z " fill="#12B8C8" transform="translate(27.236035346984863,-0.38311004638671875)"/>
<path d="M0 0 C4.53986866 3.24828536 8.80920614 6.83301416 13.08740234 10.4140625 C16.03277863 12.85638627 19.04521064 15.21004432 22.0625 17.5625 C25.6815605 20.39245368 29.29352372 23.22998084 32.8828125 26.09765625 C33.51952881 26.60417725 34.15624512 27.11069824 34.81225586 27.63256836 C36.03449058 28.60529598 37.25418909 29.58122157 38.47094727 30.56079102 C40.97873639 32.55107067 42.93526692 33.97842231 46 35 C46.41958984 34.23816406 46.41958984 34.23816406 46.84765625 33.4609375 C51.36523357 25.7040684 56.67079758 20.77864768 65.1953125 17.6953125 C74.19444216 15.46433049 82.96388073 16.36271884 91 21 C98.08640872 25.70347903 102.14137969 31.90325184 104.61328125 40.01171875 C106.25765124 48.46610589 104.96636809 57.07174826 100.5234375 64.453125 C95.53131733 71.33723592 89.56010581 76.02046121 81.12109375 77.71484375 C71.11028265 79.06068023 62.6729969 77.6049502 54.4609375 71.44921875 C51.20993662 68.89944749 48.04710527 66.24859543 44.89208984 63.58154297 C41.98312188 61.1500211 38.99333613 58.82621582 36 56.5 C32.25960748 53.58038159 28.54176955 50.63711791 24.859375 47.64453125 C23.83070313 46.81115234 23.83070313 46.81115234 22.78125 45.9609375 C21.44978614 44.88040337 20.12153204 43.79589934 18.796875 42.70703125 C15.7820228 39.93890243 15.7820228 39.93890243 12 39 C10.69292339 40.82602543 10.69292339 40.82602543 9.375 43.125 C4.92404304 49.97925818 -0.70119991 54.27039878 -8.59375 56.52734375 C-15.65318851 57.91401917 -21.57375969 57.3427345 -28.35546875 54.97265625 C-29.94911255 54.42170288 -29.94911255 54.42170288 -31.57495117 53.85961914 C-32.37521729 53.57594482 -33.1754834 53.29227051 -34 53 C-34.19965363 53.64400253 -34.39930725 54.28800507 -34.60501099 54.95152283 C-36.697138 61.68976589 -38.80957314 68.42140231 -40.93359375 75.1496582 C-41.72228727 77.6571541 -42.50589285 80.1662565 -43.28417969 82.67700195 C-44.40767543 86.29819251 -45.54970715 89.91309573 -46.6953125 93.52734375 C-47.2066423 95.19663185 -47.2066423 95.19663185 -47.728302 96.89964294 C-51.38294107 108.30140002 -56.77630524 117.13016352 -67.5 122.875 C-76.09207969 125.66659009 -86.62032281 125.2488824 -94.78515625 121.390625 C-105.22968774 114.8328592 -108.98851631 104.80376432 -112.453125 93.515625 C-112.75820984 92.53760925 -113.06329468 91.55959351 -113.37762451 90.55194092 C-114.01616409 88.49904417 -114.65130791 86.44508838 -115.28320312 84.39013672 C-116.25223525 81.24273995 -117.23471585 78.09976582 -118.21875 74.95703125 C-118.83934427 72.95597791 -119.45916337 70.95468395 -120.078125 68.953125 C-120.37180969 68.01454651 -120.66549438 67.07596802 -120.96807861 66.10894775 C-121.23545837 65.23413757 -121.50283813 64.35932739 -121.77832031 63.45800781 C-122.01496399 62.69159973 -122.25160767 61.92519165 -122.49542236 61.13555908 C-123 59 -123 59 -123 55 C-123.53109375 55.27714844 -124.0621875 55.55429688 -124.609375 55.83984375 C-125.31578125 56.20207031 -126.0221875 56.56429687 -126.75 56.9375 C-127.44609375 57.29714844 -128.1421875 57.65679687 -128.859375 58.02734375 C-135.56557926 61.0745059 -143.86450258 61.12583622 -150.8984375 59.2109375 C-155.20456723 57.51693451 -159.0436013 55.3909378 -163 53 C-163.4125 53.83547363 -163.825 54.67094727 -164.25 55.53173828 C-165.81965883 58.70565501 -167.39321731 61.87758031 -168.96923828 65.04833984 C-169.64360002 66.40696631 -170.31651095 67.76631409 -170.98779297 69.12646484 C-174.574271 76.39083038 -178.23541523 83.60617716 -182.1875 90.6796875 C-182.79980469 91.77780762 -183.41210938 92.87592773 -184.04296875 94.00732422 C-188.55765746 100.91114835 -195.0612433 106.11060378 -203.0625 108.3125 C-212.34643611 109.93350472 -220.29260496 108.36122195 -228.5 103.75 C-238.54954568 96.56166065 -244.51344708 82.61231178 -250.59375 72.12109375 C-253.94852067 66.34388552 -257.46924005 60.67091333 -261 55 C-261.4846875 55.39832031 -261.969375 55.79664063 -262.46875 56.20703125 C-271.94635186 63.69798195 -279.82629901 65.15440268 -292 64 C-299.62138358 62.13896447 -306.44200033 57.11945853 -310.57421875 50.46484375 C-314.98134313 41.89052441 -316.68774319 33.68590339 -313.75 24.25 C-310.74462729 16.35570302 -305.49434953 10.10894264 -298.1015625 5.92578125 C-289.64005169 2.13842379 -281.52462049 2.25649373 -272.75390625 4.94140625 C-260.60734914 9.61050835 -255.28858271 21.36777705 -249 32 C-247.3620143 34.744588 -245.72146352 37.48761878 -244.0793457 40.22973633 C-243.04990212 41.95396282 -242.02601691 43.68152385 -241.00854492 45.4128418 C-238.5771347 49.52337259 -236.1226527 53.36181502 -233 57 C-232.5875 56.60167969 -232.175 56.20335937 -231.75 55.79296875 C-223.91527646 48.60530943 -217.12026741 47.43199717 -206.63671875 47.640625 C-201.77695293 48.12085965 -198.14300581 49.49239122 -194 52 C-192.33351144 53.00029679 -190.66686282 54.00032699 -189 55 C-188.42556152 53.83017578 -187.85112305 52.66035156 -187.25927734 51.45507812 C-185.1093882 47.08245691 -182.94862281 42.71528442 -180.78466797 38.34960938 C-179.85269251 36.46564375 -178.92360411 34.58024688 -177.99755859 32.69335938 C-176.6597417 29.9687635 -175.31134721 27.24962221 -173.9609375 24.53125 C-173.35117569 23.28075867 -173.35117569 23.28075867 -172.72909546 22.00500488 C-167.51134812 11.56556881 -161.6451231 4.11467978 -150.625 -0.375 C-140.33732778 -2.14873659 -131.34155078 -1.18502963 -122.484375 4.66015625 C-111.54201326 13.48288832 -108.91313704 28.09648386 -105.06860352 41.03662109 C-104.18055994 44.02334122 -103.27965741 47.00596313 -102.37695312 49.98828125 C-101.80654093 51.88779555 -101.23685275 53.78752746 -100.66796875 55.6875 C-100.39929489 56.57808105 -100.13062103 57.46866211 -99.85380554 58.38623047 C-99.60967422 59.2113916 -99.36554291 60.03655273 -99.11401367 60.88671875 C-98.89815109 61.61076904 -98.68228851 62.33481934 -98.45988464 63.08081055 C-98 65 -98 65 -98 68 C-97.33613281 67.72285156 -96.67226563 67.44570312 -95.98828125 67.16015625 C-95.10527344 66.79792969 -94.22226562 66.43570313 -93.3125 66.0625 C-92.00732422 65.52302734 -92.00732422 65.52302734 -90.67578125 64.97265625 C-80.20597745 61.16684436 -70.88229378 63.7176727 -61 68 C-60.90033936 67.06462402 -60.80067871 66.12924805 -60.69799805 65.16552734 C-59.96423343 60.06882722 -58.3781455 55.25088897 -56.83203125 50.3515625 C-56.51473557 49.33959808 -56.19743988 48.32763367 -55.87052917 47.28500366 C-55.19855898 45.15095271 -54.52347144 43.01788114 -53.84545898 40.88574219 C-52.81943639 37.64689609 -51.81472652 34.40192403 -50.81054688 31.15625 C-50.15234694 29.07510757 -49.49288232 26.9943646 -48.83203125 24.9140625 C-48.39102837 23.47457748 -48.39102837 23.47457748 -47.94111633 22.00601196 C-44.43917349 11.17185957 -39.14549992 3.58510017 -29.16796875 -2.03125 C-19.94812898 -6.22385082 -8.53778988 -5.17926447 0 0 Z M-24 20 C-26.10101595 22.6740203 -25.99846976 24.04284685 -25.875 27.5 C-24.90185747 31.39257014 -24.28995572 32.74897767 -21 35 C-17.09737951 36.06435104 -14.94120071 36.39739585 -11.1875 34.8125 C-8.83080382 32.85980888 -7.81673491 31.94024566 -7 29 C-7.13593715 25.19375985 -7.46108256 22.78764856 -9.625 19.625 C-14.66829909 16.17432168 -19.29239114 16.0994098 -24 20 Z M-147.375 22 C-150.47451041 25.54229761 -151.08351317 27.32326241 -151 32 C-149.77175515 34.90900097 -148.73808187 36.46552692 -146.1875 38.3125 C-143.23367076 39.24084633 -141.084218 39.37765935 -138 39 C-135.30009338 37.20006226 -133.4581135 35.916227 -132 33 C-131.51190858 28.68852575 -131.49744202 26.70053537 -134.0625 23.125 C-138.92161715 19.60989398 -142.12056225 18.88625911 -147.375 22 Z M-291 27 C-293.31141604 29.85074644 -294 31.3139451 -294 35 C-292.70758271 38.87725186 -291.2856634 40.57146618 -288 43 C-283.69725091 43.69151325 -281.79054688 43.51557405 -278.125 41.125 C-275.6528747 38.6528747 -275.09494021 37.6962282 -274.625 34.25 C-275.13909168 29.79453881 -276.75747899 28.03105225 -280 25 C-284.68155554 23.34194908 -287.16766218 23.89269907 -291 27 Z M66 42 C64.43064406 45.13871188 64.64798897 47.53855822 65 51 C67.53541172 54.53421028 69.30461442 55.77241926 73.4375 57.125 C77.14233356 57.27995351 77.14233356 57.27995351 80.375 55 C83.47451041 51.45770239 84.08351317 49.67673759 84 45 C82.77175515 42.09099903 81.73808187 40.53447308 79.1875 38.6875 C73.4521659 36.88496643 70.27361932 37.84848409 66 42 Z M-219 73 C-220.45147903 75.90295805 -220.37239025 77.77261779 -220 81 C-217.65515408 84.65520099 -216.1275273 86.60066741 -212 88.0625 C-207.52870197 87.96934796 -205.36175783 86.22558204 -202.125 83.3125 C-200.41231586 79.7919826 -200.80158464 76.61004134 -202 73 C-204.73947834 69.77708431 -206.3148088 69.09788446 -210.5 68.5 C-214.53761333 69.0768019 -216.14650217 70.14650217 -219 73 Z M-86 87 C-88.35817491 89.35817491 -88.94278258 90.61582593 -89.4375 93.9375 C-88.89919863 97.70560958 -87.62436976 99.29844289 -85 102 C-81.86128812 103.56935594 -79.46144178 103.35201103 -76 103 C-72.7143366 100.57146618 -71.29241729 98.87725186 -70 95 C-70 91.3139451 -70.68858396 89.85074644 -73 87 C-78.13864941 83.27447918 -80.83996348 83.38797444 -86 87 Z " fill="#12B8C8" transform="translate(361,45)"/>
<path d="M0 0 C3.5420773 3.09931764 4.84372778 4.88656044 5.5 9.5625 C4.86922578 13.89907279 3.80650145 16.64512391 0.25 19.3125 C-4.06801237 20.63189267 -7.68329318 20.58520303 -11.8125 18.75 C-15.32402485 15.94078012 -15.86171307 14.06678489 -16.4375 9.625 C-15.85406422 4.79081782 -14.44960332 3.36937999 -11 0 C-7.1313778 -1.28954073 -3.85347057 -1.20702094 0 0 Z " fill="#12B8C8" transform="translate(135,330)"/>
</svg>
