<svg version="1.1" xmlns="http://www.w3.org/2000/svg" width="512" height="512">
<path d="M0 0 C3.58598889 2.54054385 6.15992797 5.04327701 8.4921875 8.765625 C8.90210938 9.38695312 9.31203125 10.00828125 9.734375 10.6484375 C13.66816864 17.78352527 13.00425624 25.87472965 12.4921875 33.765625 C12.2260946 34.55529757 11.9600017 35.34497015 11.68584538 36.1585722 C11.19977496 38.93862654 11.19977496 38.93862654 13.33692837 41.34865284 C14.26701749 42.2732112 15.19710661 43.19776957 16.15538025 44.15034485 C16.92589001 44.92854443 16.92589001 44.92854443 17.71196562 45.72246522 C19.44237533 47.46278322 21.19340891 49.18074944 22.94506836 50.8996582 C24.18757261 52.14047059 25.42875829 53.38260455 26.66871643 54.6259613 C30.04379141 58.00276172 33.43708105 61.36071129 36.83385921 64.71566033 C40.37864293 68.22300207 43.90650512 71.74727902 47.43617249 75.26982117 C54.12496182 81.93994254 60.82890228 88.59461911 67.53837544 95.24392718 C75.17514421 102.81369186 82.79493524 110.40044811 90.41332424 117.98870337 C106.08741673 133.6000366 121.78278394 149.18983049 137.4921875 164.765625 C141.12521834 163.06976374 143.43767796 161.02762012 146.2421875 158.140625 C147.04140625 157.32335937 147.840625 156.50609375 148.6640625 155.6640625 C149.26734375 155.03757813 149.870625 154.41109375 150.4921875 153.765625 C145.71009887 147.99924403 140.55773561 142.73105464 135.2265625 137.47265625 C133.43215965 135.69088815 131.6378928 133.90898308 129.84375 132.12695312 C127.03217095 129.34027494 124.21901471 126.55522523 121.40332031 123.77270508 C118.67337058 121.07288253 115.94960996 118.36693774 113.2265625 115.66015625 C111.95785309 114.41163628 111.95785309 114.41163628 110.66351318 113.13789368 C109.88220032 112.35995956 109.10088745 111.58202545 108.29589844 110.78051758 C107.26381256 109.75961784 107.26381256 109.75961784 106.21087646 108.71809387 C104.0293676 106.2398513 102.57048259 104.1018612 102.375 100.765625 C102.80956382 97.1769689 103.12793489 95.22387828 105.4296875 92.328125 C108.66573728 89.87657213 111.18772916 89.2347982 115.3013916 89.30052185 C118.00501206 89.87449699 119.14569697 90.84002989 121.16992188 92.70727539 C121.86448486 93.34545197 122.55904785 93.98362854 123.2746582 94.6411438 C127.24316933 98.44313518 131.14933381 102.30113007 135.0234375 106.19921875 C136.33822083 107.5161245 136.33822083 107.5161245 137.67956543 108.8596344 C140.45281546 111.63843996 143.22255032 114.42071897 145.9921875 117.203125 C147.88229555 119.09882365 149.77320268 120.99372283 151.6640625 122.88867188 C156.27609754 127.51167689 160.88525891 132.13753157 165.4921875 136.765625 C169.12521834 135.06976374 171.43767796 133.02762012 174.2421875 130.140625 C175.04140625 129.32335937 175.840625 128.50609375 176.6640625 127.6640625 C177.26734375 127.03757813 177.870625 126.41109375 178.4921875 125.765625 C176.82140477 121.52148628 173.6859146 118.57589042 170.56811523 115.3605957 C169.96114807 114.7276358 169.35418091 114.0946759 168.7288208 113.4425354 C162.36980721 106.82990848 155.93937638 100.28613862 149.50415039 93.74780273 C146.45947548 90.64972956 143.43832766 87.53125282 140.43579102 84.39233398 C136.79919456 80.59102042 133.12405239 76.83121504 129.41905403 73.0965786 C128.02061097 71.67377515 126.63590793 70.23731886 125.26620293 68.78682899 C116.53918123 59.3275681 116.53918123 59.3275681 104.66559696 55.57924938 C102.53241499 55.54544882 100.43755743 55.62106198 98.3082428 55.74235535 C91.37681741 55.78462199 85.75958134 52.54257839 80.56640625 48.12890625 C78.96849094 46.42789963 77.73029046 44.74167013 76.4921875 42.765625 C76.08226563 42.14429688 75.67234375 41.52296875 75.25 40.8828125 C71.40192611 33.90320262 71.24164226 25.50517455 72.4921875 17.765625 C74.89316921 10.18938237 78.70524911 4.01802208 85.4921875 -0.234375 C86.11351562 -0.64429688 86.73484375 -1.05421875 87.375 -1.4765625 C94.35460988 -5.32463639 102.75263795 -5.48492024 110.4921875 -4.234375 C118.06843013 -1.83339329 124.23979042 1.97868661 128.4921875 8.765625 C128.90210938 9.38695312 129.31203125 10.00828125 129.734375 10.6484375 C132.44283034 15.56101511 132.86994873 20.35462063 132.9296875 25.890625 C132.93983887 26.55956787 132.94999023 27.22851074 132.96044922 27.91772461 C132.89789435 31.49172194 132.39825347 34.30436408 130.90234375 37.5078125 C129.4218615 40.92809558 129.24863322 41.47450735 130.4921875 44.765625 C132.43364291 46.98175581 134.38361951 49.03565758 136.48071289 51.09472656 C137.10508743 51.71953918 137.72946198 52.34435181 138.37275696 52.98809814 C140.43808784 55.05133918 142.51384136 57.10375141 144.58984375 59.15625 C146.02396297 60.58477399 147.45742123 62.01396181 148.89024353 63.44378662 C152.66318483 67.20527354 156.44504853 70.95766455 160.2288208 74.70825195 C164.08829952 78.53704282 167.93929974 82.37434021 171.79101562 86.2109375 C179.34978429 93.73753152 186.91800317 101.25454655 194.4921875 108.765625 C195.80541538 107.78743476 197.11774902 106.8080439 198.4296875 105.828125 C199.52603516 105.01021484 199.52603516 105.01021484 200.64453125 104.17578125 C202.4056328 102.89654562 202.4056328 102.89654562 203.4921875 101.765625 C208.04053949 100.98540088 211.96288075 100.78686868 215.93359375 103.328125 C217.89132716 105.0652194 219.72773403 106.83359773 221.4921875 108.765625 C226.72167494 104.39533134 231.59508705 99.79650696 236.39453125 94.9609375 C237.1170961 94.2369577 237.83966095 93.51297791 238.5841217 92.76705933 C240.86835672 90.47727235 243.14907062 88.18401507 245.4296875 85.890625 C246.98739789 84.32789339 248.54533837 82.7653911 250.10351562 81.203125 C253.90240352 77.3932719 257.69841463 73.58057121 261.4921875 69.765625 C260.53735128 68.65025319 259.58231593 67.53505184 258.62719727 66.41992188 C257.82947655 65.48835266 257.82947655 65.48835266 257.01564026 64.53796387 C255.18806868 62.41182236 253.34635223 60.3121664 251.4296875 58.265625 C250.79933594 57.5746875 250.16898437 56.88375 249.51953125 56.171875 C247.58759144 54.50268161 247.58759144 54.50268161 245.21875 55.01953125 C244.31898438 55.26574219 243.41921875 55.51195312 242.4921875 55.765625 C231.74343432 56.69569236 223.57216044 56.19845849 214.4921875 49.765625 C212.00680528 47.652547 210.22115281 45.52509944 208.4921875 42.765625 C208.08226562 42.14429688 207.67234375 41.52296875 207.25 40.8828125 C203.40192611 33.90320262 203.24164226 25.50517455 204.4921875 17.765625 C206.89316921 10.18938237 210.70524911 4.01802208 217.4921875 -0.234375 C218.11351562 -0.64429688 218.73484375 -1.05421875 219.375 -1.4765625 C226.35460988 -5.32463639 234.75263795 -5.48492024 242.4921875 -4.234375 C250.06843013 -1.83339329 256.23979042 1.97868661 260.4921875 8.765625 C260.90210938 9.38695312 261.31203125 10.00828125 261.734375 10.6484375 C265.76333995 17.95614634 265.93023363 28.68058412 263.67333984 36.66113281 C263.15553185 39.9034219 263.15553185 39.9034219 265.45825195 42.47875977 C266.4143335 43.37908936 267.37041504 44.27941895 268.35546875 45.20703125 C269.1162397 45.94227272 269.1162397 45.94227272 269.89237976 46.69236755 C271.51409133 48.2551276 273.15734153 49.79244719 274.8046875 51.328125 C276.43770837 52.8705697 278.06536422 54.4179526 279.68486023 55.97459412 C281.15864009 57.38813834 282.64792814 58.78546053 284.13793945 60.18188477 C286.52167231 62.79798399 287.69199514 64.3398516 288.4921875 67.765625 C288.1932434 73.49901894 286.94584466 76.05550222 282.88061523 80.05834961 C282.40254425 80.53729675 281.92447327 81.0162439 281.43191528 81.50970459 C279.86034528 83.07712013 278.26866756 84.62224647 276.67578125 86.16796875 C275.57731216 87.25523811 274.48016711 88.34384665 273.3842926 89.43373108 C270.5055948 92.28959204 267.60933616 95.12697082 264.70898438 97.96081543 C261.7488989 100.85936784 258.80586421 103.77512087 255.86132812 106.68945312 C250.08812112 112.39843832 244.29623976 118.08800228 238.4921875 123.765625 C240.18804876 127.39865584 242.23019238 129.71111546 245.1171875 132.515625 C245.93445313 133.31484375 246.75171875 134.1140625 247.59375 134.9375 C248.22023438 135.54078125 248.84671875 136.1440625 249.4921875 136.765625 C252.45373748 135.43190083 254.53195544 133.97404575 256.82049561 131.67782593 C257.45705582 131.04401505 258.09361603 130.41020416 258.74946594 129.75718689 C259.43639023 129.06307205 260.12331451 128.36895721 260.83105469 127.65380859 C261.56315659 126.92199875 262.29525848 126.1901889 263.04954529 125.436203 C265.46748859 123.01686671 267.87827119 120.59052387 270.2890625 118.1640625 C271.96442779 116.48496698 273.64023528 114.80631257 275.31646729 113.12808228 C279.72674252 108.71017138 284.13097863 104.28628719 288.53399658 99.86114502 C293.0281567 95.34652513 297.52798488 90.83756267 302.02734375 86.328125 C310.85452446 77.47949554 319.67533748 68.62454725 328.4921875 59.765625 C327.53221623 58.63719813 326.57104946 57.50978821 325.609375 56.3828125 C325.07425293 55.75487793 324.53913086 55.12694336 323.98779297 54.47998047 C322.90881858 53.24319331 321.77775379 52.05119129 320.6171875 50.890625 C318.70462311 47.27800338 318.79213608 43.73944629 319.4921875 39.765625 C320.75062438 36.64495576 321.66423962 35.97142435 324.4921875 33.765625 C328.09473525 32.65616782 330.87484129 32.71780565 334.4921875 33.765625 C338.29821431 36.33167928 341.33404055 39.45291947 344.4921875 42.765625 C345.25144531 43.48105469 346.01070313 44.19648437 346.79296875 44.93359375 C351.59952912 49.47654021 355.36058509 53.21236 355.6171875 60.140625 C353.12531392 68.16999543 345.11316114 74.28690584 339.26196289 80.109375 C338.47090149 80.90058243 337.67984009 81.69178986 336.86480713 82.50697327 C334.27551851 85.09557079 331.68271665 87.68061812 329.08984375 90.265625 C327.28358959 92.07001212 325.47755755 93.87462161 323.67173767 95.67944336 C319.42036023 99.9274058 315.16676603 104.17313588 310.91206402 108.41776752 C306.06356578 113.2550417 301.21794759 118.09519659 296.3725549 122.93558121 C286.41560673 132.88211063 276.4550937 142.82506368 266.4921875 152.765625 C267.43096676 153.8722191 268.37139666 154.97741299 269.3125 156.08203125 C269.83602051 156.69763916 270.35954102 157.31324707 270.89892578 157.94750977 C272.9937666 160.33799085 275.21191221 162.55241663 277.4921875 164.765625 C281.32254729 163.18150545 283.76529933 160.75433525 286.68745422 157.85124207 C287.19793798 157.34670055 287.70842174 156.84215904 288.2343747 156.32232839 C289.94269563 154.6313435 291.64380352 152.93328674 293.3449707 151.23510742 C294.56845836 150.0208784 295.79234006 148.80704632 297.0165863 147.59358215 C300.33946439 144.29692445 303.65566741 140.99363222 306.96990228 137.6882875 C309.03943554 135.62461695 311.11013671 133.56212538 313.18120384 131.49999428 C319.65762625 125.0509074 326.13003991 118.5978371 332.59667045 112.13893145 C340.06824388 104.67633223 347.55272862 97.22700926 355.04869205 89.78891104 C360.83932227 84.04144136 366.61844209 78.28256426 372.38887089 72.51481324 C375.83739029 69.06839414 379.29064033 65.62704907 382.75588417 62.19743919 C386.01204319 58.97411831 389.2537288 55.73692792 392.48468971 52.48835564 C393.67476666 51.29673157 394.87002072 50.11025293 396.0706749 48.92928696 C397.70524703 47.31996558 399.32038032 45.69337545 400.93183899 44.06095886 C402.29705673 42.70014081 402.29705673 42.70014081 403.68985462 41.31183147 C405.78293204 38.92830733 405.78293204 38.92830733 405.29649639 36.15756702 C404.89836349 34.97355572 404.89836349 34.97355572 404.4921875 33.765625 C403.56212014 23.01687182 404.05935401 14.84559794 410.4921875 5.765625 C412.6052655 3.28024278 414.73271306 1.49459031 417.4921875 -0.234375 C418.11351562 -0.64429688 418.73484375 -1.05421875 419.375 -1.4765625 C426.35460988 -5.32463639 434.75263795 -5.48492024 442.4921875 -4.234375 C450.06843013 -1.83339329 456.23979042 1.97868661 460.4921875 8.765625 C460.90210938 9.38695312 461.31203125 10.00828125 461.734375 10.6484375 C465.58244889 17.62804738 465.74273274 26.02607545 464.4921875 33.765625 C462.09120579 41.34186763 458.27912589 47.51322792 451.4921875 51.765625 C450.87085938 52.17554688 450.24953125 52.58546875 449.609375 53.0078125 C442.47428723 56.94160614 434.38308285 56.27769374 426.4921875 55.765625 C425.70251493 55.4995321 424.91284235 55.2334392 424.0992403 54.95928288 C421.31918596 54.47321246 421.31918596 54.47321246 418.90915966 56.61036587 C417.9846013 57.54045499 417.06004293 58.47054411 416.10746765 59.42881775 C415.58866793 59.94249092 415.06986821 60.45616409 414.53534728 60.98540312 C412.79502928 62.71581283 411.07706306 64.46684641 409.3581543 66.21850586 C408.11734191 67.46101011 406.87520795 68.70219579 405.6318512 69.94215393 C402.25505078 73.31722891 398.89710121 76.71051855 395.54215217 80.10729671 C392.03481043 83.65208043 388.51053348 87.17994262 384.98799133 90.70960999 C378.31786996 97.39839932 371.66319339 104.10233978 365.01388532 110.81181294 C357.44412064 118.44858171 349.85736439 126.06837274 342.26910913 133.68676174 C326.6577759 149.36085423 311.06798201 165.05622144 295.4921875 180.765625 C297.18804876 184.39865584 299.23019238 186.71111546 302.1171875 189.515625 C302.93445313 190.31484375 303.75171875 191.1140625 304.59375 191.9375 C305.22023438 192.54078125 305.84671875 193.1440625 306.4921875 193.765625 C312.55548704 188.79351622 318.04771577 183.31470489 323.55502892 177.74738312 C325.22153514 176.06330339 326.89171779 174.38294889 328.5629425 172.70355225 C333.30907047 167.93311837 338.04937932 163.15693224 342.78540039 158.37646484 C345.69400649 155.44107543 348.60746687 152.51057715 351.52396584 149.5830307 C352.63064182 148.47015559 353.7354178 147.35538767 354.83823204 146.23868561 C356.37679118 144.680903 357.92141977 143.12938544 359.4675293 141.57910156 C360.34354294 140.69563049 361.21955658 139.81215942 362.12211609 138.9019165 C364.77861409 136.50745105 366.87578302 134.8603362 370.4921875 134.6484375 C374.0808436 135.08300132 376.03393422 135.40137239 378.9296875 137.703125 C381.38296588 140.94145247 382.0310471 143.46625171 381.94789124 147.58422852 C381.39494228 150.23112565 380.52493861 151.30941357 378.70092773 153.29296875 C378.06186493 153.98841797 377.42280212 154.68386719 376.76437378 155.40039062 C372.12290439 160.23193241 367.40109564 164.9775432 362.65234375 169.703125 C361.51869607 170.83490364 360.38527191 171.9669062 359.25205994 173.09912109 C356.29354899 176.05384511 353.33204569 179.00555153 350.36987305 181.956604 C347.33784025 184.97833971 344.30869683 188.00296894 341.27929688 191.02734375 C335.35305783 196.94291305 329.42364908 202.85529229 323.4921875 208.765625 C325.18804876 212.39865584 327.23019238 214.71111546 330.1171875 217.515625 C330.93445313 218.31484375 331.75171875 219.1140625 332.59375 219.9375 C333.22023438 220.54078125 333.84671875 221.1440625 334.4921875 221.765625 C338.73632622 220.09484227 341.68192208 216.9593521 344.8972168 213.84155273 C345.5301767 213.23458557 346.1631366 212.62761841 346.8152771 212.0022583 C353.42790402 205.64324471 359.97167388 199.21281388 366.51000977 192.77758789 C369.60808294 189.73291298 372.72655968 186.71176516 375.86547852 183.70922852 C379.66679208 180.07263206 383.42659746 176.39748989 387.1612339 172.69249153 C388.58403735 171.29404847 390.02049364 169.90934543 391.47098351 168.53964043 C400.9302444 159.81261873 400.9302444 159.81261873 404.67856312 147.93903446 C404.71236368 145.80585249 404.63675052 143.71099493 404.51545715 141.5816803 C404.47319051 134.65025491 407.71523411 129.03301884 412.12890625 123.83984375 C413.82991287 122.24192844 415.51614237 121.00372796 417.4921875 119.765625 C418.42417969 119.15074219 418.42417969 119.15074219 419.375 118.5234375 C426.35460988 114.67536361 434.75263795 114.51507976 442.4921875 115.765625 C450.06843013 118.16660671 456.23979042 121.97868661 460.4921875 128.765625 C460.90210938 129.38695312 461.31203125 130.00828125 461.734375 130.6484375 C465.58244889 137.62804738 465.74273274 146.02607545 464.4921875 153.765625 C462.09120579 161.34186763 458.27912589 167.51322792 451.4921875 171.765625 C450.87085938 172.17554688 450.24953125 172.58546875 449.609375 173.0078125 C444.69679739 175.71626784 439.90319187 176.14338623 434.3671875 176.203125 C433.69824463 176.21327637 433.02930176 176.22342773 432.34008789 176.23388672 C428.76609056 176.17133185 425.95344842 175.67169097 422.75 174.17578125 C419.32971692 172.695299 418.78330515 172.52207072 415.4921875 173.765625 C413.27605669 175.70708041 411.22215492 177.65705701 409.16308594 179.75415039 C408.53827332 180.37852493 407.91346069 181.00289948 407.26971436 181.64619446 C405.20647332 183.71152534 403.15406109 185.78727886 401.1015625 187.86328125 C399.67303851 189.29740047 398.24385069 190.73085873 396.81402588 192.16368103 C393.05253896 195.93662233 389.30014795 199.71848603 385.54956055 203.5022583 C381.72076968 207.36173702 377.88347229 211.21273724 374.046875 215.06445312 C366.52028098 222.62322179 359.00326595 230.19144067 351.4921875 237.765625 C352.47037774 239.07885288 353.4497686 240.39118652 354.4296875 241.703125 C355.24759766 242.79947266 355.24759766 242.79947266 356.08203125 243.91796875 C357.36126688 245.6790703 357.36126688 245.6790703 358.4921875 246.765625 C359.27241162 251.31397699 359.47094382 255.23631825 356.9296875 259.20703125 C355.1925931 261.16476466 353.42421477 263.00117153 351.4921875 264.765625 C355.86248116 269.99511244 360.46130554 274.86852455 365.296875 279.66796875 C366.0208548 280.3905336 366.74483459 281.11309845 367.49075317 281.8575592 C369.78054015 284.14179422 372.07379743 286.42250812 374.3671875 288.703125 C375.92991911 290.26083539 377.4924214 291.81877587 379.0546875 293.37695312 C382.8645406 297.17584102 386.67724129 300.97185213 390.4921875 304.765625 C394.38050658 302.95138854 397.24633656 300.4825038 400.3046875 297.515625 C401.0771582 296.81759766 401.0771582 296.81759766 401.86523438 296.10546875 C403.55701748 294.53718885 403.55701748 294.53718885 405.4921875 291.765625 C405.44283952 288.80905576 405.44283952 288.80905576 404.4921875 285.765625 C403.58568293 275.00231753 404.04603338 266.86440006 410.4921875 257.765625 C412.6052655 255.28024278 414.73271306 253.49459031 417.4921875 251.765625 C418.11351562 251.35570312 418.73484375 250.94578125 419.375 250.5234375 C426.35460988 246.67536361 434.75263795 246.51507976 442.4921875 247.765625 C450.06843013 250.16660671 456.23979042 253.97868661 460.4921875 260.765625 C460.90210938 261.38695312 461.31203125 262.00828125 461.734375 262.6484375 C465.58244889 269.62804738 465.74273274 278.02607545 464.4921875 285.765625 C462.09120579 293.34186763 458.27912589 299.51322792 451.4921875 303.765625 C450.87085938 304.17554688 450.24953125 304.58546875 449.609375 305.0078125 C442.45488541 308.95230296 434.41003672 308.29348161 426.4921875 307.765625 C425.86812012 307.49540527 425.24405273 307.22518555 424.60107422 306.94677734 C422.23977249 306.50294183 422.23977249 306.50294183 419.97436523 308.73168945 C419.02871441 309.68490845 418.09663399 310.65171018 417.17578125 311.62890625 C416.67804703 312.13608688 416.18031281 312.64326752 415.66749573 313.16581726 C414.07605629 314.79189901 412.50259362 316.43412707 410.9296875 318.078125 C409.34993132 319.70788715 407.76668342 321.33413925 406.1811676 322.95829773 C405.19538408 323.97042024 404.21355631 324.98641431 403.2361908 326.00666809 C399.85085949 329.51470189 397.30331276 332.05386415 392.3046875 332.328125 C388.45593863 332.17493907 386.64403496 331.47517976 383.828125 328.86108398 C383.13726807 328.22322968 382.44641113 327.58537537 381.73461914 326.92819214 C377.54557921 322.88834543 373.40803235 318.80267659 369.3046875 314.67578125 C368.35227138 313.72149507 367.39963055 312.76743312 366.44677734 311.81358337 C363.96551825 309.3285453 361.48727959 306.84051704 359.00970459 304.35180664 C356.47056265 301.80235004 353.92851104 299.25579812 351.38671875 296.70898438 C346.41905868 291.73066869 341.45459064 286.74918129 336.4921875 281.765625 C332.85915666 283.46148626 330.54669704 285.50362988 327.7421875 288.390625 C326.94296875 289.20789063 326.14375 290.02515625 325.3203125 290.8671875 C324.71703125 291.49367188 324.11375 292.12015625 323.4921875 292.765625 C324.86426507 295.84241181 326.42711444 297.94843142 328.80776978 300.32171631 C329.49206558 301.00876144 330.17636139 301.69580658 330.88139343 302.40367126 C331.6316127 303.14669998 332.38183197 303.8897287 333.15478516 304.65527344 C333.94511642 305.44589676 334.73544769 306.23652008 335.54972839 307.05110168 C338.16385641 309.66383609 340.78499794 312.26941454 343.40625 314.875 C345.21986693 316.68488692 347.03304287 318.49521583 348.84579468 320.30596924 C353.13092784 324.58424571 357.42048401 328.85803801 361.71221578 333.12969136 C366.59882529 337.99393518 371.4797474 342.86386886 376.36020207 347.73428679 C386.39788539 357.75107299 396.44268343 367.76069921 406.4921875 377.765625 C407.91035767 376.79206055 407.91035767 376.79206055 409.35717773 375.79882812 C413.69913919 372.98285935 415.42448845 373.12210766 420.4921875 373.765625 C423.3022221 375.55926411 425.00159218 376.78443435 426.4921875 379.765625 C427.22839616 383.79804064 427.37156561 387.30714423 425.2109375 390.890625 C423.40871087 392.98776144 421.50743906 394.87297429 419.4921875 396.765625 C418.85539062 397.44367188 418.21859375 398.12171875 417.5625 398.8203125 C414.30400388 402.07880862 411.68465634 404.23749194 406.9921875 404.640625 C403.32087922 404.23693812 401.47201721 403.24438522 398.7668457 400.75975037 C397.72556015 399.80643483 397.72556015 399.80643483 396.66323853 398.8338604 C392.92133584 395.269165 389.24363038 391.647297 385.59765625 387.98461914 C384.7479274 387.13503632 383.89819855 386.28545349 383.02272034 385.41012573 C380.71773307 383.10456561 378.41496395 380.79681863 376.11320496 378.48803639 C373.69804992 376.06658419 371.2800185 373.64800761 368.86230469 371.22911072 C364.29543912 366.65915046 359.73112629 362.08664958 355.1677494 357.51320595 C349.96772272 352.30195998 344.76481953 347.0935899 339.56168556 341.88544667 C328.86867334 331.18201226 318.17923718 320.47501309 307.4921875 309.765625 C306.3855934 310.70440426 305.28039951 311.64483416 304.17578125 312.5859375 C303.56017334 313.10945801 302.94456543 313.63297852 302.31030273 314.17236328 C299.91982165 316.2672041 297.70539587 318.48534971 295.4921875 320.765625 C297.07630705 324.59598479 299.50347725 327.03873683 302.40657043 329.96089172 C302.91111195 330.47137548 303.41565346 330.98185924 303.93548411 331.5078122 C305.626469 333.21613313 307.32452576 334.91724102 309.02270508 336.6184082 C310.2369341 337.84189586 311.45076618 339.06577756 312.66423035 340.2900238 C315.96088805 343.61290189 319.26418028 346.92910491 322.569525 350.24333978 C324.63319555 352.31287304 326.69568712 354.38357421 328.75781822 356.45464134 C335.2069051 362.93106375 341.6599754 369.40347741 348.11888105 375.87010795 C355.58148027 383.34168138 363.03080324 390.82616612 370.46890146 398.32212955 C376.21637114 404.11275977 381.97524824 409.89187959 387.74299926 415.66230839 C391.18941836 419.11082779 394.63076343 422.56407783 398.06037331 426.02932167 C401.28369419 429.28548069 404.52088458 432.5271663 407.76945686 435.75812721 C408.96108093 436.94820416 410.14755957 438.14345822 411.32852554 439.3441124 C412.93784692 440.97868453 414.56443705 442.59381782 416.19685364 444.20527649 C417.10406568 445.11542165 418.01127771 446.02556681 418.94598103 446.96329212 C421.32950517 449.05636954 421.32950517 449.05636954 424.10024548 448.56993389 C425.28425678 448.17180099 425.28425678 448.17180099 426.4921875 447.765625 C437.24094068 446.83555764 445.41221456 447.33279151 454.4921875 453.765625 C456.97756972 455.878703 458.76322219 458.00615056 460.4921875 460.765625 C460.90210938 461.38695312 461.31203125 462.00828125 461.734375 462.6484375 C465.58244889 469.62804738 465.74273274 478.02607545 464.4921875 485.765625 C462.09120579 493.34186763 458.27912589 499.51322792 451.4921875 503.765625 C450.87085938 504.17554688 450.24953125 504.58546875 449.609375 505.0078125 C442.62976512 508.85588639 434.23173705 509.01617024 426.4921875 507.765625 C418.91594487 505.36464329 412.74458458 501.55256339 408.4921875 494.765625 C408.08226562 494.14429688 407.67234375 493.52296875 407.25 492.8828125 C403.31620636 485.74772473 403.98011876 477.65652035 404.4921875 469.765625 C404.7582804 468.97595243 405.0243733 468.18627985 405.29852962 467.3726778 C405.78460004 464.59262346 405.78460004 464.59262346 403.64744663 462.18259716 C402.71735751 461.2580388 401.78726839 460.33348043 400.82899475 459.38090515 C400.31532158 458.86210543 399.80164841 458.34330571 399.27240938 457.80878478 C397.54199967 456.06846678 395.79096609 454.35050056 394.03930664 452.6315918 C392.79680239 451.39077941 391.55561671 450.14864545 390.31565857 448.9052887 C386.94058359 445.52848828 383.54729395 442.17053871 380.15051579 438.81558967 C376.60573207 435.30824793 373.07786988 431.78397098 369.54820251 428.26142883 C362.85941318 421.59130746 356.15547272 414.93663089 349.44599956 408.28732282 C341.80923079 400.71755814 334.18943976 393.13080189 326.57105076 385.54254663 C310.89695827 369.9312134 295.20159106 354.34141951 279.4921875 338.765625 C275.85915666 340.46148626 273.54669704 342.50362988 270.7421875 345.390625 C269.94296875 346.20789063 269.14375 347.02515625 268.3203125 347.8671875 C267.71703125 348.49367188 267.11375 349.12015625 266.4921875 349.765625 C271.28027694 355.53489614 276.43216338 360.82085671 281.7578125 366.09375 C282.63242126 366.96457214 283.50703003 367.83539429 284.40814209 368.73260498 C287.65635475 371.96659687 290.90913621 375.1959686 294.16210938 378.4251709 C297.36341624 381.60361916 300.56097177 384.78581082 303.7578125 387.96875 C305.02652191 389.2250119 305.02652191 389.2250119 306.32086182 390.50665283 C307.10217468 391.28466248 307.88348755 392.06267212 308.68847656 392.86425781 C309.72056244 393.88848846 309.72056244 393.88848846 310.77349854 394.93341064 C314.6249743 399.0392898 315.00601716 401.89275728 314.85546875 407.3125 C314.4921875 409.765625 314.4921875 409.765625 312.6171875 412.890625 C308.89770669 415.12231349 306.47369688 415.73444505 302.1640625 415.4921875 C294.69400469 413.46085599 289.55176879 405.85612302 284.5625 400.328125 C278.03856102 393.16209348 271.18002016 386.34213109 264.3046875 379.515625 C263.05379917 378.26976945 261.80314688 377.02367687 260.55273438 375.77734375 C257.5352539 372.77071027 254.5146402 369.76725971 251.4921875 366.765625 C247.85915666 368.46148626 245.54669704 370.50362988 242.7421875 373.390625 C241.94296875 374.20789063 241.14375 375.02515625 240.3203125 375.8671875 C239.71703125 376.49367188 239.11375 377.12015625 238.4921875 377.765625 C240.16297023 382.00976372 243.2984604 384.95535958 246.41625977 388.1706543 C247.32671051 389.12009415 247.32671051 389.12009415 248.2555542 390.0887146 C254.61456779 396.70134152 261.04499862 403.24511138 267.48022461 409.78344727 C270.52489952 412.88152044 273.54604734 415.99999718 276.54858398 419.13891602 C280.18518044 422.94022958 283.86032261 426.70003496 287.56532097 430.4346714 C288.96376403 431.85747485 290.34846707 433.29393114 291.71817207 434.74442101 C300.44519377 444.2036819 300.44519377 444.2036819 312.31877804 447.95200062 C314.45196001 447.98580118 316.54681757 447.91018802 318.6761322 447.78889465 C325.60755759 447.74662801 331.22479366 450.98867161 336.41796875 455.40234375 C338.01588406 457.10335037 339.25408454 458.78957987 340.4921875 460.765625 C340.90210938 461.38695312 341.31203125 462.00828125 341.734375 462.6484375 C345.58244889 469.62804738 345.74273274 478.02607545 344.4921875 485.765625 C342.09120579 493.34186763 338.27912589 499.51322792 331.4921875 503.765625 C330.87085938 504.17554688 330.24953125 504.58546875 329.609375 505.0078125 C322.62976512 508.85588639 314.23173705 509.01617024 306.4921875 507.765625 C298.91594487 505.36464329 292.74458458 501.55256339 288.4921875 494.765625 C288.08226562 494.14429688 287.67234375 493.52296875 287.25 492.8828125 C284.54154466 487.97023489 284.11442627 483.17662937 284.0546875 477.640625 C284.04453613 476.97168213 284.03438477 476.30273926 284.02392578 475.61352539 C284.08648065 472.03952806 284.58612153 469.22688592 286.08203125 466.0234375 C287.5625135 462.60315442 287.73574178 462.05674265 286.4921875 458.765625 C284.55073209 456.54949419 282.60075549 454.49559242 280.50366211 452.43652344 C279.87928757 451.81171082 279.25491302 451.18689819 278.61161804 450.54315186 C276.54628716 448.47991082 274.47053364 446.42749859 272.39453125 444.375 C270.96041203 442.94647601 269.52695377 441.51728819 268.09413147 440.08746338 C264.32119017 436.32597646 260.53932647 432.57358545 256.7555542 428.82299805 C252.89607548 424.99420718 249.04507526 421.15690979 245.19335938 417.3203125 C237.63459071 409.79371848 230.06637183 402.27670345 222.4921875 394.765625 C221.17895962 395.74381524 219.86662598 396.7232061 218.5546875 397.703125 C217.45833984 398.52103516 217.45833984 398.52103516 216.33984375 399.35546875 C214.5787422 400.63470438 214.5787422 400.63470438 213.4921875 401.765625 C208.94383551 402.54584912 205.02149425 402.74438132 201.05078125 400.203125 C199.09304784 398.4660306 197.25664097 396.69765227 195.4921875 394.765625 C190.26270006 399.13591866 185.38928795 403.73474304 180.58984375 408.5703125 C179.8672789 409.2942923 179.14471405 410.01827209 178.4002533 410.76419067 C176.11601828 413.05397765 173.83530438 415.34723493 171.5546875 417.640625 C169.99697711 419.20335661 168.43903663 420.7658589 166.88085938 422.328125 C163.08197148 426.1379781 159.28596037 429.95067879 155.4921875 433.765625 C157.30642396 437.65394408 159.7753087 440.51977406 162.7421875 443.578125 C163.20753906 444.09310547 163.67289063 444.60808594 164.15234375 445.13867188 C165.72062365 446.83045498 165.72062365 446.83045498 168.4921875 448.765625 C171.44875674 448.71627702 171.44875674 448.71627702 174.4921875 447.765625 C185.25549497 446.85912043 193.39341244 447.31947088 202.4921875 453.765625 C204.97756972 455.878703 206.76322219 458.00615056 208.4921875 460.765625 C208.90210938 461.38695312 209.31203125 462.00828125 209.734375 462.6484375 C213.58244889 469.62804738 213.74273274 478.02607545 212.4921875 485.765625 C210.09120579 493.34186763 206.27912589 499.51322792 199.4921875 503.765625 C198.87085938 504.17554688 198.24953125 504.58546875 197.609375 505.0078125 C190.62976512 508.85588639 182.23173705 509.01617024 174.4921875 507.765625 C166.91594487 505.36464329 160.74458458 501.55256339 156.4921875 494.765625 C156.08226562 494.14429688 155.67234375 493.52296875 155.25 492.8828125 C151.30550954 485.72832291 151.96433089 477.68347422 152.4921875 469.765625 C152.76240723 469.14155762 153.03262695 468.51749023 153.31103516 467.87451172 C153.75487067 465.51320999 153.75487067 465.51320999 151.52612305 463.24780273 C150.57290405 462.30215191 149.60610232 461.37007149 148.62890625 460.44921875 C148.12172562 459.95148453 147.61454498 459.45375031 147.09199524 458.94093323 C145.46591349 457.34949379 143.82368543 455.77603112 142.1796875 454.203125 C140.54992535 452.62336882 138.92367325 451.04012092 137.29951477 449.4546051 C136.28739226 448.46882158 135.27139819 447.48699381 134.25114441 446.5096283 C130.74311061 443.12429699 128.20394835 440.57675026 127.9296875 435.578125 C128.08287343 431.72937613 128.78263274 429.91747246 131.39672852 427.1015625 C132.03458282 426.41070557 132.67243713 425.71984863 133.32962036 425.00805664 C137.36946707 420.81901671 141.45513591 416.68146985 145.58203125 412.578125 C146.53631743 411.62570888 147.49037938 410.67306805 148.44422913 409.72021484 C150.9292672 407.23895575 153.41729546 404.76071709 155.90600586 402.28314209 C158.45546246 399.74400015 161.00201438 397.20194854 163.54882812 394.66015625 C168.52714381 389.69249618 173.50863121 384.72802814 178.4921875 379.765625 C176.79632624 376.13259416 174.75418262 373.82013454 171.8671875 371.015625 C171.04992187 370.21640625 170.23265625 369.4171875 169.390625 368.59375 C168.76414063 367.99046875 168.13765625 367.3871875 167.4921875 366.765625 C164.53063752 368.09934917 162.45241956 369.55720425 160.16387939 371.85342407 C159.52731918 372.48723495 158.89075897 373.12104584 158.23490906 373.77406311 C157.54798477 374.46817795 156.86106049 375.16229279 156.15332031 375.87744141 C155.42121841 376.60925125 154.68911652 377.3410611 153.93482971 378.095047 C151.51688641 380.51438329 149.10610381 382.94072613 146.6953125 385.3671875 C145.01994721 387.04628302 143.34413972 388.72493743 141.66790771 390.40316772 C137.25763248 394.82107862 132.85339637 399.24496281 128.45037842 403.67010498 C123.9562183 408.18472487 119.45639012 412.69368733 114.95703125 417.203125 C106.12985054 426.05175446 97.30903752 434.90670275 88.4921875 443.765625 C89.45380305 444.88798604 90.4154859 446.01028942 91.37719727 447.13256836 C91.9127272 447.75755722 92.44825714 448.38254608 93.00001526 449.026474 C94.10814242 450.31801422 95.21928991 451.6069643 96.33203125 452.89453125 C98.61042104 456.56910603 98.29330862 460.63317521 97.4921875 464.765625 C94.87123131 468.12582524 93.41351094 469.19471746 89.44140625 470.375 C85.51041575 470.84979104 83.24931469 470.28915791 79.97265625 468.0234375 C77.35907412 465.70292986 74.92185904 463.27732725 72.4921875 460.765625 C71.73164062 460.05019531 70.97109375 459.33476562 70.1875 458.59765625 C65.4114037 454.0752354 61.76814945 450.3531303 61.2421875 443.515625 C65.28258324 431.39443777 80.78007321 420.35229793 89.65234375 411.5078125 C91.41089944 409.75112486 93.16923227 407.99421411 94.92735291 406.23709106 C99.52654149 401.64169718 104.1287266 397.04931594 108.73156738 392.45758057 C113.43941436 387.76001362 118.14438597 383.05956967 122.84960938 378.359375 C132.06100923 369.15865866 141.27548357 359.96102789 150.4921875 350.765625 C149.55340824 349.6590309 148.61297834 348.55383701 147.671875 347.44921875 C147.14835449 346.83361084 146.62483398 346.21800293 146.08544922 345.58374023 C143.9906084 343.19325915 141.77246279 340.97883337 139.4921875 338.765625 C136.24011658 340.18300989 134.17857683 341.89088912 131.7421875 344.453125 C129.27609741 347.03837491 126.73509671 349.43314768 124.02015686 351.74998474 C118.68259716 356.40638705 113.67918291 361.39116943 108.65405273 366.37915039 C107.58737601 367.43462699 106.52054316 368.48994583 105.4535675 369.54512024 C101.9819825 372.98049352 98.51574949 376.42123569 95.05078125 379.86328125 C94.45973768 380.45037896 93.8686941 381.03747667 93.25974011 381.64236522 C87.68283462 387.18292127 82.10839526 392.72595019 76.53896999 398.27402592 C69.43069113 405.35464146 62.31097679 412.42332684 55.17574161 419.47678 C50.14775048 424.44908176 45.13314377 429.43463299 40.12829548 434.43022722 C37.14186898 437.41039038 34.14977569 440.38430253 31.14309502 443.34404182 C28.32142986 446.12217925 25.51664703 448.91629216 22.72408867 451.72367668 C21.69613668 452.75129902 20.66215384 453.77292846 19.6218605 454.78805542 C18.20458375 456.17282734 16.81068749 457.5814096 15.41819763 458.99110413 C14.63123725 459.77291078 13.84427687 460.55471743 13.0334692 461.36021519 C11.17898436 463.72287275 11.17898436 463.72287275 11.72752476 466.83502865 C11.97986346 467.80212544 12.23220217 468.76922224 12.4921875 469.765625 C13.39869207 480.52893247 12.93834162 488.66684994 6.4921875 497.765625 C4.3791095 500.25100722 2.25166194 502.03665969 -0.5078125 503.765625 C-1.12914062 504.17554688 -1.75046875 504.58546875 -2.390625 505.0078125 C-9.37023488 508.85588639 -17.76826295 509.01617024 -25.5078125 507.765625 C-33.08405513 505.36464329 -39.25541542 501.55256339 -43.5078125 494.765625 C-43.91773438 494.14429688 -44.32765625 493.52296875 -44.75 492.8828125 C-48.59807389 485.90320262 -48.75835774 477.50517455 -47.5078125 469.765625 C-45.10683079 462.18938237 -41.29475089 456.01802208 -34.5078125 451.765625 C-33.88648438 451.35570312 -33.26515625 450.94578125 -32.625 450.5234375 C-25.48991223 446.58964386 -17.39870785 447.25355626 -9.5078125 447.765625 C-8.71813993 448.0317179 -7.92846735 448.2978108 -7.1148653 448.57196712 C-4.33481096 449.05803754 -4.33481096 449.05803754 -1.92478466 446.92088413 C-0.53794712 445.52575045 -0.53794712 445.52575045 0.87690735 444.10243225 C1.39570707 443.58875908 1.91450679 443.07508591 2.44902772 442.54584688 C4.18934572 440.81543717 5.90731194 439.06440359 7.6262207 437.31274414 C8.86703309 436.07023989 10.10916705 434.82905421 11.3525238 433.58909607 C14.72932422 430.21402109 18.08727379 426.82073145 21.44222283 423.42395329 C24.94956457 419.87916957 28.47384152 416.35130738 31.99638367 412.82164001 C38.66650504 406.13285068 45.32118161 399.42891022 51.97048968 392.71943706 C59.54025436 385.08266829 67.12701061 377.46287726 74.71526587 369.84448826 C90.3265991 354.17039577 105.91639299 338.47502856 121.4921875 322.765625 C119.79632624 319.13259416 117.75418262 316.82013454 114.8671875 314.015625 C114.04992187 313.21640625 113.23265625 312.4171875 112.390625 311.59375 C111.76414063 310.99046875 111.13765625 310.3871875 110.4921875 309.765625 C104.38413649 314.81421723 98.8294659 320.31555778 93.25390625 325.94140625 C92.28250644 326.91721996 91.31080614 327.89273462 90.33882141 328.8679657 C87.28292886 331.93519213 84.23103283 335.00637575 81.1796875 338.078125 C77.62407713 341.65736253 74.06683346 345.23494567 70.50538063 348.80837059 C69.08410344 350.23612836 67.66586837 351.66686157 66.24772644 353.09773254 C65.38955826 353.95920395 64.53139008 354.82067535 63.6472168 355.70825195 C62.89111618 356.46958939 62.13501556 357.23092682 61.35600281 358.01533508 C58.1803297 360.99757726 55.77316338 360.9960106 51.45703125 360.91015625 C48.90542047 360.72246321 47.49369189 360.39648043 45.4921875 358.765625 C42.88832632 354.9945157 41.8586138 351.74134168 42.54977417 347.15258789 C44.80818232 341.43244763 50.17003217 337.25669244 54.52734375 333.046875 C55.64845085 331.93883638 56.76801295 330.82923254 57.88609314 329.71813965 C60.82182459 326.80903492 63.77796497 323.92157202 66.73895264 321.03820801 C69.76117953 318.08780586 72.76349444 315.11729097 75.76757812 312.1484375 C81.65654507 306.334367 87.56723887 300.54302229 93.4921875 294.765625 C91.79632624 291.13259416 89.75418262 288.82013454 86.8671875 286.015625 C86.04992187 285.21640625 85.23265625 284.4171875 84.390625 283.59375 C83.76414063 282.99046875 83.13765625 282.3871875 82.4921875 281.765625 C78.24804878 283.43640773 75.30245292 286.5718979 72.0871582 289.68969727 C71.13771835 290.60014801 71.13771835 290.60014801 70.1690979 291.5289917 C63.55647098 297.88800529 57.01270112 304.31843612 50.47436523 310.75366211 C47.37629206 313.79833702 44.25781532 316.81948484 41.11889648 319.82202148 C37.31758292 323.45861794 33.55777754 327.13376011 29.8231411 330.83875847 C28.40033765 332.23720153 26.96388136 333.62190457 25.51339149 334.99160957 C16.0541306 343.71863127 16.0541306 343.71863127 12.30581188 355.59221554 C12.27201132 357.72539751 12.34762448 359.82025507 12.46891785 361.9495697 C12.51118449 368.88099509 9.26914089 374.49823116 4.85546875 379.69140625 C3.15446213 381.28932156 1.46823263 382.52752204 -0.5078125 383.765625 C-1.12914062 384.17554688 -1.75046875 384.58546875 -2.390625 385.0078125 C-9.37023488 388.85588639 -17.76826295 389.01617024 -25.5078125 387.765625 C-33.08405513 385.36464329 -39.25541542 381.55256339 -43.5078125 374.765625 C-43.91773438 374.14429688 -44.32765625 373.52296875 -44.75 372.8828125 C-48.59807389 365.90320262 -48.75835774 357.50517455 -47.5078125 349.765625 C-45.10683079 342.18938237 -41.29475089 336.01802208 -34.5078125 331.765625 C-33.88648438 331.35570312 -33.26515625 330.94578125 -32.625 330.5234375 C-27.71242239 327.81498216 -22.91881687 327.38786377 -17.3828125 327.328125 C-16.71386963 327.31797363 -16.04492676 327.30782227 -15.35571289 327.29736328 C-11.78171556 327.35991815 -8.96907342 327.85955903 -5.765625 329.35546875 C-2.34534192 330.835951 -1.79893015 331.00917928 1.4921875 329.765625 C3.70831831 327.82416959 5.76222008 325.87419299 7.82128906 323.77709961 C8.44610168 323.15272507 9.07091431 322.52835052 9.71466064 321.88505554 C11.77790168 319.81972466 13.83031391 317.74397114 15.8828125 315.66796875 C17.31133649 314.23384953 18.74052431 312.80039127 20.17034912 311.36756897 C23.93183604 307.59462767 27.68422705 303.81276397 31.43481445 300.0289917 C35.26360532 296.16951298 39.10090271 292.31851276 42.9375 288.46679688 C50.46409402 280.90802821 57.98110905 273.33980933 65.4921875 265.765625 C64.51399726 264.45239712 63.5346064 263.14006348 62.5546875 261.828125 C61.73677734 260.73177734 61.73677734 260.73177734 60.90234375 259.61328125 C59.62310812 257.8521797 59.62310812 257.8521797 58.4921875 256.765625 C57.71196338 252.21727301 57.51343118 248.29493175 60.0546875 244.32421875 C61.7917819 242.36648534 63.56016023 240.53007847 65.4921875 238.765625 C61.25008614 233.69851201 56.81501661 228.95339129 52.125 224.30078125 C51.10561844 223.28352211 51.10561844 223.28352211 50.06564331 222.24571228 C47.91851748 220.10413359 45.76792123 217.96607971 43.6171875 215.828125 C42.15080977 214.36676911 40.6846617 212.90518274 39.21875 211.44335938 C35.6458775 207.88144565 32.06989066 204.32268635 28.4921875 200.765625 C22.13179902 203.80438203 15.92405353 208.4738706 12.4921875 214.765625 C11.6750608 218.78008942 12.00797858 222.68373151 12.28833008 226.74462891 C12.82094792 235.23083661 10.40816358 241.18766249 4.8515625 247.68359375 C3.15347121 249.29043247 1.47147648 250.52548958 -0.5078125 251.765625 C-1.12914062 252.17554688 -1.75046875 252.58546875 -2.390625 253.0078125 C-9.37023488 256.85588639 -17.76826295 257.01617024 -25.5078125 255.765625 C-33.08405513 253.36464329 -39.25541542 249.55256339 -43.5078125 242.765625 C-43.91773438 242.14429688 -44.32765625 241.52296875 -44.75 240.8828125 C-48.59807389 233.90320262 -48.75835774 225.50517455 -47.5078125 217.765625 C-45.10683079 210.18938237 -41.29475089 204.01802208 -34.5078125 199.765625 C-33.88648438 199.35570312 -33.26515625 198.94578125 -32.625 198.5234375 C-25.55374843 194.62483873 -17.34164517 195.04891265 -9.5078125 195.765625 C-7.83950725 196.42818051 -6.17249241 197.09401276 -4.5078125 197.765625 C-0.28018516 197.44478334 1.77451941 194.81196675 4.625 191.890625 C5.10290985 191.40609863 5.5808197 190.92157227 6.07321167 190.42236328 C7.59514843 188.87706667 9.10654474 187.32195736 10.6171875 185.765625 C12.13666709 184.2110768 13.65826908 182.65869123 15.18258667 181.10888672 C16.56236268 179.7043848 17.93587659 178.29373925 19.30908203 176.8828125 C22.16958737 174.10867893 23.0923267 173.82077821 27.1171875 173.265625 C30.81539685 173.32613411 32.45603372 174.20347462 35.15625 176.69360352 C36.19821533 177.65098923 36.19821533 177.65098923 37.26123047 178.62771606 C41.30823703 182.50593128 45.2906509 186.44259324 49.2421875 190.41796875 C50.14090576 191.31810196 51.03962402 192.21823517 51.96557617 193.14564514 C54.32805325 195.51273763 56.68833862 197.88197139 59.04754639 200.25231934 C61.46603931 202.68113242 63.88744696 205.10703603 66.30859375 207.53320312 C71.03911704 212.27469869 75.76676723 217.01904398 80.4921875 221.765625 C84.12521834 220.06976374 86.43767796 218.02762012 89.2421875 215.140625 C90.04140625 214.32335937 90.840625 213.50609375 91.6640625 212.6640625 C92.26734375 212.03757813 92.870625 211.41109375 93.4921875 210.765625 C92.17852813 207.86264766 90.77146627 205.79654391 88.51828003 203.5512085 C87.90971161 202.93989075 87.30114319 202.328573 86.6741333 201.69873047 C86.00807068 201.0398584 85.34200806 200.38098633 84.65576172 199.70214844 C83.60193802 198.64788666 83.60193802 198.64788666 82.52682495 197.57232666 C80.20488439 195.25177875 77.87594122 192.9383942 75.546875 190.625 C73.93504018 189.01689553 72.32364653 187.40834875 70.712677 185.79937744 C66.47231721 181.56665235 62.22598544 177.33996785 57.97839355 173.11450195 C53.64474207 168.80131229 49.31674962 164.48245251 44.98828125 160.1640625 C36.49512077 151.69234909 27.99564222 143.22700467 19.4921875 134.765625 C18.36951933 135.72052788 17.24789371 136.67665657 16.12670898 137.63330078 C15.50199203 138.1656131 14.87727509 138.69792542 14.23362732 139.24636841 C12.26043824 140.96780631 10.42005244 142.80383239 8.5546875 144.640625 C5.81511857 147.0350932 3.97491048 148.26685428 0.3046875 148.453125 C-3.84166396 147.70542228 -5.60128444 146.76022966 -8.5078125 143.765625 C-10.29515352 140.19094296 -10.2211098 136.65404212 -9.5078125 132.765625 C-7.72136541 129.58372678 -5.11988048 127.28554948 -2.5078125 124.765625 C-1.26035672 123.501321 -0.01582989 122.23412374 1.2265625 120.96484375 C3.89436656 118.25362154 6.56647258 115.54725024 9.26171875 112.86328125 C9.83510986 112.29101807 10.40850098 111.71875488 10.99926758 111.12915039 C13.86433897 108.5124008 16.43564965 108.55625413 20.2265625 108.33984375 C26.93852823 109.60123041 32.02513442 116.02672908 36.60888672 120.65527344 C37.39980209 121.44589676 38.19071747 122.23652008 39.00559998 123.05110168 C41.60746291 125.65435317 44.20217811 128.26460761 46.796875 130.875 C48.60390254 132.68575935 50.4113734 134.49607638 52.2192688 136.30596924 C56.48331832 140.57686362 60.74288532 144.85217878 65.00029194 149.12969136 C69.85005389 154.00185542 74.7055376 158.86830027 79.5614965 163.73428679 C89.54474694 173.73840792 99.52083544 183.74964541 109.4921875 193.765625 C110.5987816 192.82684574 111.70397549 191.88641584 112.80859375 190.9453125 C113.42420166 190.42179199 114.03980957 189.89827148 114.67407227 189.35888672 C117.06455335 187.2640459 119.27897913 185.04590029 121.4921875 182.765625 C119.90279324 178.83348199 117.32876248 176.43542154 114.3046875 173.515625 C111.20154088 170.51229988 108.24499185 167.51506794 105.44584656 164.22764587 C100.92536119 159.03948276 96.07516471 154.19267282 91.21411133 149.32641602 C90.19476295 148.30242855 89.17560849 147.278248 88.15663147 146.25389099 C85.41143229 143.4956863 82.66300537 140.74072147 79.91353059 137.98677945 C78.19419876 136.26450266 76.47544956 134.54164647 74.75687218 132.81861687 C69.37389229 127.42200454 63.98894597 122.02736612 58.60108453 116.63562733 C52.39001303 110.42006013 46.18556596 104.19797768 39.98669797 97.97024018 C35.18417674 93.14613127 30.37593417 88.32777454 25.56327647 83.51377815 C22.69239276 80.641846 19.82399575 77.76753037 16.96152687 74.88720894 C14.27500215 72.18425007 11.58146349 69.48848662 8.88231468 66.79813576 C7.89285958 65.80945304 6.90597145 64.81819374 5.92184448 63.82420731 C4.57961802 62.46932347 3.22723482 61.12452387 1.87434387 59.7802887 C1.12019101 59.02466928 0.36603815 58.26904985 -0.41096783 57.49053288 C-2.56010665 55.72260675 -3.76067134 55.03347993 -6.5078125 54.765625 C-7.4978125 55.095625 -8.4878125 55.425625 -9.5078125 55.765625 C-20.11386462 56.73651506 -28.50943106 56.14065386 -37.5078125 49.765625 C-39.99319472 47.652547 -41.77884719 45.52509944 -43.5078125 42.765625 C-43.91773438 42.14429688 -44.32765625 41.52296875 -44.75 40.8828125 C-48.59807389 33.90320262 -48.75835774 25.50517455 -47.5078125 17.765625 C-45.10683079 10.18938237 -41.29475089 4.01802208 -34.5078125 -0.234375 C-33.88648438 -0.64429688 -33.26515625 -1.05421875 -32.625 -1.4765625 C-22.455808 -7.08315125 -9.72162164 -5.63801363 0 0 Z M-26.5078125 21.765625 C-27.20628375 24.6053114 -27.20628375 26.9259386 -26.5078125 29.765625 C-24.51859364 32.7494533 -23.12278682 34.36839341 -19.5703125 35.2421875 C-15.64717758 35.52453433 -13.83668879 34.98487586 -10.5078125 32.765625 C-8.28856164 29.43674871 -7.74890317 27.62625992 -8.03125 23.703125 C-8.90504409 20.15065068 -10.5239842 18.75484386 -13.5078125 16.765625 C-19.32444453 15.33492115 -23.11596156 16.67784859 -26.5078125 21.765625 Z M93.4921875 21.765625 C92.79371625 24.6053114 92.79371625 26.9259386 93.4921875 29.765625 C95.48140636 32.7494533 96.87721318 34.36839341 100.4296875 35.2421875 C104.35282242 35.52453433 106.16331121 34.98487586 109.4921875 32.765625 C111.71143836 29.43674871 112.25109683 27.62625992 111.96875 23.703125 C111.09495591 20.15065068 109.4760158 18.75484386 106.4921875 16.765625 C100.67555547 15.33492115 96.88403844 16.67784859 93.4921875 21.765625 Z M225.4921875 21.765625 C224.79371625 24.6053114 224.79371625 26.9259386 225.4921875 29.765625 C227.48140636 32.7494533 228.87721318 34.36839341 232.4296875 35.2421875 C236.35282242 35.52453433 238.16331121 34.98487586 241.4921875 32.765625 C243.71143836 29.43674871 244.25109683 27.62625992 243.96875 23.703125 C243.09495591 20.15065068 241.4760158 18.75484386 238.4921875 16.765625 C232.67555547 15.33492115 228.88403844 16.67784859 225.4921875 21.765625 Z M425.4921875 21.765625 C424.79371625 24.6053114 424.79371625 26.9259386 425.4921875 29.765625 C427.48140636 32.7494533 428.87721318 34.36839341 432.4296875 35.2421875 C436.35282242 35.52453433 438.16331121 34.98487586 441.4921875 32.765625 C443.71143836 29.43674871 444.25109683 27.62625992 443.96875 23.703125 C443.09495591 20.15065068 441.4760158 18.75484386 438.4921875 16.765625 C432.67555547 15.33492115 428.88403844 16.67784859 425.4921875 21.765625 Z M204.97021484 130.06054688 C203.91770745 131.11337203 202.87071391 132.1717269 201.828125 133.234375 C201.00001816 134.06672668 201.00001816 134.06672668 200.15518188 134.91589355 C198.38778422 136.69451309 196.62745467 138.47995092 194.8671875 140.265625 C193.67233313 141.47050657 192.47702633 142.67493967 191.28125 143.87890625 C188.34628159 146.83596163 185.41763522 149.79915159 182.4921875 152.765625 C184.11298765 156.85350372 187.04497603 159.57920862 190.11938477 162.60400391 C190.9806044 163.46325218 190.9806044 163.46325218 191.85922241 164.33985901 C193.75445527 166.2286106 195.65655861 168.1102884 197.55859375 169.9921875 C198.87664158 171.30396431 200.19417516 172.616258 201.51121521 173.92904663 C204.97705084 177.381585 208.44841077 180.82851066 211.92138672 184.27386475 C217.48529012 189.79462847 223.04246484 195.32214538 228.5964489 200.8528862 C230.54017546 202.7863663 232.48726627 204.71641116 234.43470764 206.64614868 C235.62138072 207.82599615 236.80794571 209.00595236 237.99438477 210.18603516 C238.53934097 210.724254 239.08429718 211.26247284 239.64576721 211.81700134 C244.45495646 216.61146279 244.45495646 216.61146279 244.6171875 221.640625 C244.48045611 227.93026901 244.48045611 227.93026901 243.4921875 229.765625 C238.91776814 232.05283468 235.36617283 232.19420691 230.4921875 230.765625 C222.81812215 225.25219201 216.33565932 217.73692856 209.6796875 211.05078125 C208.45822766 209.82745277 207.23654421 208.60434752 206.01464844 207.38145447 C202.8231914 204.18620739 199.63475083 200.98796714 196.44696045 197.7890625 C193.18392888 194.51574067 189.91801006 191.24530226 186.65234375 187.97460938 C180.26281953 181.57440991 173.87648299 175.17103993 167.4921875 168.765625 C162.31562349 173.09570569 157.47906161 177.64026999 152.72094727 182.42333984 C151.60750694 183.53656113 151.60750694 183.53656113 150.47157288 184.67227173 C148.03986615 187.10467028 145.61171211 189.54058233 143.18359375 191.9765625 C141.4898785 193.67214452 139.79594107 195.36750463 138.10179138 197.06265259 C133.65924971 201.508999 129.2197203 205.95834115 124.78082275 210.4083252 C120.24437786 214.95502825 115.70507498 219.49887602 111.16601562 224.04296875 C102.27194868 232.94773695 93.38096558 241.85557758 84.4921875 250.765625 C86.27591596 254.6087473 88.7184388 257.25003891 91.71875 260.1875 C92.22642914 260.69234924 92.73410828 261.19719849 93.25717163 261.71734619 C94.87252592 263.32154596 96.49470959 264.91863356 98.1171875 266.515625 C99.21660448 267.60500607 100.31556809 268.6948449 101.4140625 269.78515625 C104.1015477 272.45064385 106.79517771 275.10977643 109.4921875 277.765625 C113.59327636 276.14406476 116.32366917 273.1888547 119.3515625 270.1015625 C119.90080383 269.54949127 120.45004517 268.99742004 121.01593018 268.42861938 C122.76278043 266.67060685 124.50253351 264.9057561 126.2421875 263.140625 C127.42792341 261.9448542 128.6141163 260.74953635 129.80078125 259.5546875 C132.70323835 256.63022247 135.5993516 253.69960626 138.4921875 250.765625 C138.06631348 250.15944336 137.64043945 249.55326172 137.20166016 248.92871094 C136.6504248 248.12723633 136.09918945 247.32576172 135.53125 246.5 C134.98162598 245.70819336 134.43200195 244.91638672 133.86572266 244.10058594 C131.90626997 240.76958603 131.76767124 238.53310953 132.4921875 234.765625 C134.28781155 232.01233479 135.54473672 230.23935039 138.4921875 228.765625 C143.12545741 228.11696721 145.78572515 228.61678289 149.4921875 231.328125 C150.84813258 232.4471088 152.1814833 233.5939739 153.4921875 234.765625 C154.13800781 235.34183594 154.78382813 235.91804688 155.44921875 236.51171875 C160.01966848 240.8319965 163.37431576 244.58308804 163.6171875 251.140625 C161.24101467 258.79718191 153.84683804 264.55524862 148.24609375 270.109375 C147.59011703 270.76393677 146.93414032 271.41849854 146.25828552 272.09289551 C144.19278605 274.15286323 142.12381155 276.20929866 140.0546875 278.265625 C138.64104316 279.6742455 137.22762964 281.08309767 135.81445312 282.4921875 C132.37635601 285.91934633 128.93514094 289.34334519 125.4921875 292.765625 C129.92635422 298.07631305 134.60735436 303.01399117 139.515625 307.88671875 C140.63488876 309.00386009 140.63488876 309.00386009 141.77676392 310.14356995 C144.13788139 312.49913327 146.50246912 314.85117716 148.8671875 317.203125 C150.47809606 318.80901263 152.08877546 320.41513016 153.69921875 322.02148438 C157.62756263 325.93886013 161.55875424 329.85335987 165.4921875 333.765625 C168.42811367 332.44216311 170.48716216 331.01342674 172.74438477 328.72460938 C173.66037193 327.80355408 173.66037193 327.80355408 174.59486389 326.8638916 C175.24289474 326.20240112 175.8909256 325.54091064 176.55859375 324.859375 C177.57154762 323.83861877 177.57154762 323.83861877 178.60496521 322.79724121 C180.75967893 320.62473255 182.90758608 318.44565521 185.0546875 316.265625 C187.20621202 314.08647063 189.35917942 311.90879302 191.51512146 309.73400879 C192.85568013 308.3812078 194.19355649 307.02574236 195.52845764 305.6673584 C196.43971657 304.7463031 196.43971657 304.7463031 197.36938477 303.80664062 C197.90136978 303.26640259 198.4333548 302.72616455 198.98146057 302.16955566 C202.2013295 299.17730562 204.21628154 298.50813249 208.4921875 298.578125 C209.3584375 298.58457031 210.2246875 298.59101563 211.1171875 298.59765625 C213.4921875 298.765625 213.4921875 298.765625 216.4921875 299.765625 C218.00265556 304.29702919 218.41387651 308.04919794 217.4921875 312.765625 C215.93920898 315.00512695 215.93920898 315.00512695 213.80078125 317.25390625 C212.57584961 318.55074341 212.57584961 318.55074341 211.32617188 319.8737793 C210.38356949 320.83974143 209.43878842 321.80358092 208.4921875 322.765625 C207.97930176 323.28951813 207.46641602 323.81341125 206.93798828 324.35317993 C202.96731746 328.39811424 198.95224002 332.39739379 194.9296875 336.390625 C193.71786324 337.5974196 192.50627316 338.80444939 191.29492188 340.01171875 C188.36336279 342.93239907 185.42867729 345.84990247 182.4921875 348.765625 C184.07650203 352.67413699 186.75853845 355.28929856 189.71875 358.1875 C190.22642914 358.69234924 190.73410828 359.19719849 191.25717163 359.71734619 C192.87252592 361.32154596 194.49470959 362.91863356 196.1171875 364.515625 C197.21660448 365.60500607 198.31556809 366.6948449 199.4140625 367.78515625 C202.1015477 370.45064385 204.79517771 373.10977643 207.4921875 375.765625 C211.3161367 374.18685067 213.72860849 371.77060787 216.62792969 368.85693359 C217.37495399 368.11034737 217.37495399 368.11034737 218.1370697 367.34867859 C219.77585483 365.7085043 221.40744884 364.06136839 223.0390625 362.4140625 C224.17634097 361.27305244 225.3140629 360.13248423 226.45220947 358.99234009 C229.44208729 355.99483738 232.42590941 352.99137649 235.4085083 349.9866333 C238.45490071 346.91975788 241.50698453 343.85855806 244.55859375 340.796875 C250.54204184 334.79199717 256.51910413 328.78081268 262.4921875 322.765625 C260.91341317 318.9416758 258.49717037 316.52920401 255.58349609 313.62988281 C254.83690987 312.88285851 254.83690987 312.88285851 254.07524109 312.1207428 C252.4350668 310.48195767 250.78793089 308.85036366 249.140625 307.21875 C247.99961494 306.08147153 246.85904673 304.9437496 245.71890259 303.80560303 C242.72139988 300.81572521 239.71793899 297.83190309 236.7131958 294.8493042 C233.64632038 291.80291179 230.58512056 288.75082797 227.5234375 285.69921875 C221.51855967 279.71577066 215.50737518 273.73870837 209.4921875 267.765625 C205.92049316 269.4423604 203.66467995 271.38649552 200.90234375 274.23046875 C200.03544922 275.11283203 199.16855469 275.99519531 198.27539062 276.90429688 C196.46543873 278.76622155 194.65554266 280.62820048 192.84570312 282.49023438 C191.97751953 283.37388672 191.10933594 284.25753906 190.21484375 285.16796875 C189.42859619 285.97741943 188.64234863 286.78687012 187.83227539 287.62084961 C184.34552302 290.81658457 181.71819071 292.6123746 176.9921875 293.203125 C172.9230839 292.69448705 171.35873681 291.63217431 168.4921875 288.765625 C166.88473691 285.55072382 167.08913508 283.3355179 167.4921875 279.765625 C171.6026142 272.0499637 179.16742218 265.82193383 185.31567383 259.73632812 C187.19092607 257.87949683 189.05788803 256.01462199 190.92382812 254.1484375 C192.11671412 252.96046198 193.31005718 251.77294518 194.50390625 250.5859375 C195.06019211 250.03076447 195.61647797 249.47559143 196.18962097 248.90359497 C202.70878504 242.46426563 202.70878504 242.46426563 208.0546875 242.078125 C215.24952795 242.26527403 218.77005205 246.82119216 223.4921875 251.765625 C224.66198773 252.93308095 225.83535786 254.09696754 227.01171875 255.2578125 C230.19527326 258.40446369 233.34928589 261.57838779 236.4921875 264.765625 C241.00904898 261.07996912 245.1870158 257.14322495 249.28515625 253 C249.80199982 252.47764771 250.31884338 251.95529541 250.85134888 251.41711426 C253.01187149 249.22888468 255.16866541 247.0370606 257.32104492 244.84082031 C258.90885253 243.22281178 260.50282571 241.61108233 262.09765625 240 C262.58002243 239.50417419 263.06238861 239.00834839 263.55937195 238.49749756 C269.23633849 232.77861453 269.23633849 232.77861453 273.52734375 232.75390625 C276.61540791 233.24775851 279.52039975 233.77502908 282.4921875 234.765625 C283.1796875 236.328125 283.1796875 236.328125 283.4921875 238.765625 C283.6571875 240.003125 283.8221875 241.240625 283.9921875 242.515625 C283.78987487 251.80717656 270.36203417 261.00757628 264.0546875 267.265625 C262.9301042 268.38518132 261.80575345 269.50497129 260.68164062 270.625 C257.95449406 273.34124034 255.22422843 276.05430792 252.4921875 278.765625 C254.07650203 282.67413699 256.75853845 285.28929856 259.71875 288.1875 C260.22642914 288.69234924 260.73410828 289.19719849 261.25717163 289.71734619 C262.87252592 291.32154596 264.49470959 292.91863356 266.1171875 294.515625 C267.21660448 295.60500607 268.31556809 296.6948449 269.4140625 297.78515625 C272.1015477 300.45064385 274.79517771 303.10977643 277.4921875 305.765625 C281.3161367 304.18685067 283.72860849 301.77060787 286.62792969 298.85693359 C287.37495399 298.11034737 287.37495399 298.11034737 288.1370697 297.34867859 C289.77585483 295.7085043 291.40744884 294.06136839 293.0390625 292.4140625 C294.17634097 291.27305244 295.3140629 290.13248423 296.45220947 288.99234009 C299.44208729 285.99483738 302.42590941 282.99137649 305.4085083 279.9866333 C308.45490071 276.91975788 311.50698453 273.85855806 314.55859375 270.796875 C320.54204184 264.79199717 326.51910413 258.78081268 332.4921875 252.765625 C330.91978729 248.9785049 328.55274722 246.57466446 325.67150879 243.690979 C325.17710124 243.19345147 324.68269368 242.69592393 324.17330408 242.18331981 C322.51674836 240.51879187 320.85314166 238.86149802 319.18945312 237.20410156 C317.99988459 236.0118229 316.81074194 234.81911919 315.62199402 233.62602234 C312.39328693 230.38819364 309.1582807 227.15672785 305.92184258 223.92662907 C302.53918169 220.54902696 299.16139779 217.16655339 295.78283691 213.78485107 C290.11028415 208.10865931 284.43352601 202.43669895 278.75439453 196.76708984 C272.18067929 190.20426949 265.61421436 183.63426085 259.0514493 177.0604918 C253.42197798 171.42195821 247.78863559 165.78731441 242.15201139 160.15593123 C238.78300274 156.79004678 235.41537463 153.42281099 232.05122375 150.05207062 C228.89077488 146.88586396 225.72551114 143.72455257 222.55639076 140.56702614 C221.39121529 139.40450522 220.22775699 138.24026041 219.0661068 137.07421684 C217.48625291 135.48893762 215.90043353 133.90988533 214.31286621 132.33233643 C213.42501183 131.44523609 212.53715744 130.55813576 211.62239838 129.64415359 C208.47004814 126.86425038 208.09009088 127.22155029 204.97021484 130.06054688 Z M425.4921875 141.765625 C424.79371625 144.6053114 424.79371625 146.9259386 425.4921875 149.765625 C427.48140636 152.7494533 428.87721318 154.36839341 432.4296875 155.2421875 C436.35282242 155.52453433 438.16331121 154.98487586 441.4921875 152.765625 C443.71143836 149.43674871 444.25109683 147.62625992 443.96875 143.703125 C443.09495591 140.15065068 441.4760158 138.75484386 438.4921875 136.765625 C432.67555547 135.33492115 428.88403844 136.67784859 425.4921875 141.765625 Z M-26.5078125 221.765625 C-27.20628375 224.6053114 -27.20628375 226.9259386 -26.5078125 229.765625 C-24.51859364 232.7494533 -23.12278682 234.36839341 -19.5703125 235.2421875 C-15.64717758 235.52453433 -13.83668879 234.98487586 -10.5078125 232.765625 C-8.28856164 229.43674871 -7.74890317 227.62625992 -8.03125 223.703125 C-8.90504409 220.15065068 -10.5239842 218.75484386 -13.5078125 216.765625 C-19.32444453 215.33492115 -23.11596156 216.67784859 -26.5078125 221.765625 Z M425.4921875 273.765625 C424.79371625 276.6053114 424.79371625 278.9259386 425.4921875 281.765625 C427.48140636 284.7494533 428.87721318 286.36839341 432.4296875 287.2421875 C436.35282242 287.52453433 438.16331121 286.98487586 441.4921875 284.765625 C443.71143836 281.43674871 444.25109683 279.62625992 443.96875 275.703125 C443.09495591 272.15065068 441.4760158 270.75484386 438.4921875 268.765625 C432.67555547 267.33492115 428.88403844 268.67784859 425.4921875 273.765625 Z M-26.5078125 353.765625 C-27.20628375 356.6053114 -27.20628375 358.9259386 -26.5078125 361.765625 C-24.51859364 364.7494533 -23.12278682 366.36839341 -19.5703125 367.2421875 C-15.64717758 367.52453433 -13.83668879 366.98487586 -10.5078125 364.765625 C-8.28856164 361.43674871 -7.74890317 359.62625992 -8.03125 355.703125 C-8.90504409 352.15065068 -10.5239842 350.75484386 -13.5078125 348.765625 C-19.32444453 347.33492115 -23.11596156 348.67784859 -26.5078125 353.765625 Z M-26.5078125 473.765625 C-27.20628375 476.6053114 -27.20628375 478.9259386 -26.5078125 481.765625 C-24.51859364 484.7494533 -23.12278682 486.36839341 -19.5703125 487.2421875 C-15.64717758 487.52453433 -13.83668879 486.98487586 -10.5078125 484.765625 C-8.28856164 481.43674871 -7.74890317 479.62625992 -8.03125 475.703125 C-8.90504409 472.15065068 -10.5239842 470.75484386 -13.5078125 468.765625 C-19.32444453 467.33492115 -23.11596156 468.67784859 -26.5078125 473.765625 Z M173.4921875 473.765625 C172.79371625 476.6053114 172.79371625 478.9259386 173.4921875 481.765625 C175.48140636 484.7494533 176.87721318 486.36839341 180.4296875 487.2421875 C184.35282242 487.52453433 186.16331121 486.98487586 189.4921875 484.765625 C191.71143836 481.43674871 192.25109683 479.62625992 191.96875 475.703125 C191.09495591 472.15065068 189.4760158 470.75484386 186.4921875 468.765625 C180.67555547 467.33492115 176.88403844 468.67784859 173.4921875 473.765625 Z M305.4921875 473.765625 C304.79371625 476.6053114 304.79371625 478.9259386 305.4921875 481.765625 C307.48140636 484.7494533 308.87721318 486.36839341 312.4296875 487.2421875 C316.35282242 487.52453433 318.16331121 486.98487586 321.4921875 484.765625 C323.71143836 481.43674871 324.25109683 479.62625992 323.96875 475.703125 C323.09495591 472.15065068 321.4760158 470.75484386 318.4921875 468.765625 C312.67555547 467.33492115 308.88403844 468.67784859 305.4921875 473.765625 Z M425.4921875 473.765625 C424.79371625 476.6053114 424.79371625 478.9259386 425.4921875 481.765625 C427.48140636 484.7494533 428.87721318 486.36839341 432.4296875 487.2421875 C436.35282242 487.52453433 438.16331121 486.98487586 441.4921875 484.765625 C443.71143836 481.43674871 444.25109683 479.62625992 443.96875 475.703125 C443.09495591 472.15065068 441.4760158 470.75484386 438.4921875 468.765625 C432.67555547 467.33492115 428.88403844 468.67784859 425.4921875 473.765625 Z " fill="#12b8c8" transform="translate(47.5078125,4.234375)"/>
<path d="M0 0 C3.2561101 1.89446406 5.3487671 3.30400843 6.73046875 6.90234375 C7.49776352 10.86036925 7.15298259 12.69403482 5.3125 16.375 C1.87022901 20.28244275 1.87022901 20.28244275 -1 21 C-6.16431564 21 -8.03709795 20.82247883 -12 17.4375 C-14.60444974 12.96110202 -14.72939554 11.10576877 -14 6 C-10.35211342 0.28497769 -6.68984451 -1.06739634 0 0 Z " fill="#12b8c8" transform="translate(167,482)"/>
<path d="M0 0 C3.125 1.875 3.125 1.875 5 5 C5.98876625 10.02622846 5.7769173 13.70513784 3.125 18.125 C-1.29486216 20.7769173 -4.97377154 20.98876625 -10 20 C-13.125 18.125 -13.125 18.125 -15 15 C-15.98876625 9.97377154 -15.7769173 6.29486216 -13.125 1.875 C-8.70513784 -0.7769173 -5.02622846 -0.98876625 0 0 Z " fill="#12b8c8" transform="translate(497,350)"/>
<path d="M0 0 C3.125 1.875 3.125 1.875 5 5 C5.98876625 10.02622846 5.7769173 13.70513784 3.125 18.125 C-1.29486216 20.7769173 -4.97377154 20.98876625 -10 20 C-13.125 18.125 -13.125 18.125 -15 15 C-15.98876625 9.97377154 -15.7769173 6.29486216 -13.125 1.875 C-8.70513784 -0.7769173 -5.02622846 -0.98876625 0 0 Z " fill="#12b8c8" transform="translate(25,160)"/>
<path d="M0 0 C3.125 1.875 3.125 1.875 5 5 C5.98876625 10.02622846 5.7769173 13.70513784 3.125 18.125 C-1.29486216 20.7769173 -4.97377154 20.98876625 -10 20 C-13.125 18.125 -13.125 18.125 -15 15 C-15.98876625 9.97377154 -15.7769173 6.29486216 -13.125 1.875 C-8.70513784 -0.7769173 -5.02622846 -0.98876625 0 0 Z " fill="#12b8c8" transform="translate(354,10)"/>
</svg>
