<?xml version="1.0" encoding="UTF-8"?>
<svg version="1.1" xmlns="http://www.w3.org/2000/svg" width="512" height="512">
<path d="M0 0 C1.10078878 -0.00525911 1.10078878 -0.00525911 2.22381571 -0.01062447 C4.6782546 -0.0199144 7.13245497 -0.01502141 9.58690357 -0.01015663 C11.36630837 -0.01389411 13.14571152 -0.01849602 14.92511207 -0.02388728 C19.81162798 -0.03612073 24.69807545 -0.03585639 29.58460319 -0.03349853 C34.85607164 -0.03309044 40.12751811 -0.04412872 45.39897633 -0.05361366 C55.72594341 -0.07022683 66.05288766 -0.07572336 76.37986698 -0.07683842 C84.77491003 -0.0777888 93.16994556 -0.08189859 101.56498623 -0.08823967 C125.36865733 -0.10585339 149.17231039 -0.1150784 172.97598805 -0.11357872 C174.90089543 -0.11345885 174.90089543 -0.11345885 176.86468983 -0.11333656 C178.14952917 -0.1132548 179.43436852 -0.11317304 180.75814239 -0.1130888 C201.57830339 -0.11227599 222.39839203 -0.13141202 243.21853211 -0.1596133 C264.59865144 -0.18834443 285.97873549 -0.20215344 307.35887462 -0.20042574 C319.3612936 -0.1997619 331.36363673 -0.20525194 343.36603832 -0.22678185 C353.58586139 -0.24499668 363.80557423 -0.24933848 374.0254065 -0.235763 C379.23802984 -0.22923478 384.45044173 -0.22911103 389.66304493 -0.2464695 C394.43946446 -0.26221157 399.21550509 -0.25932485 403.99191544 -0.24190123 C405.71532858 -0.23883384 407.43877007 -0.24245384 409.16214975 -0.25362138 C423.00121651 -0.33732449 434.2174347 1.62404418 445.42548084 10.25726891 C446.05196522 10.72004234 446.67844959 11.18281578 447.32391834 11.65961266 C456.29297088 18.72910603 462.19318273 30.13858398 464.42548084 41.25726891 C464.51933215 43.36592325 464.55637333 45.47733259 464.55970192 47.58807182 C464.56415976 48.89839237 464.56861761 50.20871291 464.57321054 51.55874014 C464.57312124 53.01647728 464.57293139 54.47421441 464.57265186 55.93195152 C464.57595126 57.47777731 464.57967699 59.02360223 464.58379334 60.56942606 C464.59381305 64.82421435 464.5975301 69.07898854 464.60018265 73.33378696 C464.60408584 77.92022552 464.61366425 82.50665291 464.62239552 87.09308434 C464.64216056 98.17351275 464.65222665 109.25394209 464.66112331 120.33438373 C464.66550655 125.55290648 464.67087331 130.77142823 464.67611217 135.98995018 C464.69312527 153.33895978 464.70761895 170.68796874 464.71486092 188.0369854 C464.7167708 192.5394497 464.71869113 197.041914 464.72064686 201.54437828 C464.7211306 202.6634397 464.72161434 203.78250113 464.72211274 204.9354735 C464.73041116 223.05928422 464.75574457 241.18302891 464.78822754 259.3068108 C464.82130847 277.91604092 464.83931066 296.52523749 464.84250516 315.13449717 C464.8446694 325.58207385 464.85340549 336.02955426 464.87896633 346.47710228 C464.90068752 355.37581579 464.90871679 364.27440965 464.89899955 373.17314667 C464.89445884 377.7113518 464.8963277 382.24931012 464.91576099 386.78748131 C464.93342208 390.9478409 464.93237124 395.10777416 464.9168637 399.26813847 C464.91449207 400.76755474 464.91878799 402.26700077 464.93069235 403.76637167 C465.04762042 419.47563578 460.79156051 432.28037247 450.42548084 444.25726891 C438.07913879 454.69819124 426.1919577 458.56097119 410.22626209 458.59320641 C409.07304966 458.5998632 407.91983723 458.60652 406.73167896 458.61337852 C404.30532894 458.62346354 401.87895141 458.62819684 399.45258045 458.62787437 C395.73931155 458.63226733 392.02721327 458.66868695 388.31415272 458.70648766 C385.95152656 458.71235266 383.58889478 458.71632417 381.22626209 458.71820641 C380.11785465 458.73257744 379.00944721 458.74694847 377.86745167 458.76175499 C370.2175696 458.71627071 370.2175696 458.71627071 366.28168201 456.43549156 C363.71122991 453.41910675 362.95796326 451.18432674 362.42548084 447.25726891 C363.51355165 443.17700339 364.35375934 440.9956804 367.86371326 438.57733727 C372.77375104 436.75757071 377.21892829 436.85458235 382.41376209 436.88617516 C384.58628969 436.86879014 386.7588157 436.85120578 388.93134022 436.83344078 C392.33460941 436.82338427 395.7377736 436.8197688 399.14105701 436.82147789 C402.44060515 436.81789064 405.73935672 436.79048239 409.03876209 436.76117516 C410.04530338 436.76935768 411.05184467 436.77754021 412.08888721 436.78597069 C421.64954565 436.6861274 428.69106566 433.67214668 435.69891834 427.19476891 C440.35300867 421.97207931 442.5453055 415.78457629 442.56414604 408.85933208 C442.56962141 407.73135141 442.57509678 406.60337074 442.58073807 405.44120884 C442.58171525 404.19741616 442.58269243 402.95362349 442.58369923 401.67214012 C442.59109371 399.70072044 442.59109371 399.70072044 442.59863758 397.68947411 C442.61224168 394.02646889 442.61962668 390.36347289 442.62605233 386.700449 C442.63417556 382.69532592 442.64804977 378.69022209 442.66120529 374.68511295 C442.68589567 366.90466385 442.70547665 359.12421017 442.72329053 351.34374262 C442.74410778 342.34725245 442.77124959 333.35078874 442.79840565 324.3543148 C442.86699391 300.59281447 442.92695647 276.83128987 442.98798084 253.06976891 C443.13235584 200.00164391 443.27673084 146.93351891 443.42548084 92.25726891 C288.32548084 92.25726891 133.22548084 92.25726891 -26.57451916 92.25726891 C-26.49201916 145.20164391 -26.40951916 198.14601891 -26.32451916 252.69476891 C-26.30872814 269.42349693 -26.29293713 286.15222496 -26.27666759 303.38788414 C-26.24345534 318.35927287 -26.24345534 318.35927287 -26.20495129 333.33064842 C-26.18791876 340.00861247 -26.18176031 346.68647855 -26.18297863 353.3644619 C-26.1843463 361.06634319 -26.17192337 368.76805513 -26.14248027 376.46988255 C-26.12785258 380.40960086 -26.11940742 384.34905561 -26.12869501 388.28879631 C-26.13850502 392.50965761 -26.11748623 396.72980861 -26.09350109 400.95061302 C-26.10514231 402.79008806 -26.10514231 402.79008806 -26.1170187 404.66672421 C-26.01471834 414.85322044 -23.44475424 422.03020422 -16.51201916 429.53070641 C-10.11016581 435.23558378 -3.06336149 436.39593636 5.25751209 436.46820641 C7.04332849 436.49627868 8.82913566 436.52494317 10.61493397 436.55414391 C13.42588474 436.59536235 16.23666389 436.63225655 19.0477953 436.65863609 C21.76389483 436.6863246 24.47921508 436.73219799 27.19501209 436.78070641 C28.02958439 436.78395927 28.86415668 436.78721214 29.72401905 436.79056358 C34.66224717 436.8940284 38.17732059 437.46749308 42.42548084 440.25726891 C44.8631981 444.21855945 45.55301898 446.31667512 44.92548084 450.94476891 C43.16834965 454.8251003 42.05782921 456.05334566 38.42548084 458.25726891 C35.20412613 458.83915163 32.03586305 458.8180433 28.76923084 458.78851891 C27.83051136 458.79234581 26.89179188 458.79617271 25.92462635 458.80011559 C23.93759559 458.80283405 21.95052901 458.79547747 19.96356678 458.77875328 C16.96305017 458.75753458 13.96498093 458.77845692 10.96454334 458.80414391 C-6.35610246 458.83011081 -20.07796958 455.87455209 -33.57451916 444.25726891 C-41.79033238 434.7966355 -47.68876599 423.59260977 -47.70874023 410.92646599 C-47.71319808 409.61614544 -47.71765592 408.3058249 -47.72224885 406.95579767 C-47.72215956 405.49806054 -47.72196971 404.0403234 -47.72169018 402.58258629 C-47.72498957 401.0367605 -47.7287153 399.49093558 -47.73283166 397.94511175 C-47.74285137 393.69032346 -47.74656841 389.43554927 -47.74922097 385.18075085 C-47.75312416 380.59431229 -47.76270256 376.0078849 -47.77143383 371.42145348 C-47.79119887 360.34102506 -47.80126497 349.26059573 -47.81016162 338.18015409 C-47.81454487 332.96163133 -47.81991162 327.74310959 -47.82515049 322.52458763 C-47.84216359 305.17557804 -47.85665727 287.82656907 -47.86389923 270.47755241 C-47.86580912 265.97508811 -47.86772945 261.47262381 -47.86968517 256.97015953 C-47.87016891 255.85109811 -47.87065265 254.73203668 -47.87115105 253.57906431 C-47.87944948 235.45525359 -47.90478288 217.33150891 -47.93726585 199.20772702 C-47.97034679 180.5984969 -47.98834897 161.98930032 -47.99154347 143.38004065 C-47.99370772 132.93246396 -48.0024438 122.48498355 -48.02800465 112.03743553 C-48.04972583 103.13872202 -48.0577551 94.24012816 -48.04803786 85.34139115 C-48.04349716 80.80318601 -48.04536601 76.26522769 -48.06479931 71.7270565 C-48.08246039 67.56669691 -48.08140956 63.40676365 -48.06590202 59.24639934 C-48.06353039 57.74698307 -48.0678263 56.24753704 -48.07973067 54.74816614 C-48.19525824 39.22705891 -44.14909964 25.69832418 -33.52373791 14.10492516 C-24.40563609 5.46191482 -12.56216279 0.01358109 0 0 Z M-19.42998791 30.14789391 C-29.43234204 42.69405662 -26.57451916 54.48164343 -26.57451916 71.25726891 C128.52548084 71.25726891 283.62548084 71.25726891 443.42548084 71.25726891 C444.88997036 48.96123337 444.88997036 48.96123337 437.30048084 31.00726891 C425.74678857 19.95591108 412.75156042 19.95861966 397.64911366 20.00330162 C395.94819092 20.00099478 394.24726919 19.99781675 392.54634953 19.99384713 C387.89077344 19.98552125 383.23527966 19.98961437 378.57970333 19.99581957 C373.55168706 20.00035209 368.52368475 19.99335633 363.49567127 19.98785973 C353.65305495 19.97897264 343.81046915 19.9808847 333.96785164 19.98668501 C325.96760082 19.99120418 317.96735855 19.99181329 309.96710682 19.98963737 C308.25829677 19.98917768 308.25829677 19.98917768 306.5149653 19.98870869 C304.20059395 19.98806923 301.8862226 19.9874208 299.57185125 19.98676351 C277.87668097 19.98106222 256.18152759 19.98761496 234.48636007 19.99836424 C215.87621478 20.00729956 197.26609444 20.00574747 178.65594959 19.99652672 C157.03770887 19.98582055 135.41948297 19.98161152 113.80123997 19.98775125 C111.49544494 19.98838834 109.1896499 19.98901708 106.88385487 19.98963737 C105.18217022 19.9901002 105.18217022 19.9901002 103.4461081 19.99057238 C95.45668478 19.99229827 87.46727087 19.98938648 79.47784901 19.98467827 C69.73969025 19.97906559 60.00156373 19.98059405 50.26340866 19.99123976 C45.29612866 19.99649123 40.32890239 19.99856211 35.36162281 19.99194145 C30.81188784 19.9859691 26.26225625 19.98927836 21.71253061 19.99989656 C20.06932569 20.00212512 18.42611198 20.00100653 16.78291273 19.99614498 C3.4475756 19.95972684 -9.45701006 19.98595437 -19.42998791 30.14789391 Z " fill="#12B8C8" transform="translate(47.57451915740967,-0.25726890563964844)"/>
<path d="M0 0 C0.80836807 -0.01606293 1.61673615 -0.03212585 2.44960022 -0.04867554 C6.16105068 -0.09347626 9.87232585 -0.13423261 13.58398438 -0.15722656 C15.5323486 -0.17372305 17.48065391 -0.20092893 19.42871094 -0.23925781 C31.71187147 -0.47942843 41.06680627 -0.65360213 50.83764648 7.63037109 C57.9853835 16.24970103 58.994446 23.09502745 57.96264648 34.19287109 C55.61194001 42.33246686 50.33736373 48.16486138 43.02124023 52.28662109 C37.76507762 54.58021933 32.61507886 54.50560813 26.96264648 54.19287109 C26.96264648 56.83287109 26.96264648 59.47287109 26.96264648 62.19287109 C27.74124023 62.20705078 28.51983398 62.22123047 29.32202148 62.23583984 C51.51416603 63.18181836 71.21495592 71.72518399 90.96264648 81.19287109 C91.53112305 80.72236328 92.09959961 80.25185547 92.68530273 79.76708984 C100.92864333 73.12012238 108.55266245 69.42706129 119.32202148 70.40771484 C128.73430181 72.11166214 135.5003759 77.49078056 140.96264648 85.19287109 C145.01391067 91.8156824 144.7365506 99.68600117 143.96264648 107.19287109 C142.3364771 113.21669209 139.14864742 117.65803675 134.96264648 122.19287109 C136.41639777 126.18701605 138.36361617 129.57771425 140.58764648 133.19287109 C157.99363419 162.77742498 163.69165721 202.44059392 155.20874023 235.78662109 C154.79871681 237.2568711 154.38339266 238.72565367 153.96264648 240.19287109 C153.76429199 240.92892578 153.5659375 241.66498047 153.36157227 242.42333984 C146.05309496 269.0757344 129.65505422 294.91730828 107.96264648 312.19287109 C106.94041992 313.01400391 105.91819336 313.83513672 104.86499023 314.68115234 C89.67380363 326.52512834 72.55051634 335.17386083 53.96264648 340.19287109 C53.2447998 340.40024902 52.52695312 340.60762695 51.78735352 340.82128906 C29.40574722 347.11720455 2.2317131 346.62615701 -20.03735352 340.19287109 C-20.77195801 339.9945166 -21.5065625 339.79616211 -22.26342773 339.59179688 C-48.91803871 332.28430593 -74.76046647 315.88694163 -92.03735352 294.19287109 C-93.26905273 292.65953125 -93.26905273 292.65953125 -94.52563477 291.09521484 C-106.3666338 275.90784652 -115.02836368 258.78025174 -120.03735352 240.19287109 C-120.24473145 239.46970703 -120.45210938 238.74654297 -120.66577148 238.00146484 C-130.46622467 202.85928646 -123.66345651 163.58936704 -106.03735352 132.19287109 C-105.01139675 130.59931325 -103.97294802 129.0135885 -102.91235352 127.44287109 C-102.29360352 126.37037109 -101.67485352 125.29787109 -101.03735352 124.19287109 C-102.29351849 120.74854777 -104.58824132 118.03898495 -106.81860352 115.16943359 C-111.33651135 107.84231383 -111.19415666 98.53759448 -109.42016602 90.34130859 C-106.6354938 82.38158182 -101.21561287 76.48521067 -93.66235352 72.75537109 C-85.92079912 69.76250213 -77.85933674 69.24468726 -70.03735352 72.19287109 C-65.05056532 74.7709743 -60.50962817 77.8144327 -56.03735352 81.19287109 C-55.15720581 80.74016846 -55.15720581 80.74016846 -54.25927734 80.27832031 C-35.5946241 70.77295473 -14.52476537 61.21617055 6.96264648 62.19287109 C6.96264648 59.55287109 6.96264648 56.91287109 6.96264648 54.19287109 C6.35678711 54.23927734 5.75092773 54.28568359 5.12670898 54.33349609 C-3.40415266 54.70097936 -10.51088143 52.8745246 -16.91235352 47.00537109 C-23.34270049 39.79973406 -24.6597912 32.9986312 -24.36157227 23.43505859 C-23.94445373 19.2638732 -23.14587816 16.80748477 -21.03735352 13.19287109 C-20.52172852 12.18224609 -20.00610352 11.17162109 -19.47485352 10.13037109 C-14.74093581 4.42539335 -7.51753236 0.13630107 0 0 Z M-1.99047852 22.53027344 C-3.64050524 25.1507683 -3.4139442 27.18014563 -3.03735352 30.19287109 C-2.05044717 32.00431398 -2.05044717 32.00431398 -0.03735352 33.19287109 C2.58518106 33.49105688 4.96558614 33.61346033 7.58764648 33.59130859 C8.33095215 33.59417877 9.07425781 33.59704895 9.84008789 33.6000061 C11.41024539 33.60204586 12.98042835 33.5965221 14.55053711 33.58398438 C16.95410981 33.56792812 19.35600109 33.58383461 21.75952148 33.60302734 C23.28556686 33.60104489 24.81161119 33.59720118 26.33764648 33.59130859 C27.05645996 33.59738129 27.77527344 33.60345398 28.51586914 33.60971069 C31.43206754 33.56859986 33.46962132 33.53047007 35.91577148 31.85546875 C37.5657982 29.23497389 37.33923717 27.20559656 36.96264648 24.19287109 C35.97574014 22.38142821 35.97574014 22.38142821 33.96264648 21.19287109 C31.34011191 20.89468531 28.95970683 20.77228186 26.33764648 20.79443359 C25.59434082 20.79156342 24.85103516 20.78869324 24.08520508 20.78573608 C22.51504758 20.78369633 20.94486462 20.78922009 19.37475586 20.80175781 C16.97118316 20.81781407 14.56929188 20.80190757 12.16577148 20.78271484 C10.63972611 20.78469729 9.11368177 20.78854101 7.58764648 20.79443359 C6.86883301 20.7883609 6.15001953 20.78228821 5.40942383 20.77603149 C2.49322543 20.81714233 0.45567164 20.85527212 -1.99047852 22.53027344 Z M-62.03735352 112.19287109 C-62.72313477 112.74458984 -63.40891602 113.29630859 -64.11547852 113.86474609 C-87.25088401 132.99244355 -99.89213289 162.79521453 -103.50610352 191.97802734 C-106.30275894 223.72642241 -96.32279977 255.45938916 -75.95922852 279.92724609 C-75.32500977 280.67490234 -74.69079102 281.42255859 -74.03735352 282.19287109 C-73.48563477 282.87865234 -72.93391602 283.56443359 -72.36547852 284.27099609 C-57.31694885 302.47255103 -35.36164463 313.8033978 -13.03735352 320.19287109 C-11.90813477 320.53447266 -10.77891602 320.87607422 -9.61547852 321.22802734 C19.20217222 328.50008709 51.13015787 322.57694771 76.73999023 308.16943359 C90.84855101 299.51618299 102.88886074 289.41707298 112.96264648 276.19287109 C113.56850586 275.40267578 114.17436523 274.61248047 114.79858398 273.79833984 C133.64909456 248.08146682 140.89048474 216.14909956 136.38110352 184.72753906 C132.61180549 161.89623681 122.90920714 141.81280032 107.96264648 124.19287109 C107.41092773 123.50708984 106.85920898 122.82130859 106.29077148 122.11474609 C87.16307403 98.9793406 57.36030305 86.33809172 28.17749023 82.72412109 C-4.95225311 79.80578534 -36.8324477 90.81215788 -62.03735352 112.19287109 Z M-87.84985352 94.38037109 C-89.77337033 97.31626519 -89.40188555 99.79057209 -89.03735352 103.19287109 C-88.04735352 104.18287109 -87.05735352 105.17287109 -86.03735352 106.19287109 C-80.59235352 101.24287109 -80.59235352 101.24287109 -75.03735352 96.19287109 C-76.51613642 92.21688498 -76.51613642 92.21688498 -78.84985352 91.31787109 C-82.42871243 91.11336487 -84.90840861 92.45321754 -87.84985352 94.38037109 Z M108.96264648 94.19287109 C110.46614026 97.86073502 112.59993441 99.88197503 115.58764648 102.44287109 C116.81354492 103.50248047 116.81354492 103.50248047 118.06420898 104.58349609 C118.69069336 105.11458984 119.31717773 105.64568359 119.96264648 106.19287109 C122.58441309 103.90491031 122.9333764 103.42285036 123.40014648 99.75537109 C123.24994664 96.19856379 123.24994664 96.19856379 121.27514648 93.81787109 C116.42166545 90.40731685 113.72269545 90.79283612 108.96264648 94.19287109 Z " fill="#12B8C8" transform="translate(239.037353515625,167.80712890625)"/>
<path d="M0 0 C4.08398075 3.70407556 6.47294062 7.05993778 7.375 12.5625 C7.23315761 16.21323334 6.12453145 17.87670772 3.67749023 20.5390625 C3.04116669 21.23459229 2.40484314 21.93012207 1.74923706 22.64672852 C-1.35930901 25.91703419 -4.51155875 29.13496912 -7.71484375 32.3125 C-8.73210289 33.32763672 -8.73210289 33.32763672 -9.76991272 34.36328125 C-11.90674305 36.49457675 -14.04704823 38.62234218 -16.1875 40.75 C-17.64932123 42.20679779 -19.11091187 43.66382701 -20.57226562 45.12109375 C-24.128854 48.66673973 -27.68856016 52.20922739 -31.25 55.75 C-30.92692871 56.82596436 -30.60385742 57.90192871 -30.27099609 59.01049805 C-27.85317371 67.86601824 -27.98186415 78.28344767 -31.9921875 86.640625 C-36.96706873 94.98359353 -43.85603314 100.17770751 -53.25 102.75 C-62.13741567 103.54203912 -70.48201278 103.64931144 -78.25 98.75 C-78.87132812 98.399375 -79.49265625 98.04875 -80.1328125 97.6875 C-86.99365239 93.4106128 -91.18905235 86.45737958 -93.25 78.75 C-94.24851512 67.65022728 -93.59947202 58.0155134 -86.5 48.9375 C-80.84111971 42.87849687 -73.73473988 39.01917564 -65.41015625 38.51953125 C-64.04420141 38.52346772 -62.67823988 38.53795028 -61.3125 38.5625 C-60.63509766 38.56314453 -59.95769531 38.56378906 -59.25976562 38.56445312 C-55.96547246 38.59287943 -53.10072525 38.78831407 -49.89990234 39.60986328 C-46.0941167 40.1289193 -46.0941167 40.1289193 -43.06860352 37.47680664 C-41.98463579 36.39157936 -40.92230357 35.28444549 -39.87890625 34.16015625 C-39.31171371 33.58164413 -38.74452118 33.00313202 -38.16014099 32.40708923 C-36.35791656 30.56018219 -34.58551605 28.68742181 -32.8125 26.8125 C-31.5936646 25.55352767 -30.37298004 24.29634274 -29.15039062 23.04101562 C-26.16176333 19.96431763 -23.19958084 16.86413208 -20.25 13.75 C-30.76514432 2.97396806 -47.25835117 -0.03612275 -61.8125 -0.5 C-81.0904425 -0.2097424 -98.34561124 7.7035852 -112.41796875 20.76171875 C-124.9784661 33.90529528 -131.35133343 51.14664915 -132.44287109 69.0793457 C-132.80583141 73.83046195 -133.88493076 76.37220838 -137.25 79.75 C-140.74153681 81.4957684 -144.44027545 81.30928599 -148.25 80.75 C-152.19624963 78.20138045 -153.06856089 76.48785239 -154.1875 71.9375 C-155.45716106 48.69885523 -145.69307316 25.61067712 -130.67626953 8.33251953 C-97.08983637 -28.93335855 -38.06806559 -32.59462805 0 0 Z M-71.25 64.75 C-72.86429923 67.97859847 -72.84570657 71.25993653 -72.25 74.75 C-70.51397895 77.77508145 -68.41419863 80.16790069 -65.25 81.75 C-62.19098826 82.17068924 -59.30241674 82.24028455 -56.25 81.75 C-53.22590636 79.47872666 -53.22590636 79.47872666 -51.25 76.75 C-50.92 76.42 -50.59 76.09 -50.25 75.75 C-49.69279416 71.96896039 -49.40996224 68.27021759 -51.296875 64.85546875 C-54.40914503 61.09328351 -56.16681386 59.85831861 -61 59.375 C-65.89657384 59.41067631 -67.89837836 61.31663149 -71.25 64.75 Z " fill="#12B8C8" transform="translate(317.25,300.25)"/>
<path d="M0 0 C0.92292156 -0.00226556 1.84584313 -0.00453111 2.79673201 -0.00686532 C5.8904254 -0.01319734 8.98407489 -0.01237647 12.07777405 -0.0115509 C14.2953497 -0.01454286 16.51292483 -0.01794547 18.73049927 -0.02172852 C24.75521008 -0.03056818 30.77990669 -0.03290659 36.80462337 -0.0335443 C41.83212928 -0.0344935 46.85963188 -0.03817184 51.88713652 -0.0417164 C63.06882437 -0.04939531 74.25050698 -0.05238502 85.43219691 -0.05171105 C86.10285455 -0.05167109 86.7735122 -0.05163113 87.4644928 -0.05158997 C88.13597037 -0.05154909 88.80744793 -0.0515082 89.49927331 -0.05146609 C100.38454745 -0.05105952 111.26978702 -0.06063235 122.15505116 -0.07472833 C133.33558186 -0.08909232 144.51609989 -0.09581538 155.69664103 -0.09513456 C161.97225496 -0.09487937 168.24782975 -0.09774232 174.52343559 -0.10831261 C180.42410266 -0.11798004 186.32469304 -0.11808205 192.22536278 -0.11079597 C194.39173748 -0.10974851 196.55811693 -0.11212259 198.72448349 -0.11815643 C201.68026391 -0.12585623 204.63577818 -0.12124482 207.59155273 -0.11352539 C208.4500194 -0.11866895 209.30848607 -0.12381252 210.19296688 -0.12911195 C215.95037142 -0.09585383 220.76445765 0.2594086 225.23426819 4.25871277 C227.35114144 8.00395005 227.72707192 10.92231229 226.85926819 15.13371277 C225.06562908 17.94374737 223.84045884 19.64311745 220.85926819 21.13371277 C217.82178411 21.23861037 214.806875 21.28150526 211.76885986 21.28088379 C210.81512759 21.28456048 209.86139532 21.28823717 208.87876207 21.29202527 C205.66286748 21.30309366 202.44700517 21.30691127 199.23109436 21.31071472 C196.93352149 21.31697693 194.63594964 21.32362351 192.33837891 21.33062744 C186.08216632 21.34805836 179.82596139 21.35859463 173.56973052 21.36683297 C169.66435789 21.37197805 165.75898766 21.37805396 161.85361671 21.3843441 C151.04395786 21.40121597 140.23430196 21.41585145 129.42463207 21.42309284 C126.61890855 21.42500278 123.81318504 21.42692311 121.00746155 21.42887878 C119.9614196 21.42960439 119.9614196 21.42960439 118.89424548 21.43034466 C107.59421155 21.43864724 96.2942834 21.46398781 84.99429568 21.49645946 C73.39688689 21.52951451 61.79953736 21.54720727 50.2020815 21.55073708 C43.68886174 21.55309231 37.17580915 21.56211424 30.6626339 21.58719826 C24.53705993 21.61040802 18.41176407 21.61474075 12.28615761 21.60443687 C10.03550417 21.60393969 7.78483738 21.61031342 5.53422546 21.62399292 C2.4660226 21.64160124 -0.60117023 21.63465993 -3.66937256 21.62145996 C-4.56392601 21.63242921 -5.45847947 21.64339845 -6.3801406 21.6547001 C-10.50323462 21.61175489 -12.60343109 21.47166674 -16.17019176 19.22822857 C-19.45274399 15.73915586 -19.54075547 13.04116919 -19.48838806 8.39543152 C-19.14073181 6.13371277 -19.14073181 6.13371277 -16.95323181 3.13371277 C-11.76648988 -0.55463705 -6.1372569 -0.0110424 0 0 Z " fill="#12B8C8" transform="translate(231.14073181152344,34.86628723144531)"/>
<path d="M0 0 C2.89542158 2.11062559 5.43844662 4.49966021 8 7 C8.804375 7.77730469 9.60875 8.55460938 10.4375 9.35546875 C19.28019611 18.042284 19.28019611 18.042284 19.5625 23.1875 C19.37746679 29.24490293 16.18961784 31.97071696 12 36 C10.97507201 37.04153013 9.95314103 38.08601465 8.93359375 39.1328125 C-0.87136183 49.13723598 -0.87136183 49.13723598 -6.3125 49.375 C-10.02449383 49.33315788 -10.85129077 49.10843381 -14 46.8125 C-16.03480471 43.95105588 -16.82652351 42.46952984 -17 39 C-16.69033176 37.32877456 -16.35991148 35.66112992 -16 34 C-16.96608688 34.00888245 -17.93217377 34.01776489 -18.92753601 34.0269165 C-28.03520553 34.10802869 -37.14280169 34.16797799 -46.25075054 34.20724869 C-50.93318939 34.22811702 -55.61533648 34.25642081 -60.29760742 34.30175781 C-64.81690651 34.3452426 -69.33592509 34.36914278 -73.85541725 34.37950897 C-75.57901233 34.38689563 -77.30259218 34.40132019 -79.02606773 34.42292023 C-81.4417873 34.45198994 -83.85635025 34.45595463 -86.2722168 34.45410156 C-86.98359802 34.46848267 -87.69497925 34.48286377 -88.42791748 34.49768066 C-93.22186061 34.45793225 -95.63452092 33.39316193 -99 30 C-100.73899832 26.52200335 -100.58979036 22.794318 -100 19 C-97.32970757 15.4396101 -95.33927114 13.72503596 -91 13 C-88.54369149 12.91125155 -86.11683957 12.87362175 -83.66113281 12.88647461 C-82.56297997 12.88625557 -82.56297997 12.88625557 -81.44264221 12.8860321 C-79.02943938 12.88672724 -76.6163143 12.89450092 -74.203125 12.90234375 C-72.52732383 12.90420935 -70.85152212 12.90563258 -69.17572021 12.90663147 C-64.76986174 12.91044548 -60.36403634 12.92026624 -55.95819092 12.93133545 C-51.46041308 12.94157357 -46.96262989 12.94613424 -42.46484375 12.95117188 C-33.64321465 12.9618895 -24.82161008 12.97895253 -16 13 C-16.185625 12.07574219 -16.37125 11.15148437 -16.5625 10.19921875 C-17.13135527 6.03946459 -16.42083834 4.40430392 -14 1 C-8.74225601 -2.23553476 -5.60733389 -2.55773125 0 0 Z " fill="#12B8C8" transform="translate(453,129)"/>
<path d="M0 0 C2.93321222 2.06100153 5.43850615 4.499598 8 7 C8.46196777 7.4429541 8.92393555 7.8859082 9.39990234 8.34228516 C19.61629743 18.14935341 19.61629743 18.14935341 21 22 C21.10590545 28.35432727 19.52166722 31.30891247 15.17578125 35.84375 C14.45777344 36.5553125 13.73976563 37.266875 13 38 C12.14792969 38.8765625 11.29585938 39.753125 10.41796875 40.65625 C0.97025941 50.28378397 0.97025941 50.28378397 -4.375 50.375 C-7.544988 50.27690591 -9.07056816 49.96618609 -12 48.5625 C-14.80266747 44.9715823 -15.12150428 41.49565838 -15 37 C-14.505 36.01 -14.505 36.01 -14 35 C-14.79069382 35.01110306 -15.58138763 35.02220612 -16.39604187 35.03364563 C-23.85551448 35.13392131 -31.31465932 35.21000147 -38.77463055 35.25906086 C-42.60973093 35.2851312 -46.44427343 35.32048034 -50.27905273 35.37719727 C-53.98141252 35.43161164 -57.68323649 35.46143983 -61.38596535 35.47438622 C-62.79699958 35.48360947 -64.20800518 35.50162116 -65.61881065 35.52865028 C-67.59803933 35.56505405 -69.5778097 35.56704333 -71.55737305 35.56762695 C-72.68322311 35.57873001 -73.80907318 35.58983307 -74.96903992 35.60127258 C-78.98873955 34.80385687 -80.46222498 33.14821653 -83 30 C-84.16697548 25.98852178 -84.22859326 23.74292809 -83 19.75 C-80.47411352 16.27690609 -78.05833584 15.05446367 -74 14 C-69.47138027 13.53870285 -64.95961241 13.51145577 -60.41015625 13.48828125 C-59.11049423 13.47033005 -57.81083221 13.45237885 -56.4717865 13.43388367 C-53.03763816 13.38661283 -49.60355446 13.35665628 -46.16918945 13.33044434 C-42.65628296 13.30052214 -39.1435987 13.25403229 -35.63085938 13.20898438 C-28.75403338 13.1232128 -21.87713317 13.05575213 -15 13 C-15.03480469 11.90300781 -15.06960937 10.80601562 -15.10546875 9.67578125 C-14.97912818 5.2725783 -14.15880429 3.98805812 -11 1 C-7.05546399 -1.28367874 -4.3128016 -1.43760053 0 0 Z " fill="#12B8C8" transform="translate(193,128)"/>
<path d="M0 0 C0.88012756 -0.00335861 1.76025513 -0.00671722 2.66705322 -0.01017761 C5.57565727 -0.01967442 8.48420368 -0.02163001 11.39282227 -0.02270508 C13.41536991 -0.02591825 15.43791732 -0.02928236 17.46046448 -0.03279114 C21.69972269 -0.03877902 25.93896052 -0.04063136 30.17822266 -0.04003906 C35.61004905 -0.03993739 41.04174487 -0.05359619 46.47354031 -0.07081127 C50.65054423 -0.08192918 54.82751656 -0.08395834 59.00453377 -0.08342934 C61.00719719 -0.08460951 63.00986144 -0.0890334 65.0125103 -0.0967617 C67.81312085 -0.10655843 70.61344738 -0.10368489 73.4140625 -0.09765625 C74.24071915 -0.10327576 75.06737579 -0.10889526 75.91908264 -0.11468506 C81.44472477 -0.08445837 85.36328099 0.39155513 89.58422852 4.27026367 C91.7795911 8.01051104 92.14580788 10.90340795 91.27172852 15.14526367 C89.47808941 17.95529828 88.25291916 19.65466835 85.27172852 21.14526367 C82.24716608 21.25971132 79.24511933 21.31314543 76.21972656 21.32226562 C75.28136963 21.32883682 74.3430127 21.33540802 73.3762207 21.34217834 C70.26196214 21.36193578 67.14775184 21.37357906 64.03344727 21.38354492 C62.97136362 21.38762045 61.90927998 21.39169598 60.81501198 21.395895 C55.19422219 21.41676564 49.5734569 21.43106337 43.95263672 21.44042969 C38.14173514 21.45149943 32.33121594 21.48590323 26.52044964 21.52560139 C22.05692321 21.55172363 17.5934885 21.5601176 13.12989235 21.56371117 C10.98765288 21.56858806 8.8454178 21.58023326 6.70325279 21.59874916 C3.70583003 21.62304803 0.70940478 21.62219241 -2.28808594 21.61523438 C-3.61694069 21.63444946 -3.61694069 21.63444946 -4.97264099 21.65405273 C-9.09324554 21.6191658 -11.19065128 21.48343892 -14.75578308 19.2408905 C-18.04087025 15.75072204 -18.12473441 13.0541762 -18.07983398 8.40698242 C-17.72827148 6.14526367 -17.72827148 6.14526367 -15.47827148 3.14526367 C-10.61615406 -0.39082173 -5.8479765 -0.00319812 0 0 Z " fill="#12B8C8" transform="translate(71.728271484375,183.854736328125)"/>
<path d="M0 0 C0.86759949 -0.00525696 1.73519897 -0.01051392 2.62908936 -0.01593018 C5.4794752 -0.02906777 8.32929657 -0.02041427 11.1796875 -0.01025391 C13.17073676 -0.01227643 15.1617853 -0.01518936 17.15283203 -0.01895142 C21.31875688 -0.02336632 25.48448831 -0.01697052 29.65039062 -0.00292969 C34.98002521 0.0141616 40.3092065 0.00431596 45.63882446 -0.01364708 C49.74816276 -0.02450741 53.85739426 -0.02102824 57.96673584 -0.0132637 C59.93145807 -0.01126792 61.89619012 -0.01369905 63.86090088 -0.02070236 C66.61065209 -0.02835385 69.35967759 -0.01666096 72.109375 0 C72.91477722 -0.00607269 73.72017944 -0.01214539 74.54998779 -0.0184021 C79.76794619 0.03992549 83.43438936 0.90525163 88.0546875 3.38818359 C90.53283359 6.79563446 91.0546875 8.73875266 91.0546875 12.95068359 C89.81026912 17.22837179 88.58867963 18.6760112 85.0546875 21.38818359 C81.89202969 22.11569219 78.80456639 22.07191412 75.5703125 22.03515625 C74.14748962 22.04829865 74.14748962 22.04829865 72.69592285 22.06170654 C69.56504374 22.08368683 66.4355806 22.06915216 63.3046875 22.05224609 C61.12662485 22.05561461 58.94856403 22.06046752 56.77050781 22.06674194 C52.20750009 22.07411144 47.64498202 22.06340481 43.08203125 22.04003906 C37.23399888 22.01155178 31.38711381 22.02795526 25.53912354 22.05790138 C21.04206706 22.07597194 16.54528245 22.07021732 12.04821777 22.05726242 C9.89204777 22.05392777 7.73585306 22.05801754 5.57971191 22.06966019 C2.56549739 22.08236443 -0.44686118 22.06299681 -3.4609375 22.03515625 C-4.79674866 22.05033798 -4.79674866 22.05033798 -6.1595459 22.06582642 C-10.54940806 21.99073469 -12.3905097 21.81396859 -15.97558594 19.06259155 C-18.46510077 15.68243797 -18.9453125 13.57678976 -18.9453125 9.38818359 C-17.66928024 5.24107876 -16.72204302 3.80559584 -12.87939453 1.74057007 C-8.58762378 0.03024484 -4.5728773 -0.03447927 0 0 Z " fill="#12B8C8" transform="translate(330.9453125,183.61181640625)"/>
<path d="M0 0 C0.78181641 -0.020625 1.56363281 -0.04125 2.36914062 -0.0625 C7.74202128 -0.09840898 11.42637968 0.72008331 16.1875 3.25 C19.06184293 6.39381258 19.1875 7.95241439 19.1875 12.25 C18.91079947 15.10923878 18.00624445 16.52625571 16.40625 18.96484375 C11.4273029 22.4996545 6.63992308 21.93835123 0.6875 21.8125 C-0.44042969 21.82345703 -1.56835938 21.83441406 -2.73046875 21.84570312 C-10.93135211 21.77291422 -10.93135211 21.77291422 -15.03125 19.33984375 C-17.81216473 16.07714774 -18.21120207 13.66873931 -18.1640625 9.35546875 C-17.52910257 5.5527643 -15.60182244 3.84914137 -12.8125 1.25 C-8.63636607 -0.16066198 -4.36125633 0.02834285 0 0 Z " fill="#12B8C8" transform="translate(71.8125,141.75)"/>
<path d="M0 0 C2.7361196 2.1901955 3.50176222 3.85644282 3.9375 7.3125 C4.25269125 11.02811993 3.99445256 12.0107123 2.1875 15.5 C0.01287319 17.98528778 -0.79204929 18.83387711 -3.98828125 19.2734375 C-8.27027177 19.46054969 -10.37508572 19.42962856 -14 16.9375 C-16.40813237 13.40055558 -17 11.27436594 -17 7 C-15.68505131 2.72641675 -14.57585305 1.35437111 -10.75 -1 C-6.30486843 -2.18536842 -4.20111112 -1.77739317 0 0 Z " fill="#12B8C8" transform="translate(329,144)"/>
<path d="M0 0 C2.17399464 2.89865952 2.61638693 4.62323335 2.6875 8.25 C1.2375457 12.59986291 0.53865325 14.6825645 -3.3125 17.25 C-7.90521203 17.98965025 -11.33712089 17.85961194 -15.3125 15.375 C-18.34944259 12.1482485 -18.71689489 9.80539926 -18.66015625 5.35546875 C-18.02511602 1.50955094 -16.16939274 -0.14705328 -13.3125 -2.75 C-8.3505234 -4.78568271 -4.13544504 -3.12952598 0 0 Z " fill="#12B8C8" transform="translate(152.3125,38.75)"/>
<path d="M0 0 C2.80019679 2.11906784 3.82494803 3.47484408 4.9375 6.8125 C5.01762792 10.89902403 3.92600105 13.42314091 2 17 C-2.01858595 19.6790573 -5.27641721 19.69610694 -10 19 C-12.87029869 17.20606332 -14.49131638 16.01736724 -16 13 C-16.57268722 6.01321586 -16.57268722 6.01321586 -14.375 2.125 C-9.60849994 -2.13976321 -5.76746485 -2.75835275 0 0 Z " fill="#12B8C8" transform="translate(110,37)"/>
<path d="M0 0 C2.80019679 2.11906784 3.82494803 3.47484408 4.9375 6.8125 C5.01762792 10.89902403 3.92600105 13.42314091 2 17 C-2.01858595 19.6790573 -5.27641721 19.69610694 -10 19 C-12.87029869 17.20606332 -14.49131638 16.01736724 -16 13 C-16.57268722 6.01321586 -16.57268722 6.01321586 -14.375 2.125 C-9.60849994 -2.13976321 -5.76746485 -2.75835275 0 0 Z " fill="#12B8C8" transform="translate(70,37)"/>
</svg>
